{
classes = (
{
code = "A Aacute Abreve Acircumflex Adieresis Agrave Alpha Alphatonos Amacron Aogonek Atilde Deltagreek Lambda lambda Aring";
name = A;
},
{
code = "A Aacute Abreve Acircumflex Adieresis Agrave Alpha Alphatonos Amacron Aogonek Atilde Deltagreek Lambda lambda Aring";
name = A1;
},
{
code = "e eacute ecaron ecircumflex edieresis edotaccent egrave emacron eogonek";
name = e;
},
{
code = "e eacute ecaron ecircumflex edieresis edotaccent egrave emacron eogonek";
name = e1;
},
{
code = "D Dcaron Dcroat Eth";
name = D;
},
{
code = "D Dcaron Dcroat Eth";
name = D1;
},
{
code = "L Lacute Lcaron Lcommaaccent Ldot Lslash";
name = L;
},
{
code = "L Lacute Lcaron Lcommaaccent Ldot Lslash";
name = L1;
},
{
code = "O Oacute Ocircumflex Odieresis Ograve Ohungarumlaut Omacron Omicron Omicrontonos Oslash Otilde zero Q Theta";
name = O;
},
{
code = "O Oacute Ocircumflex Odieresis Ograve Ohungarumlaut Omacron Omicron Omicrontonos Oslash Otilde zero Q Theta";
name = O1;
},
{
code = "Y Upsilon Upsilontonos Yacute Ycircumflex Ydieresis Ygrave";
name = Y;
},
{
code = "Y Upsilon Upsilontonos Yacute Ycircumflex Ydieresis Ygrave";
name = Y1;
},
{
code = "alpha alphatonos a aacute abreve acircumflex adieresis agrave amacron aogonek atilde aring";
name = alpha;
},
{
code = "alpha a alphatonos aacute abreve acircumflex adieresis agrave amacron aogonek atilde aring";
name = alpha1;
},
{
code = "s sacute scaron scedilla scircumflex scommaaccent sigma1";
name = s;
},
{
code = "s sacute scaron scedilla scircumflex scommaaccent sigma1";
name = s1;
},
{
code = "S Sacute Scaron Scedilla Scircumflex Scommaaccent dollar";
name = S;
},
{
code = "S Sacute Scaron Scedilla Scircumflex Scommaaccent dollar";
name = S1;
},
{
code = "l lacute lcaron lcommaaccent ldot";
name = l;
},
{
code = "l lacute lcaron lcommaaccent ldot";
name = l1;
},
{
code = "F Gamma";
name = F;
},
{
code = "F Gamma";
name = F1;
},
{
code = "f ff";
name = f;
},
{
code = "f ff";
name = f1;
},
{

glyphs = (
{
color = (153,255,177,1);
glyphname = A;
lastChange = "2018-12-18 00:11:23 +0000";
layers = (
{
anchors = (
{
name = ogonek;
position = "{270, 0}";
},
{
name = tonos;
position = "{90, 700}";
},
{
name = top;
position = "{271, 735}";
}
);
layerId = "59B97FCD-418C-4452-9337-EB92ED35D981";
name = Light;
paths = (
{
closed = 1;
nodes = (
"524 0 LINE",
"279 698 LINE",
"265 698 LINE",
"20 0 LINE",
"40 0 LINE",
"138 280 LINE",
"405 280 LINE",
"503 0 LINE"
);
},
{
closed = 1;
nodes = (
"146 299 LINE",
"272 658 LINE",
"399 299 LINE"
);
}
);
width = 542;
},
{
anchors = (
{
name = ogonek;
position = "{189, 0}";
},
{
name = tonos;
position = "{156, 700}";
},
{
name = top;
position = "{329, 735}";
}
);
layerId = "AC650972-4439-4B3A-A687-B8B0000379A6";
name = Light;
paths = (
{
closed = 1;
nodes = (
"492 0 LINE",
"370 698 LINE",
"356 698 LINE",
"-12 0 LINE",
"8 0 LINE",
"155 280 LINE",
"422 280 LINE",
"471 0 LINE"
);
},
{
closed = 1;
nodes = (
"166 299 LINE",
"356 658 LINE",
"419 299 LINE"
);
}
);
width = 519;
},
{
anchors = (
{
name = ogonek;
position = "{271, 0}";
},
{
name = tonos;
position = "{90, 700}";
},
{
name = top;
position = "{272, 735}";
}
);
layerId = "2E533DD2-9170-4ADE-821A-2C583B05E934";
name = Regular;
paths = (
{
closed = 1;
nodes = (
"525 0 LINE",
"298 698 LINE",
"245 698 LINE",
"21 0 LINE",
"81 0 LINE",
"159 244 LINE",
"386 244 LINE",
"466 0 LINE"
);
},
{
closed = 1;
nodes = (
"174 299 LINE",
"271 612 LINE",
"371 299 LINE"
);
}
);
width = 545;
},
{
anchors = (
{
name = ogonek;
position = "{189, 0}";
},
{
name = tonos;
position = "{156, 700}";
},
{
name = top;
position = "{330, 735}";
}
);
layerId = "AA3E7E17-FD94-4F30-8DBF-5406C904ABDB";
name = Regular;
paths = (
{
closed = 1;
nodes = (
"492 0 LINE",
"388 698 LINE",
"335 698 LINE",
"-12 0 LINE",
"50 0 LINE",
"171 244 LINE",
"396 244 LINE",
"433 0 LINE"
);
},
{
closed = 1;
nodes = (
"195 299 LINE",
"346 605 LINE",
"390 299 LINE"
);
}
);
width = 520;
},
{
anchors = (
{
name = ogonek;
position = "{271, 0}";
},
{
name = tonos;
position = "{90, 700}";
},
{
name = top;
position = "{271, 735}";
}
);
layerId = "5377DFB6-1026-4380-913C-75FA0B8500B4";
name = Bold;
paths = (
{
closed = 1;
nodes = (
"520 0 LINE",
"348 698 LINE",
"193 698 LINE",
"24 0 LINE",
"148 0 LINE",
"188 183 LINE",
"349 183 LINE",
"389 0 LINE"
);
},
{
closed = 1;
nodes = (
"215 300 LINE",
"269 555 LINE",
"324 300 LINE"
);
}
);
width = 543;
},
{
anchors = (
{
name = ogonek;
position = "{188, 0}";
},
{
name = tonos;
position = "{156, 700}";
},
{
name = top;
position = "{328, 735}";
}
);
layerId = "BB2AD2B5-E4ED-4CD1-ABDB-8AA4FBC4C564";
name = Bold;
paths = (
{
closed = 1;
nodes = (
"484 0 LINE",
"435 698 LINE",
"280 698 LINE",
"-12 0 LINE",
"112 0 LINE",
"184 183 LINE",
"345 183 LINE",
"353 0 LINE"
);
},
{
closed = 1;
nodes = (
"231 300 LINE",
"326 539 LINE",
"338 300 LINE"
);
}
);
width = 516;
}
);
leftKerningGroup = A;
rightKerningGroup = A;
unicode = 0041;
userData = {
com.typemytype.robofont.mark = (
0.6,
1,
0.694,
1
);
};
},
{
color = (153,255,177,1);
glyphname = B;
lastChange = "2018-12-18 00:11:23 +0000";
layers = (
{
layerId = "59B97FCD-418C-4452-9337-EB92ED35D981";
name = Light;
paths = (
{
closed = 1;
nodes = (
"261 698 CURVE SMOOTH",
"41 698 LINE",
"41 0 LINE",
"271 0 LINE SMOOTH",
"409 0 OFFCURVE",
"473 84 OFFCURVE",
"473 208 CURVE SMOOTH",
"473 304 OFFCURVE",
"433 367 OFFCURVE",
"349 399 CURVE",
"349 403 LINE",
"401 422 OFFCURVE",
"437 480 OFFCURVE",
"437 538 CURVE SMOOTH",
"437 643 OFFCURVE",
"370 698 OFFCURVE"
);
},
{
closed = 1;
nodes = (
"297 411 CURVE SMOOTH",
"60 411 LINE",
"60 679 LINE",
"253 679 LINE SMOOTH",
"367 679 OFFCURVE",
"418 624 OFFCURVE",
"418 541 CURVE SMOOTH",
"418 466 OFFCURVE",
"366 411 OFFCURVE"
);
},
{
closed = 1;
nodes = (
"269 19 CURVE SMOOTH",
"60 19 LINE",
"60 393 LINE",
"272 393 LINE SMOOTH",
"386 393 OFFCURVE",
"454 319 OFFCURVE",
"454 205 CURVE SMOOTH",
"454 90 OFFCURVE",
"389 19 OFFCURVE"
);
}
);
width = 502;
},
{
layerId = "AC650972-4439-4B3A-A687-B8B0000379A6";
name = Light;
paths = (
{
closed = 1;
nodes = (
"344 698 CURVE SMOOTH",
"124 698 LINE",
"1 0 LINE",
"231 0 LINE SMOOTH",
"369 0 OFFCURVE",
"448 85 OFFCURVE",
"469 208 CURVE SMOOTH",
"486 304 OFFCURVE",
"457 367 OFFCURVE",
"379 399 CURVE",
"379 403 LINE",
"434 422 OFFCURVE",
"481 480 OFFCURVE",
"491 538 CURVE SMOOTH",
"510 642 OFFCURVE",
"453 698 OFFCURVE"
);
},
{
closed = 1;
nodes = (
"329 411 CURVE SMOOTH",
"92 411 LINE",
"139 679 LINE",
"332 679 LINE SMOOTH",
"446 679 OFFCURVE",
"488 624 OFFCURVE",
"473 541 CURVE SMOOTH",
"460 466 OFFCURVE",
"398 411 OFFCURVE"
);
},
{
closed = 1;
nodes = (
"232 19 CURVE SMOOTH",
"23 19 LINE",
"89 393 LINE",
"301 393 LINE SMOOTH",
"415 393 OFFCURVE",
"470 319 OFFCURVE",
"450 205 CURVE SMOOTH",
"429 90 OFFCURVE",
"352 19 OFFCURVE"
);
}
);
width = 510;
},
{
layerId = "2E533DD2-9170-4ADE-821A-2C583B05E934";
name = Regular;
paths = (
{
closed = 1;
nodes = (
"261 698 CURVE SMOOTH",
"41 698 LINE",
"41 0 LINE",
"271 0 LINE SMOOTH",
"409 0 OFFCURVE",
"473 84 OFFCURVE",
"473 208 CURVE SMOOTH",
"473 304 OFFCURVE",
"429 363 OFFCURVE",
"370 389 CURVE",
"370 393 LINE",
"414 422 OFFCURVE",
"437 466 OFFCURVE",
"437 526 CURVE SMOOTH",
"437 640 OFFCURVE",
"373 698 OFFCURVE"
);
},
{
closed = 1;
nodes = (
"260 411 CURVE SMOOTH",
"97 411 LINE",
"97 645 LINE",
"253 645 LINE SMOOTH",
"337 645 OFFCURVE",
"379 606 OFFCURVE",
"379 528 CURVE SMOOTH",
"379 457 OFFCURVE",
"341 411 OFFCURVE"
);
},
{
closed = 1;
nodes = (
"269 53 CURVE SMOOTH",
"97 53 LINE",
"97 356 LINE",
"285 356 LINE SMOOTH",
"354 356 OFFCURVE",
"413 305 OFFCURVE",
"413 212 CURVE SMOOTH",
"413 106 OFFCURVE",
"365 53 OFFCURVE"
);
}
);
width = 503;
},
{
layerId = "AA3E7E17-FD94-4F30-8DBF-5406C904ABDB";
name = Regular;
paths = (
{
closed = 1;
nodes = (
"343 698 CURVE SMOOTH",
"123 698 LINE",
"0 0 LINE",
"230 0 LINE SMOOTH",
"368 0 OFFCURVE",
"447 85 OFFCURVE",
"468 208 CURVE SMOOTH",
"485 304 OFFCURVE",
"452 363 OFFCURVE",
"397 389 CURVE",
"397 391 LINE",
"450 423 OFFCURVE",
"478 464 OFFCURVE",
"488 526 CURVE SMOOTH",
"507 637 OFFCURVE",
"459 698 OFFCURVE"
);
},
{
closed = 1;
nodes = (
"291 411 CURVE SMOOTH",
"128 411 LINE",
"169 645 LINE",
"325 645 LINE SMOOTH",
"409 645 OFFCURVE",
"444 606 OFFCURVE",
"431 528 CURVE SMOOTH",
"416 455 OFFCURVE",
"374 411 OFFCURVE"
);
},
{
closed = 1;
nodes = (
"237 53 CURVE SMOOTH",
"65 53 LINE",
"118 356 LINE",
"306 356 LINE SMOOTH",
"375 356 OFFCURVE",
"425 305 OFFCURVE",
"409 212 CURVE SMOOTH",
"390 106 OFFCURVE",
"333 53 OFFCURVE"
);
}
);
width = 509;
},
{
layerId = "5377DFB6-1026-4380-913C-75FA0B8500B4";
name = Bold;
paths = (
{
closed = 1;
nodes = (
"245 698 CURVE SMOOTH",
"41 698 LINE",
"41 0 LINE",
"260 0 LINE SMOOTH",
"398 0 OFFCURVE",
"474 81 OFFCURVE",
"474 205 CURVE SMOOTH",
"474 296 OFFCURVE",
"430 354 OFFCURVE",
"371 381 CURVE",
"371 384 LINE",
"415 414 OFFCURVE",
"438 459 OFFCURVE",
"438 521 CURVE SMOOTH",
"438 633 OFFCURVE",
"361 698 OFFCURVE"
);
},
{
closed = 1;
nodes = (
"199 413 CURVE SMOOTH",
"151 413 LINE",
"151 588 LINE",
"209 588 LINE SMOOTH",
"277 588 OFFCURVE",
"310 568 OFFCURVE",
"310 505 CURVE SMOOTH",
"310 436 OFFCURVE",
"277 413 OFFCURVE"
);
},
{
closed = 1;
nodes = (
"231 101 CURVE SMOOTH",
"151 101 LINE",
"151 307 LINE",
"221 307 LINE SMOOTH",
"306 307 OFFCURVE",
"348 274 OFFCURVE",
"348 207 CURVE SMOOTH",
"348 120 OFFCURVE",
"279 101 OFFCURVE"
);
}
);
width = 505;
},
{
layerId = "BB2AD2B5-E4ED-4CD1-ABDB-8AA4FBC4C564";
name = Bold;
paths = (
{
closed = 1;
nodes = (
"327 698 CURVE SMOOTH",
"123 698 LINE",
"0 0 LINE",
"219 0 LINE SMOOTH",
"357 0 OFFCURVE",
"447 83 OFFCURVE",
"469 205 CURVE SMOOTH",
"485 296 OFFCURVE",
"451 354 OFFCURVE",
"397 381 CURVE",
"397 384 LINE",
"446 414 OFFCURVE",
"477 459 OFFCURVE",
"488 521 CURVE SMOOTH",
"510 636 OFFCURVE",
"441 698 OFFCURVE"
);
},
{
closed = 1;
nodes = (
"230 413 CURVE SMOOTH",
"182 413 LINE",
"213 588 LINE",
"271 588 LINE SMOOTH",
"339 588 OFFCURVE",
"369 568 OFFCURVE",
"358 505 CURVE SMOOTH",
"344 439 OFFCURVE",
"312 413 OFFCURVE"
);
},
{
closed = 1;
nodes = (
"207 101 CURVE SMOOTH",
"127 101 LINE",
"164 307 LINE",
"234 307 LINE SMOOTH",
"319 307 OFFCURVE",
"355 274 OFFCURVE",
"343 207 CURVE SMOOTH",
"328 120 OFFCURVE",
"255 101 OFFCURVE"
);
}
);
width = 510;
}
);
leftKerningGroup = B;
rightKerningGroup = B;
unicode = 0042;
userData = {
com.typemytype.robofont.mark = (
0.6,
1,
0.694,
1
);
};
},
{
color = (153,255,177,1);
glyphname = C;
lastChange = "2018-12-18 00:11:23 +0000";
layers = (
{
anchors = (
{
name = bottom;
position = "{210, 0}";
},
{
name = top;
position = "{210, 735}";
}
);
layerId = "59B97FCD-418C-4452-9337-EB92ED35D981";
name = Light;
paths = (
{
closed = 1;
nodes = (
"362 658 CURVE",
"370 675 LINE",
"329 697 OFFCURVE",
"282 708 OFFCURVE",
"228 708 CURVE SMOOTH",
"128 708 OFFCURVE",
"34 662 OFFCURVE",
"34 512 CURVE SMOOTH",
"34 183 LINE SMOOTH",
"34 99 OFFCURVE",
"65 43 OFFCURVE",
"116 15 CURVE SMOOTH",
"164 -11 OFFCURVE",
"213 -10 OFFCURVE",
"233 -10 CURVE SMOOTH",
"284 -10 OFFCURVE",
"338 1 OFFCURVE",
"395 23 CURVE",
"389 41 LINE",
"330 18 OFFCURVE",
"276 8 OFFCURVE",
"237 8 CURVE SMOOTH",
"130 8 OFFCURVE",
"51 55 OFFCURVE",
"53 185 CURVE SMOOTH",
"53 512 LINE SMOOTH",
"53 622 OFFCURVE",
"115 689 OFFCURVE",
"231 689 CURVE SMOOTH",
"272 689 OFFCURVE",
"315 679 OFFCURVE"
);
}
);
width = 420;
},
{
anchors = (
{
name = bottom;
position = "{146, 0}";
},
{
name = top;
position = "{286, 735}";
}
);
layerId = "AC650972-4439-4B3A-A687-B8B0000379A6";
name = Light;
paths = (
{
closed = 1;
nodes = (
"428 658 CURVE",
"439 675 LINE",
"401 697 OFFCURVE",
"356 708 OFFCURVE",
"302 708 CURVE SMOOTH",
"200 708 OFFCURVE",
"98 658 OFFCURVE",
"73 513 CURVE SMOOTH",
"16 183 LINE SMOOTH",
"2 99 OFFCURVE",
"18 47 OFFCURVE",
"68 15 CURVE SMOOTH",
"110 -12 OFFCURVE",
"161 -10 OFFCURVE",
"181 -10 CURVE SMOOTH",
"232 -10 OFFCURVE",
"288 1 OFFCURVE",
"349 23 CURVE",
"346 41 LINE",
"283 18 OFFCURVE",
"221 7 OFFCURVE",
"182 7 CURVE SMOOTH",
"65 7 OFFCURVE",
"14 65 OFFCURVE",
"35 185 CURVE SMOOTH",
"93 512 LINE SMOOTH",
"111 621 OFFCURVE",
"186 689 OFFCURVE",
"302 689 CURVE SMOOTH",
"343 689 OFFCURVE",
"384 679 OFFCURVE"
);
}
);
width = 433;
},
{
anchors = (
{
name = bottom;
position = "{211, 0}";
},
{
name = top;
position = "{211, 735}";
}
);
layerId = "2E533DD2-9170-4ADE-821A-2C583B05E934";
name = Regular;
paths = (
{
closed = 1;
nodes = (
"353 637 CURVE",
"370 675 LINE",
"327 697 OFFCURVE",
"279 708 OFFCURVE",
"228 708 CURVE SMOOTH",
"117 708 OFFCURVE",
"34 648 OFFCURVE",
"34 508 CURVE SMOOTH",
"34 183 LINE SMOOTH",
"34 99 OFFCURVE",
"67 42 OFFCURVE",
"116 15 CURVE SMOOTH",
"164 -10 OFFCURVE",
"213 -10 OFFCURVE",
"234 -10 CURVE SMOOTH",
"284 -10 OFFCURVE",
"338 1 OFFCURVE",
"395 23 CURVE",
"383 69 LINE",
"326 50 OFFCURVE",
"277 40 OFFCURVE",
"238 40 CURVE SMOOTH",
"137 40 OFFCURVE",
"90 80 OFFCURVE",
"90 185 CURVE SMOOTH",
"90 512 LINE SMOOTH",
"90 617 OFFCURVE",
"148 658 OFFCURVE",
"246 658 CURVE SMOOTH",
"280 658 OFFCURVE",
"316 651 OFFCURVE"
);
}
);
width = 422;
},
{
anchors = (
{
name = bottom;
position = "{147, 0}";
},
{
name = top;
position = "{287, 735}";
}
);
layerId = "AA3E7E17-FD94-4F30-8DBF-5406C904ABDB";
name = Regular;
paths = (
{
closed = 1;
nodes = (
"416 637 CURVE",
"440 675 LINE",
"400 697 OFFCURVE",
"354 708 OFFCURVE",
"303 708 CURVE SMOOTH",
"199 708 OFFCURVE",
"99 657 OFFCURVE",
"75 517 CURVE SMOOTH",
"17 183 LINE SMOOTH",
"2 99 OFFCURVE",
"25 42 OFFCURVE",
"69 15 CURVE SMOOTH",
"113 -10 OFFCURVE",
"162 -10 OFFCURVE",
"183 -10 CURVE SMOOTH",
"233 -10 OFFCURVE",
"289 1 OFFCURVE",
"350 23 CURVE",
"346 69 LINE",
"285 50 OFFCURVE",
"235 40 OFFCURVE",
"196 40 CURVE SMOOTH",
"93 40 OFFCURVE",
"55 79 OFFCURVE",
"73 185 CURVE SMOOTH",
"131 512 LINE SMOOTH",
"150 616 OFFCURVE",
"215 658 OFFCURVE",
"313 658 CURVE SMOOTH",
"347 658 OFFCURVE",
"381 651 OFFCURVE"
);
}
);
width = 435;
},
{
anchors = (
{
name = bottom;
position = "{213, 0}";
},
{
name = top;
position = "{213, 735}";
}
);
layerId = "5377DFB6-1026-4380-913C-75FA0B8500B4";
name = Bold;
paths = (
{
closed = 1;
nodes = (
"342 582 CURVE",
"372 675 LINE",
"325 698 OFFCURVE",
"276 710 OFFCURVE",
"228 710 CURVE SMOOTH",
"117 710 OFFCURVE",
"36 640 OFFCURVE",
"36 509 CURVE SMOOTH",
"36 183 LINE SMOOTH",
"36 113 OFFCURVE",
"59 64 OFFCURVE",
"95 32 CURVE SMOOTH",
"130 2 OFFCURVE",
"179 -12 OFFCURVE",
"233 -12 CURVE SMOOTH",
"284 -11 OFFCURVE",
"339 1 OFFCURVE",
"396 23 CURVE",
"380 127 LINE",
"368 127 OFFCURVE",
"300 100 OFFCURVE",
"239 100 CURVE SMOOTH",
"179 100 OFFCURVE",
"146 123 OFFCURVE",
"146 185 CURVE SMOOTH",
"146 512 LINE SMOOTH",
"146 575 OFFCURVE",
"182 599 OFFCURVE",
"248 599 CURVE SMOOTH",
"278 599 OFFCURVE",
"315 592 OFFCURVE"
);
}
);
width = 426;
},
{
anchors = (
{
name = bottom;
position = "{148, 0}";
},
{
name = top;
position = "{288, 735}";
}
);
layerId = "BB2AD2B5-E4ED-4CD1-ABDB-8AA4FBC4C564";
name = Bold;
paths = (
{
closed = 1;
nodes = (
"393 582 CURVE",
"440 675 LINE",
"397 698 OFFCURVE",
"350 710 OFFCURVE",
"302 710 CURVE SMOOTH",
"184 710 OFFCURVE",
"101 658 OFFCURVE",
"77 523 CURVE SMOOTH",
"17 183 LINE SMOOTH",
"5 113 OFFCURVE",
"19 64 OFFCURVE",
"49 32 CURVE SMOOTH",
"79 2 OFFCURVE",
"125 -12 OFFCURVE",
"179 -12 CURVE SMOOTH",
"231 -11 OFFCURVE",
"288 1 OFFCURVE",
"349 23 CURVE",
"351 127 LINE",
"339 127 OFFCURVE",
"266 100 OFFCURVE",
"205 100 CURVE SMOOTH",
"134 100 OFFCURVE",
"116 114 OFFCURVE",
"127 185 CURVE SMOOTH",
"185 512 LINE SMOOTH",
"195 574 OFFCURVE",
"236 599 OFFCURVE",
"302 599 CURVE SMOOTH",
"332 599 OFFCURVE",
"368 592 OFFCURVE"
);
}
);
width = 437;
}
);
leftKerningGroup = C;
rightKerningGroup = C;
unicode = 0043;
userData = {
com.typemytype.robofont.mark = (
0.6,
1,
0.694,
1
);
};
},
{
color = (153,255,177,1);
glyphname = Chi;
lastChange = "2018-12-18 00:11:23 +0000";
layers = (
{
layerId = "59B97FCD-418C-4452-9337-EB92ED35D981";
name = Light;
paths = (
{
closed = 1;
nodes = (
"278 381 LINE",
"65 698 LINE",
"43 698 LINE",
"267 363 LINE",
"25 0 LINE",
"50 0 LINE",
"278 345 LINE",
"509 0 LINE",
"534 0 LINE",
"291 363 LINE",
"514 698 LINE",
"490 698 LINE"
);
}
);
width = 557;
},
{
layerId = "AC650972-4439-4B3A-A687-B8B0000379A6";
name = Light;
paths = (
{
closed = 1;
nodes = (
"309 381 LINE",
"152 698 LINE",
"130 698 LINE",
"295 363 LINE",
"-11 0 LINE",
"14 0 LINE",
"302 345 LINE",
"473 0 LINE",
"498 0 LINE",
"319 363 LINE",
"601 698 LINE",
"577 698 LINE"
);
}
);
width = 589;
},
{
layerId = "2E533DD2-9170-4ADE-821A-2C583B05E934";
name = Regular;
paths = (
{
closed = 1;
nodes = (
"278 405 LINE",
"106 698 LINE",
"43 698 LINE",
"245 351 LINE",
"25 0 LINE",
"93 0 LINE",
"278 293 LINE",
"461 0 LINE",
"530 0 LINE",
"312 351 LINE",
"514 698 LINE",
"452 698 LINE"
);
}
);
width = 554;
},
{
layerId = "AA3E7E17-FD94-4F30-8DBF-5406C904ABDB";
name = Regular;
paths = (
{
closed = 1;
nodes = (
"312 405 LINE",
"192 698 LINE",
"129 698 LINE",
"269 351 LINE",
"-12 0 LINE",
"56 0 LINE",
"292 293 LINE",
"424 0 LINE",
"493 0 LINE",
"336 351 LINE",
"600 698 LINE",
"538 698 LINE"
);
}
);
width = 587;
},
{
layerId = "5377DFB6-1026-4380-913C-75FA0B8500B4";
name = Bold;
paths = (
{
closed = 1;
nodes = (
"315 466 LINE",
"168 698 LINE",
"38 698 LINE",
"244 350 LINE",
"26 0 LINE",
"163 0 LINE",
"310 244 LINE",
"461 0 LINE",
"603 0 LINE",
"381 359 LINE",
"586 698 LINE",
"455 698 LINE"
);
}
);
width = 627;
},
{
layerId = "BB2AD2B5-E4ED-4CD1-ABDB-8AA4FBC4C564";
name = Bold;
paths = (
{
closed = 1;
nodes = (
"349 461 LINE",
"253 698 LINE",
"123 698 LINE",
"266 361 LINE",
"-12 0 LINE",
"130 0 LINE",
"320 243 LINE SMOOTH",
"423 0 LINE",
"565 0 LINE",
"404 347 LINE",
"676 698 LINE",
"526 698 LINE"
);
}
);
width = 658;
}
);
leftKerningGroup = X;
rightKerningGroup = X;
unicode = 03A7;
userData = {
com.typemytype.robofont.mark = (
0.6,
1,
0.694,
1
);
};
},
{
color = (153,255,177,1);
glyphname = D;
lastChange = "2018-12-18 00:11:23 +0000";
layers = (
{
anchors = (
{
name = top;
position = "{247, 735}";
}
);
layerId = "59B97FCD-418C-4452-9337-EB92ED35D981";
name = Light;
paths = (
{
closed = 1;
nodes = (
"229 698 CURVE SMOOTH",
"41 698 LINE",
"41 0 LINE",
"249 0 LINE SMOOTH",
"390 0 OFFCURVE",
"460 67 OFFCURVE",
"460 199 CURVE SMOOTH",
"460 473 LINE SMOOTH",
"460 609 OFFCURVE",
"379 698 OFFCURVE"
);
},
{
closed = 1;
nodes = (
"239 20 CURVE SMOOTH",
"60 20 LINE",
"60 678 LINE",
"239 678 LINE SMOOTH",
"374 678 OFFCURVE",
"441 592 OFFCURVE",
"441 466 CURVE SMOOTH",
"441 213 LINE SMOOTH",
"441 63 OFFCURVE",
"367 20 OFFCURVE"
);
}
);
width = 494;
},
{
anchors = (
{
name = top;
position = "{331, 735}";
}
);
layerId = "AC650972-4439-4B3A-A687-B8B0000379A6";
name = Light;
paths = (
{
closed = 1;
nodes = (
"312 698 CURVE SMOOTH",
"124 698 LINE",
"1 0 LINE",
"209 0 LINE SMOOTH",
"350 0 OFFCURVE",
"431 67 OFFCURVE",
"455 199 CURVE SMOOTH",
"503 473 LINE SMOOTH",
"527 609 OFFCURVE",
"462 698 OFFCURVE"
);
},
{
closed = 1;
nodes = (
"202 20 CURVE SMOOTH",
"23 20 LINE",
"139 678 LINE",
"318 678 LINE SMOOTH",
"453 678 OFFCURVE",
"505 592 OFFCURVE",
"483 466 CURVE SMOOTH",
"438 213 LINE SMOOTH",
"412 63 OFFCURVE",
"330 20 OFFCURVE"
);
}
);
width = 523;
},
{
anchors = (
{
name = top;
position = "{247, 735}";
}
);
layerId = "2E533DD2-9170-4ADE-821A-2C583B05E934";
name = Regular;
paths = (
{
closed = 1;
nodes = (
"229 698 CURVE SMOOTH",
"41 698 LINE",
"41 0 LINE",
"249 0 LINE SMOOTH",
"390 0 OFFCURVE",
"460 67 OFFCURVE",
"460 199 CURVE SMOOTH",
"460 473 LINE SMOOTH",
"460 609 OFFCURVE",
"379 698 OFFCURVE"
);
},
{
closed = 1;
nodes = (
"232 50 CURVE SMOOTH",
"97 50 LINE",
"97 648 LINE",
"239 648 LINE SMOOTH",
"356 648 OFFCURVE",
"404 574 OFFCURVE",
"404 488 CURVE SMOOTH",
"404 189 LINE SMOOTH",
"404 97 OFFCURVE",
"347 50 OFFCURVE"
);
}
);
width = 495;
},
{
anchors = (
{
name = top;
position = "{331, 735}";
}
);
layerId = "AA3E7E17-FD94-4F30-8DBF-5406C904ABDB";
name = Regular;
paths = (
{
closed = 1;
nodes = (
"311 698 CURVE SMOOTH",
"123 698 LINE",
"0 0 LINE",
"208 0 LINE SMOOTH",
"349 0 OFFCURVE",
"430 67 OFFCURVE",
"454 199 CURVE SMOOTH",
"502 473 LINE SMOOTH",
"526 609 OFFCURVE",
"461 698 OFFCURVE"
);
},
{
closed = 1;
nodes = (
"199 50 CURVE SMOOTH",
"64 50 LINE",
"170 648 LINE",
"312 648 LINE SMOOTH",
"429 648 OFFCURVE",
"464 574 OFFCURVE",
"449 488 CURVE SMOOTH",
"396 189 LINE SMOOTH",
"380 97 OFFCURVE",
"314 50 OFFCURVE"
);
}
);
width = 522;
},
{
anchors = (
{
name = top;
position = "{248, 735}";
}
);
layerId = "5377DFB6-1026-4380-913C-75FA0B8500B4";
name = Bold;
paths = (
{
closed = 1;
nodes = (
"229 700 CURVE SMOOTH",
"41 700 LINE",
"41 0 LINE",
"249 0 LINE SMOOTH",
"390 0 OFFCURVE",
"461 74 OFFCURVE",
"461 206 CURVE SMOOTH",
"461 473 LINE SMOOTH",
"461 609 OFFCURVE",
"380 700 OFFCURVE"
);
},
{
closed = 1;
nodes = (
"234 101 CURVE SMOOTH",
"151 101 LINE",
"151 588 LINE",
"239 588 LINE SMOOTH",
"315 588 OFFCURVE",
"351 555 OFFCURVE",
"351 483 CURVE SMOOTH",
"351 196 LINE SMOOTH",
"351 156 OFFCURVE",
"345 101 OFFCURVE"
);
}
);
width = 497;
},
{
anchors = (
{
name = top;
position = "{331, 735}";
}
);
layerId = "BB2AD2B5-E4ED-4CD1-ABDB-8AA4FBC4C564";
name = Bold;
paths = (
{
closed = 1;
nodes = (
"311 700 CURVE SMOOTH",
"123 700 LINE",
"0 0 LINE",
"208 0 LINE SMOOTH",
"349 0 OFFCURVE",
"433 74 OFFCURVE",
"456 206 CURVE SMOOTH",
"503 473 LINE SMOOTH",
"527 609 OFFCURVE",
"462 700 OFFCURVE"
);
},
{
closed = 1;
nodes = (
"210 101 CURVE SMOOTH",
"127 101 LINE",
"213 588 LINE",
"301 588 LINE SMOOTH",
"377 588 OFFCURVE",
"407 555 OFFCURVE",
"395 483 CURVE SMOOTH",
"344 196 LINE SMOOTH",
"337 156 OFFCURVE",
"321 101 OFFCURVE"
);
}
);
width = 523;
}
);
leftKerningGroup = D;
rightKerningGroup = D;
unicode = 0044;
userData = {
com.typemytype.robofont.mark = (
0.6,
1,
0.694,
1
);
};
},
{
color = (153,255,177,1);
glyphname = Deltagreek;
lastChange = "2018-12-18 00:11:23 +0000";
layers = (
{
layerId = "59B97FCD-418C-4452-9337-EB92ED35D981";
name = Light;
paths = (
{
closed = 1;
nodes = (
"524 0 LINE",
"279 698 LINE",
"260 698 LINE",
"20 0 LINE"
);
},
{
closed = 1;
nodes = (
"48 20 LINE",
"270 673 LINE",
"497 20 LINE"
);
}
);
width = 542;
},
{
layerId = "AC650972-4439-4B3A-A687-B8B0000379A6";
name = Light;
paths = (
{
closed = 1;
nodes = (
"492 0 LINE",
"370 698 LINE",
"351 698 LINE",
"-12 0 LINE"
);
},
{
closed = 1;
nodes = (
"19 20 LINE",
"356 673 LINE",
"468 20 LINE"
);
}
);
width = 519;
},
{
layerId = "2E533DD2-9170-4ADE-821A-2C583B05E934";
name = Regular;
paths = (
{
closed = 1;
nodes = (
"525 0 LINE",
"298 698 LINE",
"245 698 LINE",
"21 0 LINE"
);
},
{
closed = 1;
nodes = (
"95 50 LINE",
"271 612 LINE",
"449 50 LINE"
);
}
);
width = 545;
},
{
layerId = "AA3E7E17-FD94-4F30-8DBF-5406C904ABDB";
name = Regular;
paths = (
{
closed = 1;
nodes = (
"492 0 LINE",
"388 698 LINE",
"335 698 LINE",
"-12 0 LINE"
);
},
{
closed = 1;
nodes = (
"70 50 LINE",
"345 612 LINE",
"424 50 LINE"
);
}
);
width = 520;
},
{
layerId = "5377DFB6-1026-4380-913C-75FA0B8500B4";
name = Bold;
paths = (
{
closed = 1;
nodes = (
"528 0 LINE",
"323 698 LINE",
"213 698 LINE",
"23 0 LINE"
);
},
{
closed = 1;
nodes = (
"171 100 LINE",
"273 480 LINE",
"378 100 LINE"
);
}
);
width = 549;
},
{
layerId = "BB2AD2B5-E4ED-4CD1-ABDB-8AA4FBC4C564";
name = Bold;
paths = (
{
closed = 1;
nodes = (
"493 0 LINE",
"411 698 LINE",
"301 698 LINE",
"-12 0 LINE"
);
},
{
closed = 1;
nodes = (
"153 100 LINE",
"322 480 LINE",
"360 100 LINE"
);
}
);
width = 523;
}
);
leftKerningGroup = A;
rightKerningGroup = A;
unicode = 0394;
userData = {
com.typemytype.robofont.mark = (
0.6,
1,
0.694,
1
);
};
},
{
color = (153,255,177,1);
glyphname = E;
lastChange = "2018-12-18 00:11:23 +0000";
layers = (
{
anchors = (
{
name = ogonek;
position = "{201, 0}";
},
{
name = tonos;
position = "{67, 700}";
},
{
name = top;
position = "{201, 735}";
}
);
layerId = "59B97FCD-418C-4452-9337-EB92ED35D981";
name = Light;
paths = (
{
closed = 1;
nodes = (
"41 0 LINE",
"372 0 LINE",
"372 19 LINE",
"60 19 LINE",
"60 393 LINE",
"281 393 LINE",
"287 411 LINE",
"60 411 LINE",
"60 679 LINE",
"374 679 LINE",
"374 698 LINE",
"41 698 LINE"
);
}
);
width = 402;
},
{
anchors = (
{
name = ogonek;
position = "{150, 0}";
},
{
name = tonos;
position = "{143, 700}";
},
{
name = top;
position = "{290, 735}";
}
);
layerId = "AC650972-4439-4B3A-A687-B8B0000379A6";
name = Light;
paths = (
{
closed = 1;
nodes = (
"1 0 LINE",
"332 0 LINE",
"335 19 LINE",
"23 19 LINE",
"89 393 LINE",
"310 393 LINE",
"319 411 LINE",
"92 411 LINE",
"139 679 LINE",
"453 679 LINE",
"457 698 LINE",
"124 698 LINE"
);
}
);
width = 441;
},
{
anchors = (
{
name = ogonek;
position = "{202, 0}";
},
{
name = tonos;
position = "{67, 700}";
},
{
name = top;
position = "{202, 735}";
}
);
layerId = "2E533DD2-9170-4ADE-821A-2C583B05E934";
name = Regular;
paths = (
{
closed = 1;
nodes = (
"41 0 LINE",
"372 0 LINE",
"372 50 LINE",
"97 50 LINE",
"97 356 LINE",
"269 356 LINE",
"287 411 LINE",
"97 411 LINE",
"97 646 LINE",
"374 646 LINE",
"374 698 LINE",
"41 698 LINE"
);
}
);
width = 405;
},
{
anchors = (
{
name = ogonek;
position = "{150, 0}";
},
{
name = tonos;
position = "{143, 700}";
},
{
name = top;
position = "{291, 735}";
}
);
layerId = "AA3E7E17-FD94-4F30-8DBF-5406C904ABDB";
name = Regular;
paths = (
{
closed = 1;
nodes = (
"0 0 LINE",
"331 0 LINE",
"339 50 LINE",
"64 50 LINE",
"118 356 LINE",
"290 356 LINE",
"318 411 LINE",
"128 411 LINE",
"169 646 LINE",
"446 646 LINE",
"456 698 LINE",
"123 698 LINE"
);
}
);
width = 443;
},
{
anchors = (
{
name = ogonek;
position = "{204, 0}";
},
{
name = tonos;
position = "{68, 700}";
},
{
name = top;
position = "{205, 735}";
}
);
layerId = "5377DFB6-1026-4380-913C-75FA0B8500B4";
name = Bold;
paths = (
{
closed = 1;
nodes = (
"41 0 LINE",
"373 0 LINE",
"373 100 LINE",
"151 100 LINE",
"151 308 LINE",
"257 308 LINE",
"288 413 LINE",
"151 413 LINE",
"151 588 LINE",
"375 588 LINE",
"375 698 LINE",
"41 698 LINE"
);
}
);
width = 410;
},
{
anchors = (
{
name = ogonek;
position = "{152, 0}";
},
{
name = tonos;
position = "{144, 700}";
},
{
name = top;
position = "{293, 735}";
}
);
layerId = "BB2AD2B5-E4ED-4CD1-ABDB-8AA4FBC4C564";
name = Bold;
paths = (
{
closed = 1;
nodes = (
"0 0 LINE",
"332 0 LINE",
"349 100 LINE",
"127 100 LINE",
"164 308 LINE",
"270 308 LINE",
"319 413 LINE",
"182 413 LINE",
"213 588 LINE",
"437 588 LINE",
"457 698 LINE",
"123 698 LINE"
);
}
);
width = 446;
}
);
leftKerningGroup = E;
rightKerningGroup = E;
unicode = 0045;
userData = {
com.typemytype.robofont.mark = (
0.6,
1,
0.694,
1
);
};
},
{
color = (153,255,177,1);
glyphname = Eng;
lastChange = "2018-12-18 00:11:23 +0000";
layers = (
{
layerId = "59B97FCD-418C-4452-9337-EB92ED35D981";
name = Light;
paths = (
{
closed = 1;
nodes = (
"533 -67 CURVE SMOOTH",
"533 698 LINE",
"516 698 LINE",
"516 33 LINE",
"60 698 LINE",
"41 698 LINE",
"41 0 LINE",
"61 0 LINE",
"61 668 LINE",
"516 1 LINE",
"516 -66 LINE SMOOTH",
"516 -111 OFFCURVE",
"504 -142 OFFCURVE",
"483 -160 CURVE SMOOTH",
"461 -178 OFFCURVE",
"451 -183 OFFCURVE",
"421 -195 CURVE",
"426 -212 LINE",
"457 -202 OFFCURVE",
"480 -190 OFFCURVE",
"496 -174 CURVE SMOOTH",
"522 -149 OFFCURVE",
"533 -114 OFFCURVE"
);
}
);
width = 576;
},
{
layerId = "AC650972-4439-4B3A-A687-B8B0000379A6";
name = Light;
paths = (
{
closed = 1;
nodes = (
"481 -67 CURVE SMOOTH",
"616 698 LINE",
"599 698 LINE",
"481 33 LINE",
"143 698 LINE",
"124 698 LINE",
"1 0 LINE",
"21 0 LINE",
"138 668 LINE",
"476 1 LINE",
"464 -66 LINE SMOOTH",
"456 -111 OFFCURVE",
"438 -142 OFFCURVE",
"414 -160 CURVE SMOOTH",
"389 -178 OFFCURVE",
"378 -183 OFFCURVE",
"346 -195 CURVE",
"348 -212 LINE",
"381 -202 OFFCURVE",
"406 -190 OFFCURVE",
"425 -174 CURVE SMOOTH",
"455 -149 OFFCURVE",
"472 -114 OFFCURVE"
);
}
);
width = 613;
},
{
layerId = "2E533DD2-9170-4ADE-821A-2C583B05E934";
name = Regular;
paths = (
{
closed = 1;
nodes = (
"533 -62 CURVE SMOOTH",
"533 698 LINE",
"477 698 LINE",
"477 103 LINE",
"98 698 LINE",
"41 698 LINE",
"41 0 LINE",
"97 0 LINE",
"97 595 LINE",
"477 1 LINE",
"477 -62 LINE SMOOTH",
"477 -89 OFFCURVE",
"471 -112 OFFCURVE",
"458 -130 CURVE SMOOTH",
"447 -145 OFFCURVE",
"432 -157 OFFCURVE",
"412 -165 CURVE",
"427 -208 LINE",
"460 -197 OFFCURVE",
"483 -184 OFFCURVE",
"501 -165 CURVE SMOOTH",
"524 -140 OFFCURVE",
"533 -107 OFFCURVE"
);
}
);
width = 576;
},
{
layerId = "AA3E7E17-FD94-4F30-8DBF-5406C904ABDB";
name = Regular;
paths = (
{
closed = 1;
nodes = (
"481 -62 CURVE SMOOTH",
"615 698 LINE",
"559 698 LINE",
"454 103 LINE",
"180 698 LINE",
"123 698 LINE",
"0 0 LINE",
"56 0 LINE",
"160 595 LINE",
"436 1 LINE",
"425 -62 LINE SMOOTH",
"420 -89 OFFCURVE",
"410 -112 OFFCURVE",
"394 -130 CURVE SMOOTH",
"380 -145 OFFCURVE",
"363 -157 OFFCURVE",
"341 -165 CURVE",
"349 -208 LINE",
"384 -197 OFFCURVE",
"409 -184 OFFCURVE",
"430 -165 CURVE SMOOTH",
"458 -140 OFFCURVE",
"473 -107 OFFCURVE"
);
}
);
width = 612;
},
{
layerId = "5377DFB6-1026-4380-913C-75FA0B8500B4";
name = Bold;
paths = (
{
closed = 1;
nodes = (
"534 -59 CURVE SMOOTH",
"534 698 LINE",
"424 698 LINE",
"424 230 LINE",
"152 698 LINE",
"41 698 LINE",
"41 0 LINE",
"151 0 LINE",
"151 472 LINE",
"424 0 LINE",
"424 -48 LINE SMOOTH",
"424 -73 OFFCURVE",
"416 -90 OFFCURVE",
"404 -101 CURVE",
"390 -116 OFFCURVE",
"375 -119 OFFCURVE",
"353 -124 CURVE",
"383 -213 LINE",
"411 -213 OFFCURVE",
"459 -201 OFFCURVE",
"488 -176 CURVE",
"515 -150 OFFCURVE",
"534 -116 OFFCURVE"
);
}
);
width = 577;
},
{
layerId = "BB2AD2B5-E4ED-4CD1-ABDB-8AA4FBC4C564";
name = Bold;
paths = (
{
closed = 1;
nodes = (
"482 -59 CURVE SMOOTH",
"616 698 LINE",
"506 698 LINE",
"423 230 LINE",
"234 698 LINE",
"123 698 LINE",
"0 0 LINE",
"110 0 LINE",
"193 472 LINE",
"383 0 LINE",
"374 -48 LINE SMOOTH",
"370 -73 OFFCURVE",
"359 -90 OFFCURVE",
"345 -101 CURVE",
"328 -116 OFFCURVE",
"313 -119 OFFCURVE",
"290 -124 CURVE",
"304 -213 LINE",
"332 -213 OFFCURVE",
"382 -201 OFFCURVE",
"415 -176 CURVE SMOOTH",
"447 -150 OFFCURVE",
"472 -116 OFFCURVE"
);
}
);
width = 613;
}
);
leftKerningGroup = N;
unicode = 014A;
userData = {
com.typemytype.robofont.mark = (
0.6,
1,
0.694,
1
);
};
},
{
color = (153,255,177,1);
glyphname = Eta;
lastChange = "2018-12-18 00:11:23 +0000";
layers = (
{
anchors = (
{
name = tonos;
position = "{85, 700}";
},
{
name = top;
position = "{256, 735}";
}
);
layerId = "59B97FCD-418C-4452-9337-EB92ED35D981";
name = Light;
paths = (
{
closed = 1;
nodes = (
"451 411 LINE",
"60 411 LINE",
"60 698 LINE",
"41 698 LINE",
"41 0 LINE",
"60 0 LINE",
"60 393 LINE",
"451 393 LINE",
"451 0 LINE",
"470 0 LINE",
"470 698 LINE",
"451 698 LINE"
);
}
);
width = 513;
},
{
anchors = (
{
name = tonos;
position = "{161, 700}";
},
{
name = top;
position = "{345, 735}";
}
);
layerId = "AC650972-4439-4B3A-A687-B8B0000379A6";
name = Light;
paths = (
{
closed = 1;
nodes = (
"483 411 LINE",
"92 411 LINE",
"143 698 LINE",
"124 698 LINE",
"1 0 LINE",
"20 0 LINE",
"89 393 LINE",
"480 393 LINE",
"411 0 LINE",
"430 0 LINE",
"553 698 LINE",
"534 698 LINE"
);
}
);
width = 550;
},
{
anchors = (
{
name = tonos;
position = "{85, 700}";
},
{
name = top;
position = "{256, 735}";
}
);
layerId = "2E533DD2-9170-4ADE-821A-2C583B05E934";
name = Regular;
paths = (
{
closed = 1;
nodes = (
"414 411 LINE",
"97 411 LINE",
"97 698 LINE",
"41 698 LINE",
"41 0 LINE",
"97 0 LINE",
"97 356 LINE",
"414 356 LINE",
"414 0 LINE",
"470 0 LINE",
"470 698 LINE",
"414 698 LINE"
);
}
);
width = 513;
},
{
anchors = (
{
name = tonos;
position = "{161, 700}";
},
{
name = top;
position = "{344, 735}";
}
);
layerId = "AA3E7E17-FD94-4F30-8DBF-5406C904ABDB";
name = Regular;
paths = (
{
closed = 1;
nodes = (
"445 411 LINE",
"128 411 LINE",
"179 698 LINE",
"123 698 LINE",
"0 0 LINE",
"56 0 LINE",
"118 356 LINE",
"435 356 LINE",
"373 0 LINE",
"429 0 LINE",
"552 698 LINE",
"496 698 LINE"
);
}
);
width = 549;
},
{
anchors = (
{
name = tonos;
position = "{85, 700}";
},
{
name = top;
position = "{257, 735}";
}
);
layerId = "5377DFB6-1026-4380-913C-75FA0B8500B4";
name = Bold;
paths = (
{
closed = 1;
nodes = (
"362 413 LINE",
"151 413 LINE",
"151 698 LINE",
"41 698 LINE",
"41 0 LINE",
"151 0 LINE",
"151 308 LINE",
"362 308 LINE",
"362 0 LINE",
"471 0 LINE",
"471 698 LINE",
"362 698 LINE"
);
}
);
width = 514;
},
{
anchors = (
{
name = tonos;
position = "{161, 700}";
},
{
name = top;
position = "{345, 735}";
}
);
layerId = "BB2AD2B5-E4ED-4CD1-ABDB-8AA4FBC4C564";
name = Bold;
paths = (
{
closed = 1;
nodes = (
"393 413 LINE",
"182 413 LINE",
"233 698 LINE",
"123 698 LINE",
"0 0 LINE",
"110 0 LINE",
"164 308 LINE",
"375 308 LINE",
"321 0 LINE",
"430 0 LINE",
"553 698 LINE",
"444 698 LINE"
);
}
);
width = 550;
}
);
leftKerningGroup = H;
rightKerningGroup = H;
unicode = 0397;
userData = {
com.typemytype.robofont.mark = (
0.6,
1,
0.694,
1
);
};
},
{
color = (153,255,177,1);
glyphname = Eth;
lastChange = "2018-12-18 00:11:23 +0000";
layers = (
{
components = (
{
name = D;
transform = "{1, 0, 0, 1, 0, 0}";
}
);
layerId = "59B97FCD-418C-4452-9337-EB92ED35D981";
name = Light;
paths = (
{
closed = 1;
nodes = (
"50 393 LINE",
"281 393 LINE",
"287 411 LINE",
"50 411 LINE"
);
}
);
width = 494;
},
{
components = (
{
name = D;
transform = "{1, 0, 0, 1, 0, 0}";
}
);
layerId = "AC650972-4439-4B3A-A687-B8B0000379A6";
name = Light;
paths = (
{
closed = 1;
nodes = (
"79 393 LINE",
"310 393 LINE",
"319 411 LINE",
"82 411 LINE"
);
}
);
width = 523;
},
{
components = (
{
name = D;
transform = "{1, 0, 0, 1, 0, 0}";
}
);
layerId = "2E533DD2-9170-4ADE-821A-2C583B05E934";
name = Regular;
paths = (
{
closed = 1;
nodes = (
"67 356 LINE",
"269 356 LINE",
"287 411 LINE",
"67 411 LINE"
);
}
);
width = 495;
},
{
components = (
{
name = D;
transform = "{1, 0, 0, 1, 0, 0}";
}
);
layerId = "AA3E7E17-FD94-4F30-8DBF-5406C904ABDB";
name = Regular;
paths = (
{
closed = 1;
nodes = (
"88 356 LINE",
"290 356 LINE",
"318 411 LINE",
"98 411 LINE"
);
}
);
width = 522;
},
{
components = (
{
name = D;
transform = "{1, 0, 0, 1, 0, 0}";
}
);
layerId = "5377DFB6-1026-4380-913C-75FA0B8500B4";
name = Bold;
paths = (
{
closed = 1;
nodes = (
"121 308 LINE",
"257 308 LINE",
"288 413 LINE",
"121 413 LINE"
);
}
);
width = 496;
},
{
components = (
{
name = D;
transform = "{1, 0, 0, 1, 0, 0}";
}
);
layerId = "BB2AD2B5-E4ED-4CD1-ABDB-8AA4FBC4C564";
name = Bold;
paths = (
{
closed = 1;
nodes = (
"134 308 LINE",
"270 308 LINE",
"319 413 LINE",
"152 413 LINE"
);
}
);
width = 522;
}
);
leftKerningGroup = D;
rightKerningGroup = D;
unicode = 00D0;
userData = {
com.typemytype.robofont.mark = (
0.6,
1,
0.694,
1
);
};
},
{
color = (153,255,177,1);
glyphname = Euro;
lastChange = "2018-12-18 00:29:13 +0000";
layers = (
{
components = (
{
name = C;
transform = "{1, 0, 0, 1, 0, 0}";
}
);
layerId = "59B97FCD-418C-4452-9337-EB92ED35D981";
name = Light;
paths = (
{
closed = 1;
nodes = (
"12 393 LINE",
"351 393 LINE",
"351 411 LINE",
"12 411 LINE"
);
},
{
closed = 1;
nodes = (
"12 288 LINE",
"351 288 LINE",
"351 307 LINE",
"12 307 LINE"
);
}
);
width = 420;
},
{
components = (
{
name = C;
transform = "{1, 0, 0, 1, 0, 0}";
}
);
layerId = "AC650972-4439-4B3A-A687-B8B0000379A6";
name = Light;
paths = (
{
closed = 1;
nodes = (
"20 403 LINE",
"359 403 LINE",
"362 421 LINE",
"23 421 LINE"
);
},
{
closed = 1;
nodes = (
"1 298 LINE",
"340 298 LINE",
"344 317 LINE",
"5 317 LINE"
);
}
);
width = 433;
},
{
components = (
{
name = C;
transform = "{1, 0, 0, 1, 0, 0}";
}
);
layerId = "2E533DD2-9170-4ADE-821A-2C583B05E934";
name = Regular;
paths = (
{
closed = 1;
nodes = (
"4 376 LINE",
"353 376 LINE",
"353 431 LINE",
"4 431 LINE"
);
},
{
closed = 1;
nodes = (
"4 272 LINE",
"353 272 LINE",
"353 327 LINE",
"4 327 LINE"
);
}
);
width = 422;
},
{
components = (
{
name = C;
transform = "{1, 0, 0, 1, 0, 0}";
}
);
layerId = "AA3E7E17-FD94-4F30-8DBF-5406C904ABDB";
name = Regular;
paths = (
{
closed = 1;
nodes = (
"9 376 LINE",
"358 376 LINE",
"368 431 LINE",
"19 431 LINE"
);
},
{
closed = 1;
nodes = (
"-9 272 LINE",
"340 272 LINE",
"350 327 LINE",
"1 327 LINE"
);
}
);
width = 435;
},
{
components = (
{
name = C;
transform = "{1, 0, 0, 1, 0, 0}";
}
);
layerId = "5377DFB6-1026-4380-913C-75FA0B8500B4";
name = Bold;
paths = (
{
closed = 1;
nodes = (
"-1 376 LINE",
"356 376 LINE",
"356 481 LINE",
"-1 481 LINE"
);
},
{
closed = 1;
nodes = (
"-1 224 LINE",
"356 224 LINE",
"356 329 LINE",
"-1 329 LINE"
);
}
);
width = 426;
},
{
components = (
{
name = C;
transform = "{1, 0, 0, 1, 0, 0}";
}
);
layerId = "BB2AD2B5-E4ED-4CD1-ABDB-8AA4FBC4C564";
name = Bold;
paths = (
{
closed = 1;
nodes = (
"6 376 LINE",
"366 376 LINE",
"385 481 LINE",
"25 481 LINE"
);
},
{
closed = 1;
nodes = (
"-21 224 LINE",
"339 224 LINE",
"358 329 LINE",
"-2 329 LINE"
);
}
);
width = 437;
}
);
leftKerningGroup = C;
rightKerningGroup = C;
unicode = 20AC;
userData = {
com.typemytype.robofont.mark = (
0.6,
1,
0.694,
1
);
};
},
{
color = (153,255,177,1);
glyphname = F;
lastChange = "2018-12-18 00:11:23 +0000";
layers = (
{
layerId = "59B97FCD-418C-4452-9337-EB92ED35D981";
name = Light;
paths = (
{
closed = 1;
nodes = (
"374 698 LINE",
"41 698 LINE",
"41 0 LINE",
"61 0 LINE",
"61 393 LINE",
"281 393 LINE",
"288 411 LINE",
"61 411 LINE",
"61 678 LINE",
"374 678 LINE"
);
}
);
width = 387;
},
{
layerId = "AC650972-4439-4B3A-A687-B8B0000379A6";
name = Light;
paths = (
{
closed = 1;
nodes = (
"457 698 LINE",
"124 698 LINE",
"1 0 LINE",
"21 0 LINE",
"90 393 LINE",
"310 393 LINE",
"320 411 LINE",
"93 411 LINE",
"140 678 LINE",
"453 678 LINE"
);
}
);
width = 434;
},
{
layerId = "2E533DD2-9170-4ADE-821A-2C583B05E934";
name = Regular;
paths = (
{
closed = 1;
nodes = (
"374 698 LINE",
"41 698 LINE",
"41 0 LINE",
"97 0 LINE",
"97 356 LINE",
"265 356 LINE",
"288 411 LINE",
"97 411 LINE",
"97 645 LINE",
"374 645 LINE"
);
}
);
width = 390;
},
{
layerId = "AA3E7E17-FD94-4F30-8DBF-5406C904ABDB";
name = Regular;
paths = (
{
closed = 1;
nodes = (
"456 698 LINE",
"123 698 LINE",
"0 0 LINE",
"56 0 LINE",
"118 356 LINE",
"286 356 LINE",
"319 411 LINE",
"128 411 LINE",
"169 645 LINE",
"446 645 LINE"
);
}
);
width = 434;
},
{
layerId = "5377DFB6-1026-4380-913C-75FA0B8500B4";
name = Bold;
paths = (
{
closed = 1;
nodes = (
"375 698 LINE",
"41 698 LINE",
"41 0 LINE",
"151 0 LINE",
"151 308 LINE",
"253 308 LINE",
"288 413 LINE",
"151 413 LINE",
"151 588 LINE",
"375 588 LINE"
);
}
);
width = 394;
},
{
layerId = "BB2AD2B5-E4ED-4CD1-ABDB-8AA4FBC4C564";
name = Bold;
paths = (
{
closed = 1;
nodes = (
"457 698 LINE",
"123 698 LINE",
"0 0 LINE",
"110 0 LINE",
"164 308 LINE",
"266 308 LINE",
"319 413 LINE",
"182 413 LINE",
"213 588 LINE",
"437 588 LINE"
);
}
);
width = 437;
}
);
leftKerningGroup = F;
rightKerningGroup = F;
unicode = 0046;
userData = {
com.typemytype.robofont.mark = (
0.6,
1,
0.694,
1
);
};
},
{
color = (153,255,177,1);
glyphname = G;
lastChange = "2018-12-18 00:32:26 +0000";
layers = (
{
anchors = (
{
name = bottom;
position = "{237, 0}";
},
{
name = top;
position = "{237, 735}";
}
);
layerId = "59B97FCD-418C-4452-9337-EB92ED35D981";
name = Light;
paths = (
{
closed = 1;
nodes = (
"362 657 CURVE",
"369 674 LINE",
"326 696 OFFCURVE",
"277 707 OFFCURVE",
"227 707 CURVE SMOOTH",
"186 707 OFFCURVE",
"150 698 OFFCURVE",
"120 682 CURVE",
"63 647 OFFCURVE",
"33 586 OFFCURVE",
"33 502 CURVE SMOOTH",
"33 188 LINE SMOOTH",
"33 122 OFFCURVE",
"53 73 OFFCURVE",
"95 40 CURVE SMOOTH",
"136 7 OFFCURVE",
"185 -10 OFFCURVE",
"245 -10 CURVE SMOOTH",
"334 -10 OFFCURVE",
"394 23 OFFCURVE",
"425 88 CURVE",
"425 0 LINE",
"444 0 LINE",
"444 299 LINE",
"242 299 LINE",
"250 280 LINE",
"425 280 LINE",
"425 182 LINE SMOOTH",
"425 133 OFFCURVE",
"411 91 OFFCURVE",
"383 58 CURVE SMOOTH",
"354 26 OFFCURVE",
"309 9 OFFCURVE",
"248 9 CURVE SMOOTH",
"126 9 OFFCURVE",
"53 82 OFFCURVE",
"53 186 CURVE SMOOTH",
"53 495 LINE SMOOTH",
"53 564 OFFCURVE",
"75 617 OFFCURVE",
"101 645 CURVE",
"132 674 OFFCURVE",
"175 689 OFFCURVE",
"230 689 CURVE SMOOTH",
"269 689 OFFCURVE",
"313 678 OFFCURVE"
);
}
);
width = 475;
},
{
anchors = (
{
name = bottom;
position = "{161, 0}";
},
{
name = top;
position = "{301, 735}";
}
);
layerId = "AC650972-4439-4B3A-A687-B8B0000379A6";
name = Light;
paths = (
{
closed = 1;
nodes = (
"425 657 CURVE",
"435 674 LINE",
"396 696 OFFCURVE",
"349 707 OFFCURVE",
"299 707 CURVE SMOOTH",
"258 707 OFFCURVE",
"221 698 OFFCURVE",
"188 682 CURVE",
"125 647 OFFCURVE",
"84 586 OFFCURVE",
"69 502 CURVE SMOOTH",
"14 188 LINE SMOOTH",
"2 122 OFFCURVE",
"13 73 OFFCURVE",
"50 40 CURVE SMOOTH",
"85 7 OFFCURVE",
"131 -10 OFFCURVE",
"191 -10 CURVE SMOOTH",
"280 -10 OFFCURVE",
"346 23 OFFCURVE",
"388 88 CURVE",
"373 0 LINE",
"392 0 LINE",
"444 299 LINE",
"242 299 LINE",
"247 280 LINE",
"422 280 LINE",
"405 182 LINE SMOOTH",
"396 133 OFFCURVE",
"375 91 OFFCURVE",
"341 58 CURVE SMOOTH",
"306 26 OFFCURVE",
"258 9 OFFCURVE",
"197 9 CURVE SMOOTH",
"75 9 OFFCURVE",
"15 82 OFFCURVE",
"33 186 CURVE SMOOTH",
"88 495 LINE SMOOTH",
"100 564 OFFCURVE",
"131 617 OFFCURVE",
"162 645 CURVE",
"198 674 OFFCURVE",
"244 689 OFFCURVE",
"299 689 CURVE SMOOTH",
"338 689 OFFCURVE",
"380 678 OFFCURVE"
);
}
);
width = 462;
},
{
anchors = (
{
name = bottom;
position = "{238, 0}";
},
{
name = top;
position = "{238, 735}";
}
);
layerId = "2E533DD2-9170-4ADE-821A-2C583B05E934";
name = Regular;
paths = (
{
closed = 1;
nodes = (
"353 636 CURVE",
"370 674 LINE",
"327 696 OFFCURVE",
"279 707 OFFCURVE",
"228 707 CURVE SMOOTH",
"187 707 OFFCURVE",
"151 698 OFFCURVE",
"121 682 CURVE",
"64 647 OFFCURVE",
"34 586 OFFCURVE",
"34 502 CURVE SMOOTH",
"34 188 LINE SMOOTH",
"34 122 OFFCURVE",
"54 73 OFFCURVE",
"96 40 CURVE SMOOTH",
"137 7 OFFCURVE",
"187 -10 OFFCURVE",
"247 -10 CURVE SMOOTH",
"308 -10 OFFCURVE",
"354 7 OFFCURVE",
"390 41 CURVE",
"394 0 LINE",
"445 0 LINE",
"445 299 LINE",
"243 299 LINE",
"263 244 LINE",
"392 244 LINE",
"392 186 LINE SMOOTH",
"392 143 OFFCURVE",
"378 109 OFFCURVE",
"352 84 CURVE SMOOTH",
"327 58 OFFCURVE",
"290 44 OFFCURVE",
"245 44 CURVE SMOOTH",
"155 44 OFFCURVE",
"90 98 OFFCURVE",
"90 186 CURVE SMOOTH",
"90 510 LINE SMOOTH",
"90 562 OFFCURVE",
"105 599 OFFCURVE",
"133 624 CURVE SMOOTH",
"160 646 OFFCURVE",
"197 657 OFFCURVE",
"247 657 CURVE SMOOTH",
"280 657 OFFCURVE",
"316 650 OFFCURVE"
);
}
);
width = 477;
},
{
anchors = (
{
name = bottom;
position = "{161, 0}";
},
{
name = top;
position = "{301, 735}";
}
);
layerId = "AA3E7E17-FD94-4F30-8DBF-5406C904ABDB";
name = Regular;
paths = (
{
closed = 1;
nodes = (
"413 636 CURVE",
"436 674 LINE",
"397 696 OFFCURVE",
"351 707 OFFCURVE",
"300 707 CURVE SMOOTH",
"259 707 OFFCURVE",
"213 696 OFFCURVE",
"180 680 CURVE",
"117 645 OFFCURVE",
"85 586 OFFCURVE",
"70 502 CURVE SMOOTH",
"15 188 LINE SMOOTH",
"3 122 OFFCURVE",
"14 73 OFFCURVE",
"51 40 CURVE SMOOTH",
"86 7 OFFCURVE",
"133 -10 OFFCURVE",
"193 -10 CURVE SMOOTH",
"254 -10 OFFCURVE",
"307 10 OFFCURVE",
"349 44 CURVE",
"343 0 LINE",
"393 0 LINE",
"445 299 LINE",
"243 299 LINE",
"254 244 LINE",
"383 244 LINE",
"372 186 LINE SMOOTH",
"365 143 OFFCURVE",
"345 109 OFFCURVE",
"314 84 CURVE",
"285 58 OFFCURVE",
"245 44 OFFCURVE",
"200 44 CURVE SMOOTH",
"110 44 OFFCURVE",
"55 98 OFFCURVE",
"70 186 CURVE SMOOTH",
"127 510 LINE SMOOTH",
"137 562 OFFCURVE",
"158 599 OFFCURVE",
"191 624 CURVE SMOOTH",
"221 646 OFFCURVE",
"260 657 OFFCURVE",
"310 657 CURVE SMOOTH",
"343 657 OFFCURVE",
"378 650 OFFCURVE"
);
}
);
width = 463;
},
{
anchors = (
{
name = bottom;
position = "{240, 0}";
},
{
name = top;
position = "{240, 735}";
}
);
layerId = "5377DFB6-1026-4380-913C-75FA0B8500B4";
name = Bold;
paths = (
{
closed = 1;
nodes = (
"339 576 CURVE",
"372 675 LINE",
"333 695 OFFCURVE",
"290 706 OFFCURVE",
"242 708 CURVE SMOOTH",
"188 708 OFFCURVE",
"153 700 OFFCURVE",
"123 683 CURVE SMOOTH",
"65 648 OFFCURVE",
"36 587 OFFCURVE",
"36 502 CURVE SMOOTH",
"36 189 LINE SMOOTH",
"36 123 OFFCURVE",
"56 70 OFFCURVE",
"98 37 CURVE SMOOTH",
"139 4 OFFCURVE",
"187 -10 OFFCURVE",
"247 -10 CURVE SMOOTH",
"272 -10 OFFCURVE",
"331 0 OFFCURVE",
"366 28 CURVE",
"371 0 LINE",
"447 0 LINE",
"447 300 LINE",
"245 300 LINE",
"280 195 LINE",
"337 195 LINE",
"337 186 LINE SMOOTH",
"337 159 OFFCURVE",
"329 139 OFFCURVE",
"317 125 CURVE SMOOTH",
"302 109 OFFCURVE",
"278 101 OFFCURVE",
"246 101 CURVE SMOOTH",
"181 101 OFFCURVE",
"146 123 OFFCURVE",
"146 187 CURVE SMOOTH",
"146 510 LINE SMOOTH",
"146 549 OFFCURVE",
"159 571 OFFCURVE",
"183 583 CURVE SMOOTH",
"200 591 OFFCURVE",
"222 594 OFFCURVE",
"248 594 CURVE SMOOTH",
"276 594 OFFCURVE",
"307 587 OFFCURVE"
);
}
);
width = 480;
},
{
anchors = (
{
name = bottom;
position = "{162, 0}";
},
{
name = top;
position = "{302, 735}";
}
);
layerId = "BB2AD2B5-E4ED-4CD1-ABDB-8AA4FBC4C564";
name = Bold;
paths = (
{
closed = 1;
nodes = (
"387 576 CURVE",
"438 675 LINE",
"402 695 OFFCURVE",
"361 706 OFFCURVE",
"313 708 CURVE SMOOTH",
"259 708 OFFCURVE",
"216 699 OFFCURVE",
"183 682 CURVE SMOOTH",
"119 647 OFFCURVE",
"89 596 OFFCURVE",
"74 511 CURVE SMOOTH",
"16 189 LINE SMOOTH",
"4 123 OFFCURVE",
"14 73 OFFCURVE",
"51 40 CURVE SMOOTH",
"86 7 OFFCURVE",
"132 -10 OFFCURVE",
"192 -10 CURVE SMOOTH",
"218 -10 OFFCURVE",
"276 -6 OFFCURVE",
"315 23 CURVE",
"319 0 LINE",
"394 0 LINE",
"446 300 LINE",
"244 300 LINE",
"261 195 LINE",
"318 195 LINE",
"316 186 LINE",
"312 159 OFFCURVE",
"300 139 OFFCURVE",
"286 125 CURVE",
"268 109 OFFCURVE",
"242 101 OFFCURVE",
"210 101 CURVE SMOOTH",
"145 101 OFFCURVE",
"114 123 OFFCURVE",
"125 187 CURVE SMOOTH",
"182 510 LINE SMOOTH",
"189 549 OFFCURVE",
"206 571 OFFCURVE",
"232 583 CURVE SMOOTH",
"251 591 OFFCURVE",
"273 594 OFFCURVE",
"299 594 CURVE SMOOTH",
"327 594 OFFCURVE",
"357 587 OFFCURVE"
);
}
);
width = 465;
}
);
leftKerningGroup = G;
rightKerningGroup = G;
unicode = 0047;
userData = {
com.typemytype.robofont.mark = (
0.6,
1,
0.694,
1
);
};
},
{
color = (153,255,177,1);
glyphname = Gamma;
lastChange = "2018-12-18 00:11:23 +0000";
layers = (
{
layerId = "59B97FCD-418C-4452-9337-EB92ED35D981";
name = Light;
paths = (
{
closed = 1;
nodes = (
"41 0 LINE",
"60 0 LINE",
"60 678 LINE",
"374 678 LINE",
"374 698 LINE",
"41 698 LINE"
);
}
);
width = 378;
},
{
layerId = "AC650972-4439-4B3A-A687-B8B0000379A6";
name = Light;
paths = (
{
closed = 1;
nodes = (
"1 0 LINE",
"20 0 LINE",
"139 678 LINE",
"453 678 LINE",
"457 698 LINE",
"124 698 LINE"
);
}
);
width = 433;
},
{
layerId = "2E533DD2-9170-4ADE-821A-2C583B05E934";
name = Regular;
paths = (
{
closed = 1;
nodes = (
"41 0 LINE",
"97 0 LINE",
"97 645 LINE",
"374 645 LINE",
"374 698 LINE",
"41 698 LINE"
);
}
);
width = 382;
},
{
layerId = "AA3E7E17-FD94-4F30-8DBF-5406C904ABDB";
name = Regular;
paths = (
{
closed = 1;
nodes = (
"0 0 LINE",
"56 0 LINE",
"169 645 LINE",
"446 645 LINE",
"456 698 LINE",
"123 698 LINE"
);
}
);
width = 434;
},
{
layerId = "5377DFB6-1026-4380-913C-75FA0B8500B4";
name = Bold;
paths = (
{
closed = 1;
nodes = (
"41 0 LINE",
"152 0 LINE",
"152 588 LINE",
"375 588 LINE",
"375 698 LINE",
"41 698 LINE"
);
}
);
width = 386;
},
{
layerId = "BB2AD2B5-E4ED-4CD1-ABDB-8AA4FBC4C564";
name = Bold;
paths = (
{
closed = 1;
nodes = (
"0 0 LINE",
"111 0 LINE",
"214 588 LINE",
"437 588 LINE",
"457 698 LINE",
"123 698 LINE"
);
}
);
width = 436;
}
);
leftKerningGroup = F;
rightKerningGroup = F;
unicode = 0393;
userData = {
com.typemytype.robofont.mark = (
0.6,
1,
0.694,
1
);
};
},
{
color = (153,255,177,1);
glyphname = Hbar;
lastChange = "2018-12-18 00:11:23 +0000";
layers = (
{
components = (
{
name = Eta;
transform = "{1, 0, 0, 1, 0, 0}";
}
);
layerId = "59B97FCD-418C-4452-9337-EB92ED35D981";
name = Light;
paths = (
{
closed = 1;
nodes = (
"503 498 LINE",
"503 518 LINE",
"6 518 LINE",
"6 498 LINE"
);
}
);
width = 513;
},
{
components = (
{
name = Eta;
transform = "{1, 0, 0, 1, 0, 0}";
}
);
layerId = "AC650972-4439-4B3A-A687-B8B0000379A6";
name = Light;
paths = (
{
closed = 1;
nodes = (
"561 498 LINE",
"565 518 LINE",
"51 518 LINE",
"47 498 LINE"
);
}
);
width = 550;
},
{
components = (
{
name = Eta;
transform = "{1, 0, 0, 1, 0, 0}";
}
);
layerId = "2E533DD2-9170-4ADE-821A-2C583B05E934";
name = Regular;
paths = (
{
closed = 1;
nodes = (
"510 498 LINE",
"510 552 LINE",
"-3 552 LINE",
"-3 498 LINE"
);
}
);
width = 513;
},
{
components = (
{
name = Eta;
transform = "{1, 0, 0, 1, 0, 0}";
}
);
layerId = "AA3E7E17-FD94-4F30-8DBF-5406C904ABDB";
name = Regular;
paths = (
{
closed = 1;
nodes = (
"561 498 LINE",
"571 552 LINE",
"47 552 LINE",
"37 498 LINE"
);
}
);
width = 549;
},
{
components = (
{
name = Eta;
transform = "{1, 0, 0, 1, 0, 0}";
}
);
layerId = "5377DFB6-1026-4380-913C-75FA0B8500B4";
name = Bold;
paths = (
{
closed = 1;
nodes = (
"513 499 LINE",
"513 588 LINE",
"-1 588 LINE",
"-1 499 LINE"
);
}
);
width = 513;
},
{
components = (
{
name = Eta;
transform = "{1, 0, 0, 1, 0, 0}";
}
);
layerId = "BB2AD2B5-E4ED-4CD1-ABDB-8AA4FBC4C564";
name = Bold;
paths = (
{
closed = 1;
nodes = (
"564 499 LINE",
"581 588 LINE",
"54 588 LINE",
"37 499 LINE"
);
}
);
width = 549;
}
);
unicode = 0126;
userData = {
com.typemytype.robofont.mark = (
0.6,
1,
0.694,
1
);
};
},
{
color = (153,255,177,1);
glyphname = I;
lastChange = "2018-12-18 00:11:23 +0000";
layers = (
{
anchors = (
{
name = ogonek;
position = "{81, 0}";
},
{
name = tonos;
position = "{27, 700}";
},
{
name = top;
position = "{81, 735}";
}
);
layerId = "59B97FCD-418C-4452-9337-EB92ED35D981";
name = Light;
paths = (
{
closed = 1;
nodes = (
"15 679 LINE",
"101 676 LINE",
"101 0 LINE",
"119 0 LINE",
"119 698 LINE",
"15 698 LINE"
);
}
);
width = 162;
},
{
anchors = (
{
name = ogonek;
position = "{5, 0}";
},
{
name = tonos;
position = "{95, 700}";
},
{
name = top;
position = "{146, 735}";
}
);
layerId = "AC650972-4439-4B3A-A687-B8B0000379A6";
name = Light;
paths = (
{
closed = 1;
nodes = (
"47 679 LINE",
"133 676 LINE",
"14 0 LINE",
"32 0 LINE",
"155 698 LINE",
"51 698 LINE"
);
}
);
width = 152;
},
{
anchors = (
{
name = ogonek;
position = "{93, 0}";
},
{
name = tonos;
position = "{31, 700}";
},
{
name = top;
position = "{93, 735}";
}
);
layerId = "2E533DD2-9170-4ADE-821A-2C583B05E934";
name = Regular;
paths = (
{
closed = 1;
nodes = (
"20 649 LINE",
"88 647 LINE",
"88 0 LINE",
"143 0 LINE",
"143 698 LINE",
"20 698 LINE"
);
}
);
width = 186;
},
{
anchors = (
{
name = ogonek;
position = "{21, 0}";
},
{
name = tonos;
position = "{100, 700}";
},
{
name = top;
position = "{162, 735}";
}
);
layerId = "AA3E7E17-FD94-4F30-8DBF-5406C904ABDB";
name = Regular;
paths = (
{
closed = 1;
nodes = (
"56 649 LINE",
"124 647 LINE",
"10 0 LINE",
"65 0 LINE",
"188 698 LINE",
"65 698 LINE"
);
}
);
width = 185;
},
{
anchors = (
{
name = ogonek;
position = "{118, 0}";
},
{
name = tonos;
position = "{39, 700}";
},
{
name = top;
position = "{119, 735}";
}
);
layerId = "5377DFB6-1026-4380-913C-75FA0B8500B4";
name = Bold;
paths = (
{
closed = 1;
nodes = (
"23 593 LINE",
"86 591 LINE",
"86 0 LINE",
"196 0 LINE",
"196 698 LINE",
"23 698 LINE"
);
}
);
width = 239;
},
{
anchors = (
{
name = ogonek;
position = "{50, 0}";
},
{
name = tonos;
position = "{110, 700}";
},
{
name = top;
position = "{190, 735}";
}
);
layerId = "BB2AD2B5-E4ED-4CD1-ABDB-8AA4FBC4C564";
name = Bold;
paths = (
{
closed = 1;
nodes = (
"52 593 LINE",
"115 591 LINE",
"11 0 LINE",
"121 0 LINE",
"244 698 LINE",
"71 698 LINE"
);
}
);
width = 241;
}
);
leftKerningGroup = I;
rightKerningGroup = I;
unicode = 0049;
userData = {
com.typemytype.robofont.mark = (
0.6,
1,
0.694,
1
);
};
},
{
color = (153,255,177,1);
glyphname = J;
lastChange = "2018-12-18 00:11:23 +0000";
layers = (
{
anchors = (
{
name = top;
position = "{88, 735}";
}
);
layerId = "59B97FCD-418C-4452-9337-EB92ED35D981";
name = Light;
paths = (
{
closed = 1;
nodes = (
"136 122 CURVE SMOOTH",
"136 698 LINE",
"33 698 LINE",
"33 679 LINE",
"118 676 LINE",
"118 118 LINE SMOOTH",
"118 35 OFFCURVE",
"86 -10 OFFCURVE",
"26 -19 CURVE",
"32 -37 LINE",
"70 -31 OFFCURVE",
"96 -15 OFFCURVE",
"113 12 CURVE SMOOTH",
"129 37 OFFCURVE",
"136 73 OFFCURVE"
);
}
);
width = 177;
},
{
anchors = (
{
name = top;
position = "{180, 735}";
}
);
layerId = "AC650972-4439-4B3A-A687-B8B0000379A6";
name = Light;
paths = (
{
closed = 1;
nodes = (
"122 122 CURVE SMOOTH",
"224 698 LINE",
"121 698 LINE",
"117 679 LINE",
"202 676 LINE",
"103 118 LINE SMOOTH",
"89 35 OFFCURVE",
"49 -10 OFFCURVE",
"-13 -19 CURVE",
"-10 -37 LINE",
"29 -31 OFFCURVE",
"58 -15 OFFCURVE",
"80 12 CURVE SMOOTH",
"100 37 OFFCURVE",
"113 73 OFFCURVE"
);
}
);
width = 221;
},
{
anchors = (
{
name = top;
position = "{103, 735}";
}
);
layerId = "2E533DD2-9170-4ADE-821A-2C583B05E934";
name = Regular;
paths = (
{
closed = 1;
nodes = (
"165 118 CURVE SMOOTH",
"165 698 LINE",
"42 698 LINE",
"42 649 LINE",
"108 647 LINE",
"108 113 LINE SMOOTH",
"108 34 OFFCURVE",
"71 0 OFFCURVE",
"27 0 CURVE",
"40 -37 LINE",
"83 -37 OFFCURVE",
"116 -21 OFFCURVE",
"137 10 CURVE SMOOTH",
"156 36 OFFCURVE",
"165 73 OFFCURVE"
);
}
);
width = 206;
},
{
anchors = (
{
name = top;
position = "{193, 735}";
}
);
layerId = "AA3E7E17-FD94-4F30-8DBF-5406C904ABDB";
name = Regular;
paths = (
{
closed = 1;
nodes = (
"148 118 CURVE SMOOTH",
"251 698 LINE",
"128 698 LINE",
"119 649 LINE",
"185 647 LINE",
"90 113 LINE SMOOTH",
"76 34 OFFCURVE",
"34 0 OFFCURVE",
"-10 0 CURVE",
"-4 -37 LINE",
"39 -37 OFFCURVE",
"75 -21 OFFCURVE",
"101 10 CURVE SMOOTH",
"125 36 OFFCURVE",
"140 73 OFFCURVE"
);
}
);
width = 247;
},
{
anchors = (
{
name = top;
position = "{140, 735}";
}
);
layerId = "5377DFB6-1026-4380-913C-75FA0B8500B4";
name = Bold;
paths = (
{
closed = 1;
nodes = (
"240 139 CURVE SMOOTH",
"240 698 LINE",
"72 698 LINE",
"72 593 LINE",
"133 591 LINE",
"133 156 LINE SMOOTH",
"133 90 OFFCURVE",
"97 57 OFFCURVE",
"27 57 CURVE",
"63 -37 LINE",
"100 -36 OFFCURVE",
"147 -28 OFFCURVE",
"184 3 CURVE SMOOTH",
"216 29 OFFCURVE",
"240 71 OFFCURVE"
);
}
);
width = 281;
},
{
anchors = (
{
name = top;
position = "{227, 735}";
}
);
layerId = "BB2AD2B5-E4ED-4CD1-ABDB-8AA4FBC4C564";
name = Bold;
paths = (
{
closed = 1;
nodes = (
"220 139 CURVE SMOOTH",
"319 698 LINE",
"151 698 LINE",
"132 593 LINE",
"193 591 LINE",
"116 156 LINE SMOOTH",
"104 90 OFFCURVE",
"63 57 OFFCURVE",
"-7 57 CURVE",
"12 -37 LINE",
"49 -36 OFFCURVE",
"98 -28 OFFCURVE",
"140 3 CURVE SMOOTH",
"177 29 OFFCURVE",
"208 71 OFFCURVE"
);
}
);
width = 315;
}
);
leftKerningGroup = J;
rightKerningGroup = J;
unicode = 004A;
userData = {
com.typemytype.robofont.mark = (
0.6,
1,
0.694,
1
);
};
},
{
color = (153,255,177,1);
glyphname = K;
lastChange = "2018-12-18 00:11:23 +0000";
layers = (
{
anchors = (
{
name = bottom;
position = "{228, 0}";
}
);
layerId = "59B97FCD-418C-4452-9337-EB92ED35D981";
name = Light;
paths = (
{
closed = 1;
nodes = (
"60 307 LINE",
"60 698 LINE",
"41 698 LINE",
"41 0 LINE",
"60 0 LINE",
"60 279 LINE",
"156 402 LINE",
"416 0 LINE",
"437 0 LINE",
"169 417 LINE",
"385 698 LINE",
"363 698 LINE"
);
}
);
width = 457;
},
{
anchors = (
{
name = bottom;
position = "{163, 0}";
}
);
layerId = "AC650972-4439-4B3A-A687-B8B0000379A6";
name = Light;
paths = (
{
closed = 1;
nodes = (
"74 307 LINE",
"143 698 LINE",
"124 698 LINE",
"1 0 LINE",
"20 0 LINE",
"69 279 LINE",
"186 402 LINE",
"376 0 LINE",
"397 0 LINE",
"202 417 LINE",
"468 698 LINE",
"446 698 LINE"
);
}
);
width = 466;
},
{
anchors = (
{
name = bottom;
position = "{228, 0}";
}
);
layerId = "2E533DD2-9170-4ADE-821A-2C583B05E934";
name = Regular;
paths = (
{
closed = 1;
nodes = (
"97 366 LINE",
"97 698 LINE",
"41 698 LINE",
"41 0 LINE",
"97 0 LINE",
"97 268 LINE",
"144 344 LINE",
"370 0 LINE",
"437 0 LINE",
"181 397 LINE",
"385 698 LINE",
"320 698 LINE"
);
}
);
width = 457;
},
{
anchors = (
{
name = bottom;
position = "{162, 0}";
}
);
layerId = "AA3E7E17-FD94-4F30-8DBF-5406C904ABDB";
name = Regular;
paths = (
{
closed = 1;
nodes = (
"120 366 LINE",
"179 698 LINE",
"123 698 LINE",
"0 0 LINE",
"56 0 LINE",
"103 268 LINE",
"163 344 LINE",
"329 0 LINE",
"396 0 LINE",
"210 397 LINE",
"467 698 LINE",
"402 698 LINE"
);
}
);
width = 465;
},
{
anchors = (
{
name = bottom;
position = "{257, 0}";
}
);
layerId = "5377DFB6-1026-4380-913C-75FA0B8500B4";
name = Bold;
paths = (
{
closed = 1;
nodes = (
"159 453 LINE",
"159 700 LINE",
"41 700 LINE",
"41 0 LINE",
"159 0 LINE",
"159 264 LINE",
"186 308 LINE",
"354 0 LINE",
"492 0 LINE",
"253 408 LINE",
"452 700 LINE",
"320 700 LINE"
);
}
);
width = 514;
},
{
anchors = (
{
name = bottom;
position = "{194, 0}";
}
);
layerId = "BB2AD2B5-E4ED-4CD1-ABDB-8AA4FBC4C564";
name = Bold;
paths = (
{
closed = 1;
nodes = (
"197 449 LINE",
"241 700 LINE",
"123 700 LINE",
"0 0 LINE",
"118 0 LINE",
"163 263 LINE",
"197 305 LINE",
"313 0 LINE",
"451 0 LINE",
"277 389 LINE",
"536 700 LINE",
"396 700 LINE"
);
}
);
width = 528;
}
);
leftKerningGroup = K;
rightKerningGroup = K;
unicode = 004B;
userData = {
com.typemytype.robofont.mark = (
0.6,
1,
0.694,
1
);
};
},
{
color = (153,255,177,1);
glyphname = L;
lastChange = "2018-12-18 00:11:23 +0000";
layers = (
{
anchors = (
{
name = bottom;
position = "{209, 0}";
},
{
name = top;
position = "{209, 735}";
}
);
layerId = "59B97FCD-418C-4452-9337-EB92ED35D981";
name = Light;
paths = (
{
closed = 1;
nodes = (
"41 0 LINE",
"401 0 LINE",
"401 20 LINE",
"60 20 LINE",
"60 698 LINE",
"41 698 LINE"
);
}
);
width = 419;
},
{
anchors = (
{
name = bottom;
position = "{123, 0}";
},
{
name = top;
position = "{263, 735}";
}
);
layerId = "AC650972-4439-4B3A-A687-B8B0000379A6";
name = Light;
paths = (
{
closed = 1;
nodes = (
"1 0 LINE",
"361 0 LINE",
"364 20 LINE",
"23 20 LINE",
"143 698 LINE",
"124 698 LINE"
);
}
);
width = 387;
},
{
anchors = (
{
name = bottom;
position = "{211, 0}";
},
{
name = top;
position = "{211, 735}";
}
);
layerId = "2E533DD2-9170-4ADE-821A-2C583B05E934";
name = Regular;
paths = (
{
closed = 1;
nodes = (
"41 0 LINE",
"401 0 LINE",
"401 50 LINE",
"97 50 LINE",
"97 698 LINE",
"41 698 LINE"
);
}
);
width = 423;
},
{
anchors = (
{
name = bottom;
position = "{126, 0}";
},
{
name = top;
position = "{266, 735}";
}
);
layerId = "AA3E7E17-FD94-4F30-8DBF-5406C904ABDB";
name = Regular;
paths = (
{
closed = 1;
nodes = (
"0 0 LINE",
"360 0 LINE",
"368 50 LINE",
"64 50 LINE",
"179 698 LINE",
"123 698 LINE"
);
}
);
width = 393;
},
{
anchors = (
{
name = bottom;
position = "{214, 0}";
},
{
name = top;
position = "{214, 735}";
}
);
layerId = "5377DFB6-1026-4380-913C-75FA0B8500B4";
name = Bold;
paths = (
{
closed = 1;
nodes = (
"41 0 LINE",
"402 0 LINE",
"402 101 LINE",
"151 101 LINE",
"151 698 LINE",
"41 698 LINE"
);
}
);
width = 428;
},
{
anchors = (
{
name = bottom;
position = "{132, 0}";
},
{
name = top;
position = "{272, 735}";
}
);
layerId = "BB2AD2B5-E4ED-4CD1-ABDB-8AA4FBC4C564";
name = Bold;
paths = (
{
closed = 1;
nodes = (
"0 0 LINE",
"361 0 LINE",
"378 101 LINE",
"127 101 LINE",
"233 698 LINE",
"123 698 LINE"
);
}
);
width = 404;
}
);
leftKerningGroup = L;
rightKerningGroup = L;
unicode = 004C;
userData = {
com.typemytype.robofont.mark = (
0.6,
1,
0.694,
1
);
};
},
{
color = (153,255,177,1);
glyphname = Lambda;
lastChange = "2018-12-18 00:11:23 +0000";
layers = (
{
layerId = "59B97FCD-418C-4452-9337-EB92ED35D981";
name = Light;
paths = (
{
closed = 1;
nodes = (
"270 668 LINE",
"504 0 LINE",
"524 0 LINE",
"280 698 LINE",
"261 698 LINE",
"20 0 LINE",
"39 0 LINE"
);
}
);
width = 543;
},
{
layerId = "AC650972-4439-4B3A-A687-B8B0000379A6";
name = Light;
paths = (
{
closed = 1;
nodes = (
"355 668 LINE",
"472 0 LINE",
"492 0 LINE",
"371 698 LINE",
"352 698 LINE",
"-12 0 LINE",
"7 0 LINE"
);
}
);
width = 519;
},
{
layerId = "2E533DD2-9170-4ADE-821A-2C583B05E934";
name = Regular;
paths = (
{
closed = 1;
nodes = (
"271 612 LINE",
"465 0 LINE",
"525 0 LINE",
"298 698 LINE",
"245 698 LINE",
"21 0 LINE",
"81 0 LINE"
);
}
);
width = 545;
},
{
layerId = "AA3E7E17-FD94-4F30-8DBF-5406C904ABDB";
name = Regular;
paths = (
{
closed = 1;
nodes = (
"349 612 LINE",
"432 0 LINE",
"492 0 LINE",
"388 698 LINE",
"335 698 LINE",
"-12 0 LINE",
"48 0 LINE"
);
}
);
width = 520;
},
{
layerId = "5377DFB6-1026-4380-913C-75FA0B8500B4";
name = Bold;
paths = (
{
closed = 1;
nodes = (
"271 463 LINE",
"400 0 LINE",
"527 0 LINE",
"323 698 LINE",
"222 698 LINE",
"22 0 LINE",
"146 0 LINE"
);
}
);
width = 548;
},
{
layerId = "BB2AD2B5-E4ED-4CD1-ABDB-8AA4FBC4C564";
name = Bold;
paths = (
{
closed = 1;
nodes = (
"324 465 LINE",
"370 0 LINE",
"493 0 LINE",
"412 698 LINE",
"311 698 LINE",
"-12 0 LINE",
"112 0 LINE"
);
}
);
width = 523;
}
);
leftKerningGroup = A;
rightKerningGroup = A;
unicode = 039B;
userData = {
com.typemytype.robofont.mark = (
0.6,
1,
0.694,
1
);
};
},
{
color = (153,255,177,1);
glyphname = Lslash;
lastChange = "2018-12-18 00:11:23 +0000";
layers = (
{
layerId = "59B97FCD-418C-4452-9337-EB92ED35D981";
name = Light;
paths = (
{
closed = 1;
nodes = (
"125 0 LINE",
"486 0 LINE",
"486 20 LINE",
"145 20 LINE",
"145 395 LINE",
"315 472 LINE",
"307 488 LINE",
"145 415 LINE",
"145 698 LINE",
"125 698 LINE",
"125 406 LINE",
"17 358 LINE",
"25 341 LINE",
"125 386 LINE"
);
}
);
width = 504;
},
{
layerId = "AC650972-4439-4B3A-A687-B8B0000379A6";
name = Light;
paths = (
{
closed = 1;
nodes = (
"52 0 LINE",
"413 0 LINE",
"416 20 LINE",
"75 20 LINE",
"141 395 LINE",
"325 472 LINE",
"320 488 LINE",
"145 415 LINE",
"195 698 LINE",
"175 698 LINE",
"123 406 LINE",
"7 358 LINE",
"12 341 LINE",
"120 386 LINE"
);
}
);
width = 440;
},
{
layerId = "2E533DD2-9170-4ADE-821A-2C583B05E934";
name = Regular;
paths = (
{
closed = 1;
nodes = (
"126 0 LINE",
"487 0 LINE",
"487 50 LINE",
"182 50 LINE",
"182 372 LINE",
"332 439 LINE",
"309 488 LINE",
"182 431 LINE",
"182 698 LINE",
"126 698 LINE",
"126 406 LINE",
"18 358 LINE",
"40 308 LINE",
"126 346 LINE"
);
}
);
width = 509;
},
{
layerId = "AA3E7E17-FD94-4F30-8DBF-5406C904ABDB";
name = Regular;
paths = (
{
closed = 1;
nodes = (
"53 0 LINE",
"414 0 LINE",
"422 50 LINE",
"117 50 LINE",
"174 372 LINE",
"336 439 LINE",
"322 488 LINE",
"184 431 LINE",
"232 698 LINE",
"176 698 LINE",
"124 406 LINE",
"8 358 LINE",
"21 308 LINE",
"114 346 LINE"
);
}
);
width = 448;
},
{
layerId = "5377DFB6-1026-4380-913C-75FA0B8500B4";
name = Bold;
paths = (
{
closed = 1;
nodes = (
"129 0 LINE",
"489 0 LINE",
"489 101 LINE",
"238 101 LINE",
"238 359 LINE",
"348 409 LINE",
"311 488 LINE",
"238 455 LINE",
"238 698 LINE",
"129 698 LINE",
"129 407 LINE",
"21 359 LINE",
"57 277 LINE",
"129 309 LINE"
);
}
);
width = 516;
},
{
layerId = "BB2AD2B5-E4ED-4CD1-ABDB-8AA4FBC4C564";
name = Bold;
paths = (
{
closed = 1;
nodes = (
"55 0 LINE",
"415 0 LINE",
"432 101 LINE",
"181 101 LINE",
"227 359 LINE",
"346 409 LINE",
"323 488 LINE",
"244 455 LINE",
"287 698 LINE",
"178 698 LINE",
"126 407 LINE",
"10 359 LINE",
"31 277 LINE",
"109 309 LINE"
);
}
);
width = 459;
}
);
leftKerningGroup = L;
rightKerningGroup = L;
unicode = 0141;
userData = {
com.typemytype.robofont.mark = (
0.6,
1,
0.694,
1
);
};
},
{
color = (153,255,177,1);
glyphname = M;
lastChange = "2018-12-18 00:11:23 +0000";
layers = (
{
layerId = "59B97FCD-418C-4452-9337-EB92ED35D981";
name = Light;
paths = (
{
closed = 1;
nodes = (
"59 698 LINE",
"41 698 LINE",
"41 0 LINE",
"59 0 LINE",
"59 646 LINE",
"298 0 LINE",
"316 0 LINE",
"558 646 LINE",
"558 0 LINE",
"576 0 LINE",
"576 698 LINE",
"558 698 LINE",
"308 30 LINE"
);
}
);
width = 619;
},
{
layerId = "AC650972-4439-4B3A-A687-B8B0000379A6";
name = Light;
paths = (
{
closed = 1;
nodes = (
"142 698 LINE",
"124 698 LINE",
"1 0 LINE",
"19 0 LINE",
"132 646 LINE",
"258 0 LINE",
"276 0 LINE",
"631 646 LINE",
"518 0 LINE",
"536 0 LINE",
"659 698 LINE",
"641 698 LINE",
"273 30 LINE"
);
}
);
width = 656;
},
{
layerId = "2E533DD2-9170-4ADE-821A-2C583B05E934";
name = Regular;
paths = (
{
closed = 1;
nodes = (
"97 698 LINE",
"41 698 LINE",
"41 0 LINE",
"97 0 LINE",
"97 533 LINE",
"277 0 LINE",
"338 0 LINE",
"520 533 LINE",
"520 0 LINE",
"576 0 LINE",
"576 698 LINE",
"520 698 LINE",
"307 86 LINE"
);
}
);
width = 619;
},
{
layerId = "AA3E7E17-FD94-4F30-8DBF-5406C904ABDB";
name = Regular;
paths = (
{
closed = 1;
nodes = (
"179 698 LINE",
"123 698 LINE",
"0 0 LINE",
"56 0 LINE",
"149 533 LINE",
"236 0 LINE",
"297 0 LINE",
"571 525 LINE",
"479 0 LINE",
"535 0 LINE",
"658 698 LINE",
"599 698 LINE",
"281 86 LINE"
);
}
);
width = 655;
},
{
layerId = "5377DFB6-1026-4380-913C-75FA0B8500B4";
name = Bold;
paths = (
{
closed = 1;
nodes = (
"151 698 LINE",
"41 698 LINE",
"41 0 LINE",
"151 0 LINE",
"151 369 LINE",
"267 0 LINE",
"350 0 LINE",
"467 370 LINE",
"467 0 LINE",
"577 0 LINE",
"577 698 LINE",
"467 698 LINE",
"308 207 LINE"
);
}
);
width = 620;
},
{
layerId = "BB2AD2B5-E4ED-4CD1-ABDB-8AA4FBC4C564";
name = Bold;
paths = (
{
closed = 1;
nodes = (
"232 698 LINE",
"123 698 LINE",
"0 0 LINE",
"110 0 LINE",
"177 361 LINE SMOOTH",
"233 0 LINE",
"299 0 LINE",
"493 366 LINE",
"422 0 LINE",
"536 0 LINE",
"659 698 LINE",
"541 698 LINE",
"305 227 LINE"
);
}
);
width = 656;
}
);
leftKerningGroup = M;
rightKerningGroup = M;
unicode = 004D;
userData = {
com.typemytype.robofont.mark = (
0.6,
1,
0.694,
1
);
};
},
{
color = (153,255,177,1);
glyphname = N;
lastChange = "2018-12-18 00:11:23 +0000";
layers = (
{
anchors = (
{
name = bottom;
position = "{287, 0}";
},
{
name = top;
position = "{287, 735}";
}
);
layerId = "59B97FCD-418C-4452-9337-EB92ED35D981";
name = Light;
paths = (
{
closed = 1;
nodes = (
"532 698 LINE",
"515 698 LINE",
"515 32 LINE",
"59 698 LINE",
"41 698 LINE",
"41 0 LINE",
"59 0 LINE",
"59 668 LINE",
"515 0 LINE",
"532 0 LINE"
);
}
);
width = 575;
},
{
anchors = (
{
name = bottom;
position = "{236, 0}";
},
{
name = top;
position = "{376, 735}";
}
);
layerId = "AC650972-4439-4B3A-A687-B8B0000379A6";
name = Light;
paths = (
{
closed = 1;
nodes = (
"615 698 LINE",
"598 698 LINE",
"480 32 LINE",
"142 698 LINE",
"124 698 LINE",
"1 0 LINE",
"19 0 LINE",
"136 668 LINE",
"475 0 LINE",
"492 0 LINE"
);
}
);
width = 612;
},
{
anchors = (
{
name = bottom;
position = "{287, 0}";
},
{
name = top;
position = "{287, 735}";
}
);
layerId = "2E533DD2-9170-4ADE-821A-2C583B05E934";
name = Regular;
paths = (
{
closed = 1;
nodes = (
"532 698 LINE",
"476 698 LINE",
"476 102 LINE",
"97 698 LINE",
"41 698 LINE",
"41 0 LINE",
"97 0 LINE",
"97 595 LINE",
"476 0 LINE",
"532 0 LINE"
);
}
);
width = 575;
},
{
anchors = (
{
name = bottom;
position = "{235, 0}";
},
{
name = top;
position = "{375, 735}";
}
);
layerId = "AA3E7E17-FD94-4F30-8DBF-5406C904ABDB";
name = Regular;
paths = (
{
closed = 1;
nodes = (
"614 698 LINE",
"558 698 LINE",
"452 102 LINE",
"179 698 LINE",
"123 698 LINE",
"0 0 LINE",
"56 0 LINE",
"160 595 LINE",
"435 0 LINE",
"491 0 LINE"
);
}
);
width = 611;
},
{
anchors = (
{
name = bottom;
position = "{288, 0}";
},
{
name = top;
position = "{288, 735}";
}
);
layerId = "5377DFB6-1026-4380-913C-75FA0B8500B4";
name = Bold;
paths = (
{
closed = 1;
nodes = (
"533 698 LINE",
"422 698 LINE",
"422 210 LINE",
"151 698 LINE",
"41 698 LINE",
"41 0 LINE",
"151 0 LINE",
"151 472 LINE",
"422 0 LINE",
"533 0 LINE"
);
}
);
width = 576;
},
{
anchors = (
{
name = bottom;
position = "{236, 0}";
},
{
name = top;
position = "{376, 735}";
}
);
layerId = "BB2AD2B5-E4ED-4CD1-ABDB-8AA4FBC4C564";
name = Bold;
paths = (
{
closed = 1;
nodes = (
"615 698 LINE",
"501 698 LINE",
"418 212 LINE SMOOTH",
"233 698 LINE",
"123 698 LINE",
"0 0 LINE",
"114 0 LINE",
"198 460 LINE",
"381 0 LINE",
"492 0 LINE"
);
}
);
width = 612;
}
);
leftKerningGroup = N;
rightKerningGroup = N;
unicode = 004E;
userData = {
com.typemytype.robofont.mark = (
0.6,
1,
0.694,
1
);
};
},
{
color = (153,255,177,1);
glyphname = OE;
lastChange = "2018-12-18 00:11:23 +0000";
layers = (
{
layerId = "59B97FCD-418C-4452-9337-EB92ED35D981";
name = Light;
paths = (
{
closed = 1;
nodes = (
"433 0 LINE",
"764 0 LINE",
"764 19 LINE",
"451 19 LINE",
"451 393 LINE",
"672 393 LINE",
"679 411 LINE",
"451 411 LINE",
"451 679 LINE",
"766 679 LINE",
"766 698 LINE",
"433 698 LINE",
"433 604 LINE",
"402 673 OFFCURVE",
"337 714 OFFCURVE",
"245 714 CURVE SMOOTH",
"113 714 OFFCURVE",
"33 642 OFFCURVE",
"33 506 CURVE SMOOTH",
"33 185 LINE SMOOTH",
"33 56 OFFCURVE",
"126 -11 OFFCURVE",
"243 -11 CURVE SMOOTH",
"332 -11 OFFCURVE",
"401 28 OFFCURVE",
"433 95 CURVE"
);
},
{
closed = 1;
nodes = (
"52 184 CURVE SMOOTH",
"52 506 LINE SMOOTH",
"52 621 OFFCURVE",
"116 693 OFFCURVE",
"242 693 CURVE SMOOTH",
"365 693 OFFCURVE",
"429 627 OFFCURVE",
"433 517 CURVE SMOOTH",
"433 184 LINE SMOOTH",
"433 66 OFFCURVE",
"350 8 OFFCURVE",
"243 8 CURVE SMOOTH",
"136 8 OFFCURVE",
"52 77 OFFCURVE"
);
}
);
width = 794;
},
{
layerId = "AC650972-4439-4B3A-A687-B8B0000379A6";
name = Light;
paths = (
{
closed = 1;
nodes = (
"388 0 LINE",
"719 0 LINE",
"722 19 LINE",
"409 19 LINE",
"475 393 LINE",
"696 393 LINE",
"706 411 LINE",
"478 411 LINE",
"525 679 LINE",
"840 679 LINE",
"844 698 LINE",
"511 698 LINE",
"494 604 LINE",
"475 673 OFFCURVE",
"417 714 OFFCURVE",
"325 714 CURVE SMOOTH",
"193 714 OFFCURVE",
"101 642 OFFCURVE",
"77 506 CURVE SMOOTH",
"20 185 LINE SMOOTH",
"-3 56 OFFCURVE",
"79 -11 OFFCURVE",
"196 -11 CURVE SMOOTH",
"285 -11 OFFCURVE",
"360 28 OFFCURVE",
"404 95 CURVE"
);
},
{
closed = 1;
nodes = (
"39 184 CURVE SMOOTH",
"96 506 LINE SMOOTH",
"116 621 OFFCURVE",
"193 693 OFFCURVE",
"319 693 CURVE SMOOTH",
"442 693 OFFCURVE",
"494 627 OFFCURVE",
"479 517 CURVE SMOOTH",
"420 184 LINE SMOOTH",
"399 66 OFFCURVE",
"306 8 OFFCURVE",
"199 8 CURVE SMOOTH",
"92 8 OFFCURVE",
"20 77 OFFCURVE"
);
}
);
width = 828;
},
{
layerId = "2E533DD2-9170-4ADE-821A-2C583B05E934";
name = Regular;
paths = (
{
closed = 1;
nodes = (
"397 0 LINE",
"729 0 LINE",
"729 50 LINE",
"454 50 LINE",
"454 356 LINE",
"625 356 LINE",
"644 411 LINE",
"454 411 LINE",
"454 646 LINE",
"731 646 LINE",
"731 698 LINE",
"397 698 LINE",
"397 660 LINE",
"362 695 OFFCURVE",
"310 714 OFFCURVE",
"246 714 CURVE SMOOTH",
"114 714 OFFCURVE",
"34 642 OFFCURVE",
"34 506 CURVE SMOOTH",
"34 185 LINE SMOOTH",
"34 56 OFFCURVE",
"127 -11 OFFCURVE",
"245 -11 CURVE SMOOTH",
"307 -11 OFFCURVE",
"360 8 OFFCURVE",
"397 43 CURVE"
);
},
{
closed = 1;
nodes = (
"90 186 CURVE SMOOTH",
"90 515 LINE SMOOTH",
"90 612 OFFCURVE",
"151 661 OFFCURVE",
"243 661 CURVE SMOOTH",
"329 661 OFFCURVE",
"389 618 OFFCURVE",
"397 536 CURVE",
"397 164 LINE",
"389 81 OFFCURVE",
"327 42 OFFCURVE",
"243 42 CURVE SMOOTH",
"155 42 OFFCURVE",
"90 90 OFFCURVE"
);
}
);
width = 762;
},
{
layerId = "AA3E7E17-FD94-4F30-8DBF-5406C904ABDB";
name = Regular;
paths = (
{
closed = 1;
nodes = (
"351 0 LINE",
"683 0 LINE",
"691 50 LINE",
"416 50 LINE",
"470 356 LINE",
"641 356 LINE",
"670 411 LINE",
"480 411 LINE",
"521 646 LINE",
"798 646 LINE",
"808 698 LINE",
"474 698 LINE",
"467 660 LINE",
"438 695 OFFCURVE",
"389 714 OFFCURVE",
"325 714 CURVE SMOOTH",
"193 714 OFFCURVE",
"101 642 OFFCURVE",
"77 506 CURVE SMOOTH",
"20 185 LINE SMOOTH",
"-3 56 OFFCURVE",
"79 -11 OFFCURVE",
"197 -11 CURVE SMOOTH",
"259 -11 OFFCURVE",
"315 8 OFFCURVE",
"358 43 CURVE"
);
},
{
closed = 1;
nodes = (
"76 186 CURVE SMOOTH",
"134 515 LINE SMOOTH",
"151 612 OFFCURVE",
"221 661 OFFCURVE",
"313 661 CURVE SMOOTH",
"399 661 OFFCURVE",
"451 618 OFFCURVE",
"445 536 CURVE",
"379 164 LINE",
"357 81 OFFCURVE",
"288 42 OFFCURVE",
"204 42 CURVE SMOOTH",
"116 42 OFFCURVE",
"59 90 OFFCURVE"
);
}
);
width = 795;
},
{
layerId = "5377DFB6-1026-4380-913C-75FA0B8500B4";
name = Bold;
paths = (
{
closed = 1;
nodes = (
"346 0 LINE",
"678 0 LINE",
"678 100 LINE",
"456 100 LINE",
"456 308 LINE",
"561 308 LINE",
"593 413 LINE",
"456 413 LINE",
"456 588 LINE",
"680 588 LINE",
"680 698 LINE",
"346 698 LINE",
"346 675 LINE",
"330 698 OFFCURVE",
"282 714 OFFCURVE",
"245 714 CURVE SMOOTH",
"113 714 OFFCURVE",
"36 642 OFFCURVE",
"36 505 CURVE SMOOTH",
"36 184 LINE SMOOTH",
"36 55 OFFCURVE",
"125 -12 OFFCURVE",
"244 -12 CURVE SMOOTH",
"280 -12 OFFCURVE",
"333 0 OFFCURVE",
"346 28 CURVE"
);
},
{
closed = 1;
nodes = (
"146 204 CURVE SMOOTH",
"146 469 LINE SMOOTH",
"146 555 OFFCURVE",
"172 595 OFFCURVE",
"246 595 CURVE SMOOTH",
"323 595 OFFCURVE",
"346 553 OFFCURVE",
"346 468 CURVE SMOOTH",
"346 205 LINE SMOOTH",
"346 142 OFFCURVE",
"308 100 OFFCURVE",
"246 100 CURVE SMOOTH",
"177 100 OFFCURVE",
"146 139 OFFCURVE"
);
}
);
width = 715;
},
{
layerId = "BB2AD2B5-E4ED-4CD1-ABDB-8AA4FBC4C564";
name = Bold;
paths = (
{
closed = 1;
nodes = (
"299 0 LINE",
"631 0 LINE",
"648 100 LINE",
"426 100 LINE",
"463 308 LINE",
"568 308 LINE",
"618 413 LINE",
"481 413 LINE",
"512 588 LINE",
"736 588 LINE",
"756 698 LINE",
"422 698 LINE",
"418 675 LINE",
"406 698 OFFCURVE",
"360 714 OFFCURVE",
"323 714 CURVE SMOOTH",
"191 714 OFFCURVE",
"102 642 OFFCURVE",
"78 505 CURVE SMOOTH",
"21 184 LINE SMOOTH",
"-2 55 OFFCURVE",
"75 -12 OFFCURVE",
"194 -12 CURVE SMOOTH",
"230 -12 OFFCURVE",
"286 0 OFFCURVE",
"303 28 CURVE"
);
},
{
closed = 1;
nodes = (
"134 204 CURVE SMOOTH",
"181 469 LINE SMOOTH",
"196 555 OFFCURVE",
"229 595 OFFCURVE",
"303 595 CURVE SMOOTH",
"380 595 OFFCURVE",
"396 553 OFFCURVE",
"381 468 CURVE SMOOTH",
"335 205 LINE SMOOTH",
"324 142 OFFCURVE",
"278 100 OFFCURVE",
"216 100 CURVE SMOOTH",
"147 100 OFFCURVE",
"123 139 OFFCURVE"
);
}
);
width = 745;
}
);
unicode = 0152;
userData = {
com.typemytype.robofont.mark = (
0.6,
1,
0.694,
1
);
};
},
{
color = (153,255,177,1);
glyphname = O;
lastChange = "2018-12-18 00:11:23 +0000";
layers = (
{
anchors = (
{
name = tonos;
position = "{81, 700}";
},
{
name = top;
position = "{243, 735}";
}
);
layerId = "59B97FCD-418C-4452-9337-EB92ED35D981";
name = Light;
paths = (
{
closed = 1;
nodes = (
"33 506 CURVE SMOOTH",
"33 185 LINE SMOOTH",
"33 56 OFFCURVE",
"126 -11 OFFCURVE",
"243 -11 CURVE SMOOTH",
"368 -11 OFFCURVE",
"451 63 OFFCURVE",
"451 185 CURVE SMOOTH",
"451 505 LINE SMOOTH",
"451 635 OFFCURVE",
"375 714 OFFCURVE",
"245 714 CURVE SMOOTH",
"113 714 OFFCURVE",
"33 642 OFFCURVE"
);
},
{
closed = 1;
nodes = (
"52 184 CURVE SMOOTH",
"52 506 LINE SMOOTH",
"52 621 OFFCURVE",
"116 693 OFFCURVE",
"242 693 CURVE SMOOTH",
"369 693 OFFCURVE",
"433 624 OFFCURVE",
"433 508 CURVE SMOOTH",
"433 184 LINE SMOOTH",
"433 66 OFFCURVE",
"350 8 OFFCURVE",
"243 8 CURVE SMOOTH",
"136 8 OFFCURVE",
"52 77 OFFCURVE"
);
}
);
width = 486;
},
{
anchors = (
{
name = tonos;
position = "{155, 700}";
},
{
name = top;
position = "{326, 735}";
}
);
layerId = "AC650972-4439-4B3A-A687-B8B0000379A6";
name = Light;
paths = (
{
closed = 1;
nodes = (
"77 506 CURVE SMOOTH",
"20 185 LINE SMOOTH",
"-3 56 OFFCURVE",
"79 -11 OFFCURVE",
"196 -11 CURVE SMOOTH",
"321 -11 OFFCURVE",
"417 63 OFFCURVE",
"438 185 CURVE SMOOTH",
"495 505 LINE SMOOTH",
"517 635 OFFCURVE",
"455 714 OFFCURVE",
"325 714 CURVE SMOOTH",
"193 714 OFFCURVE",
"101 642 OFFCURVE"
);
},
{
closed = 1;
nodes = (
"39 184 CURVE SMOOTH",
"96 506 LINE SMOOTH",
"116 621 OFFCURVE",
"193 693 OFFCURVE",
"319 693 CURVE SMOOTH",
"446 693 OFFCURVE",
"498 624 OFFCURVE",
"477 508 CURVE SMOOTH",
"420 184 LINE SMOOTH",
"399 66 OFFCURVE",
"306 8 OFFCURVE",
"199 8 CURVE SMOOTH",
"92 8 OFFCURVE",
"20 77 OFFCURVE"
);
}
);
width = 512;
},
{
anchors = (
{
name = tonos;
position = "{81, 700}";
},
{
name = top;
position = "{245, 735}";
}
);
layerId = "2E533DD2-9170-4ADE-821A-2C583B05E934";
name = Regular;
paths = (
{
closed = 1;
nodes = (
"34 506 CURVE SMOOTH",
"34 185 LINE SMOOTH",
"34 56 OFFCURVE",
"127 -11 OFFCURVE",
"245 -11 CURVE SMOOTH",
"368 -11 OFFCURVE",
"454 64 OFFCURVE",
"454 185 CURVE SMOOTH",
"454 505 LINE SMOOTH",
"454 635 OFFCURVE",
"378 714 OFFCURVE",
"246 714 CURVE SMOOTH",
"114 714 OFFCURVE",
"34 642 OFFCURVE"
);
},
{
closed = 1;
nodes = (
"90 186 CURVE SMOOTH",
"90 515 LINE SMOOTH",
"90 612 OFFCURVE",
"151 661 OFFCURVE",
"243 661 CURVE SMOOTH",
"337 661 OFFCURVE",
"399 612 OFFCURVE",
"399 515 CURVE SMOOTH",
"399 186 LINE SMOOTH",
"399 88 OFFCURVE",
"335 42 OFFCURVE",
"243 42 CURVE SMOOTH",
"155 42 OFFCURVE",
"90 90 OFFCURVE"
);
}
);
width = 490;
},
{
anchors = (
{
name = tonos;
position = "{155, 700}";
},
{
name = top;
position = "{327, 735}";
}
);
layerId = "AA3E7E17-FD94-4F30-8DBF-5406C904ABDB";
name = Regular;
paths = (
{
closed = 1;
nodes = (
"77 506 CURVE SMOOTH",
"20 185 LINE SMOOTH",
"-3 56 OFFCURVE",
"79 -11 OFFCURVE",
"197 -11 CURVE SMOOTH",
"320 -11 OFFCURVE",
"419 64 OFFCURVE",
"440 185 CURVE SMOOTH",
"497 505 LINE SMOOTH",
"519 635 OFFCURVE",
"457 714 OFFCURVE",
"325 714 CURVE SMOOTH",
"189 714 OFFCURVE",
"101 642 OFFCURVE"
);
},
{
closed = 1;
nodes = (
"76 186 CURVE SMOOTH",
"134 515 LINE SMOOTH",
"151 612 OFFCURVE",
"221 661 OFFCURVE",
"313 661 CURVE SMOOTH",
"407 661 OFFCURVE",
"460 612 OFFCURVE",
"443 515 CURVE SMOOTH",
"385 186 LINE SMOOTH",
"368 88 OFFCURVE",
"296 42 OFFCURVE",
"204 42 CURVE SMOOTH",
"116 42 OFFCURVE",
"59 90 OFFCURVE"
);
}
);
width = 514;
},
{
anchors = (
{
name = tonos;
position = "{82, 700}";
},
{
name = top;
position = "{246, 735}";
}
);
layerId = "5377DFB6-1026-4380-913C-75FA0B8500B4";
name = Bold;
paths = (
{
closed = 1;
nodes = (
"36 506 CURVE SMOOTH",
"36 185 LINE SMOOTH",
"36 56 OFFCURVE",
"128 -11 OFFCURVE",
"247 -11 CURVE SMOOTH",
"372 -11 OFFCURVE",
"456 63 OFFCURVE",
"456 185 CURVE SMOOTH",
"456 505 LINE SMOOTH",
"456 636 OFFCURVE",
"380 715 OFFCURVE",
"248 715 CURVE SMOOTH",
"116 715 OFFCURVE",
"36 642 OFFCURVE"
);
},
{
closed = 1;
nodes = (
"146 204 CURVE SMOOTH",
"146 470 LINE SMOOTH",
"146 557 OFFCURVE",
"176 598 OFFCURVE",
"246 598 CURVE SMOOTH",
"323 598 OFFCURVE",
"346 554 OFFCURVE",
"346 469 CURVE SMOOTH",
"346 206 LINE SMOOTH",
"346 143 OFFCURVE",
"309 101 OFFCURVE",
"246 101 CURVE SMOOTH",
"179 101 OFFCURVE",
"146 140 OFFCURVE"
);
}
);
width = 493;
},
{
anchors = (
{
name = tonos;
position = "{156, 700}";
},
{
name = top;
position = "{328, 735}";
}
);
layerId = "BB2AD2B5-E4ED-4CD1-ABDB-8AA4FBC4C564";
name = Bold;
paths = (
{
closed = 1;
nodes = (
"78 506 CURVE SMOOTH",
"21 185 LINE SMOOTH",
"-2 56 OFFCURVE",
"79 -11 OFFCURVE",
"198 -11 CURVE SMOOTH",
"323 -11 OFFCURVE",
"420 63 OFFCURVE",
"441 185 CURVE SMOOTH",
"498 505 LINE SMOOTH",
"521 636 OFFCURVE",
"459 715 OFFCURVE",
"327 715 CURVE SMOOTH",
"195 715 OFFCURVE",
"102 642 OFFCURVE"
);
},
{
closed = 1;
nodes = (
"134 204 CURVE SMOOTH",
"181 470 LINE SMOOTH",
"197 557 OFFCURVE",
"234 598 OFFCURVE",
"304 598 CURVE SMOOTH",
"381 598 OFFCURVE",
"396 554 OFFCURVE",
"381 469 CURVE SMOOTH",
"335 206 LINE SMOOTH",
"324 143 OFFCURVE",
"279 101 OFFCURVE",
"216 101 CURVE SMOOTH",
"149 101 OFFCURVE",
"123 140 OFFCURVE"
);
}
);
width = 516;
}
);
leftKerningGroup = O;
rightKerningGroup = O;
unicode = 004F;
userData = {
com.typemytype.robofont.mark = (
0.6,
1,
0.694,
1
);
};
},
{
color = (153,255,177,1);
glyphname = Omegagreek;
lastChange = "2018-12-18 00:11:23 +0000";
layers = (
{
anchors = (
{
name = tonos;
position = "{96, 700}";
}
);
layerId = "59B97FCD-418C-4452-9337-EB92ED35D981";
name = Light;
paths = (
{
closed = 1;
nodes = (
"533 196 CURVE SMOOTH",
"533 502 LINE SMOOTH",
"533 624 OFFCURVE",
"470 705 OFFCURVE",
"346 705 CURVE SMOOTH",
"234 705 LINE SMOOTH",
"109 705 OFFCURVE",
"47 624 OFFCURVE",
"47 502 CURVE SMOOTH",
"47 196 LINE SMOOTH",
"47 119 OFFCURVE",
"82 57 OFFCURVE",
"179 20 CURVE",
"40 20 LINE",
"33 0 LINE",
"261 0 LINE",
"261 20 LINE",
"216 20 OFFCURVE",
"172 35 OFFCURVE",
"129 66 CURVE SMOOTH",
"86 97 OFFCURVE",
"64 141 OFFCURVE",
"64 196 CURVE SMOOTH",
"64 502 LINE SMOOTH",
"64 625 OFFCURVE",
"130 686 OFFCURVE",
"234 686 CURVE SMOOTH",
"346 686 LINE SMOOTH",
"449 686 OFFCURVE",
"517 627 OFFCURVE",
"517 501 CURVE SMOOTH",
"517 196 LINE SMOOTH",
"517 141 OFFCURVE",
"495 98 OFFCURVE",
"451 67 CURVE SMOOTH",
"407 36 OFFCURVE",
"363 20 OFFCURVE",
"318 20 CURVE",
"318 0 LINE",
"546 0 LINE",
"537 20 LINE",
"398 20 LINE",
"488 57 OFFCURVE",
"533 112 OFFCURVE"
);
}
);
width = 579;
},
{
anchors = (
{
name = tonos;
position = "{170, 700}";
}
);
layerId = "AC650972-4439-4B3A-A687-B8B0000379A6";
name = Light;
paths = (
{
closed = 1;
nodes = (
"529 196 CURVE SMOOTH",
"583 502 LINE SMOOTH",
"605 624 OFFCURVE",
"556 705 OFFCURVE",
"432 705 CURVE SMOOTH",
"320 705 LINE SMOOTH",
"195 705 OFFCURVE",
"119 624 OFFCURVE",
"97 502 CURVE SMOOTH",
"43 196 LINE SMOOTH",
"29 119 OFFCURVE",
"54 57 OFFCURVE",
"144 20 CURVE",
"5 20 LINE",
"-5 0 LINE",
"223 0 LINE",
"226 20 LINE",
"181 20 OFFCURVE",
"140 35 OFFCURVE",
"102 66 CURVE SMOOTH",
"65 97 OFFCURVE",
"50 141 OFFCURVE",
"60 196 CURVE SMOOTH",
"114 502 LINE SMOOTH",
"136 625 OFFCURVE",
"212 686 OFFCURVE",
"316 686 CURVE SMOOTH",
"428 686 LINE SMOOTH",
"531 686 OFFCURVE",
"589 627 OFFCURVE",
"567 501 CURVE SMOOTH",
"513 196 LINE SMOOTH",
"503 141 OFFCURVE",
"474 98 OFFCURVE",
"424 67 CURVE SMOOTH",
"375 36 OFFCURVE",
"328 20 OFFCURVE",
"283 20 CURVE",
"280 0 LINE",
"508 0 LINE",
"502 20 LINE",
"363 20 LINE",
"460 57 OFFCURVE",
"514 112 OFFCURVE"
);
}
);
width = 604;
},
{
anchors = (
{
name = tonos;
position = "{96, 700}";
}
);
layerId = "2E533DD2-9170-4ADE-821A-2C583B05E934";
name = Regular;
paths = (
{
closed = 1;
nodes = (
"533 194 CURVE SMOOTH",
"533 501 LINE SMOOTH",
"533 623 OFFCURVE",
"470 704 OFFCURVE",
"346 704 CURVE SMOOTH",
"234 704 LINE SMOOTH",
"109 704 OFFCURVE",
"47 623 OFFCURVE",
"47 501 CURVE SMOOTH",
"47 194 LINE SMOOTH",
"47 127 OFFCURVE",
"70 78 OFFCURVE",
"115 50 CURVE",
"51 50 LINE",
"33 -1 LINE",
"261 -1 LINE",
"261 50 LINE",
"201 50 OFFCURVE",
"152 77 OFFCURVE",
"135 98 CURVE SMOOTH",
"114 122 OFFCURVE",
"103 154 OFFCURVE",
"103 194 CURVE SMOOTH",
"103 510 LINE SMOOTH",
"103 598 OFFCURVE",
"155 652 OFFCURVE",
"234 652 CURVE SMOOTH",
"346 652 LINE SMOOTH",
"425 652 OFFCURVE",
"478 598 OFFCURVE",
"478 510 CURVE SMOOTH",
"478 194 LINE SMOOTH",
"478 140 OFFCURVE",
"458 102 OFFCURVE",
"422 80 CURVE SMOOTH",
"403 69 OFFCURVE",
"362 50 OFFCURVE",
"318 50 CURVE",
"318 -1 LINE",
"546 -1 LINE",
"530 50 LINE",
"460 50 LINE",
"510 79 OFFCURVE",
"533 128 OFFCURVE"
);
}
);
width = 580;
},
{
anchors = (
{
name = tonos;
position = "{170, 700}";
}
);
layerId = "AA3E7E17-FD94-4F30-8DBF-5406C904ABDB";
name = Regular;
paths = (
{
closed = 1;
nodes = (
"530 194 CURVE SMOOTH",
"584 501 LINE SMOOTH",
"605 623 OFFCURVE",
"557 704 OFFCURVE",
"433 704 CURVE SMOOTH",
"321 704 LINE SMOOTH",
"196 704 OFFCURVE",
"119 623 OFFCURVE",
"98 501 CURVE SMOOTH",
"44 194 LINE SMOOTH",
"32 127 OFFCURVE",
"46 78 OFFCURVE",
"86 50 CURVE",
"22 50 LINE",
"-5 -1 LINE",
"223 -1 LINE",
"232 50 LINE",
"172 50 OFFCURVE",
"128 77 OFFCURVE",
"115 98 CURVE",
"98 122 OFFCURVE",
"93 154 OFFCURVE",
"100 194 CURVE SMOOTH",
"155 510 LINE SMOOTH",
"171 598 OFFCURVE",
"232 652 OFFCURVE",
"311 652 CURVE SMOOTH",
"423 652 LINE SMOOTH",
"502 652 OFFCURVE",
"546 598 OFFCURVE",
"530 510 CURVE SMOOTH",
"475 194 LINE SMOOTH",
"465 140 OFFCURVE",
"438 102 OFFCURVE",
"399 80 CURVE SMOOTH",
"378 69 OFFCURVE",
"333 50 OFFCURVE",
"289 50 CURVE",
"280 -1 LINE",
"508 -1 LINE",
"501 50 LINE",
"431 50 LINE",
"486 79 OFFCURVE",
"518 128 OFFCURVE"
);
}
);
width = 604;
},
{
anchors = (
{
name = tonos;
position = "{97, 700}";
}
);
layerId = "5377DFB6-1026-4380-913C-75FA0B8500B4";
name = Bold;
paths = (
{
closed = 1;
nodes = (
"535 226 CURVE SMOOTH",
"535 502 LINE SMOOTH",
"535 625 OFFCURVE",
"472 706 OFFCURVE",
"348 706 CURVE SMOOTH",
"236 706 LINE SMOOTH",
"110 706 OFFCURVE",
"48 625 OFFCURVE",
"48 502 CURVE SMOOTH",
"48 226 LINE SMOOTH",
"48 186 OFFCURVE",
"52 112 OFFCURVE",
"99 101 CURVE",
"52 101 LINE",
"34 0 LINE",
"262 0 LINE",
"262 101 LINE",
"228 101 OFFCURVE",
"205 100 OFFCURVE",
"191 109 CURVE SMOOTH",
"172 120 OFFCURVE",
"157 146 OFFCURVE",
"157 195 CURVE SMOOTH",
"157 468 LINE SMOOTH",
"157 557 OFFCURVE",
"186 588 OFFCURVE",
"256 588 CURVE SMOOTH",
"333 588 LINE SMOOTH",
"392 588 OFFCURVE",
"425 543 OFFCURVE",
"425 468 CURVE SMOOTH",
"425 196 LINE SMOOTH",
"425 141 OFFCURVE",
"410 120 OFFCURVE",
"385 109 CURVE SMOOTH",
"364 100 OFFCURVE",
"341 101 OFFCURVE",
"320 101 CURVE",
"320 0 LINE",
"548 0 LINE",
"532 101 LINE",
"483 101 LINE",
"525 120 OFFCURVE",
"535 151 OFFCURVE"
);
}
);
width = 583;
},
{
anchors = (
{
name = tonos;
position = "{170, 700}";
}
);
layerId = "BB2AD2B5-E4ED-4CD1-ABDB-8AA4FBC4C564";
name = Bold;
paths = (
{
closed = 1;
nodes = (
"535 226 CURVE SMOOTH",
"584 502 LINE SMOOTH",
"606 625 OFFCURVE",
"557 706 OFFCURVE",
"433 706 CURVE SMOOTH",
"321 706 LINE SMOOTH",
"195 706 OFFCURVE",
"119 625 OFFCURVE",
"97 502 CURVE SMOOTH",
"48 226 LINE SMOOTH",
"41 186 OFFCURVE",
"32 112 OFFCURVE",
"77 101 CURVE",
"30 101 LINE",
"-5 0 LINE",
"223 0 LINE",
"240 101 LINE",
"206 101 OFFCURVE",
"183 100 OFFCURVE",
"171 109 CURVE",
"154 120 OFFCURVE",
"143 146 OFFCURVE",
"152 195 CURVE SMOOTH",
"200 468 LINE SMOOTH",
"216 557 OFFCURVE",
"250 588 OFFCURVE",
"320 588 CURVE SMOOTH",
"397 588 LINE SMOOTH",
"456 588 OFFCURVE",
"481 543 OFFCURVE",
"468 468 CURVE SMOOTH",
"420 196 LINE SMOOTH",
"410 141 OFFCURVE",
"392 120 OFFCURVE",
"365 109 CURVE SMOOTH",
"342 100 OFFCURVE",
"319 101 OFFCURVE",
"298 101 CURVE",
"281 0 LINE",
"509 0 LINE",
"510 101 LINE",
"461 101 LINE",
"507 120 OFFCURVE",
"522 151 OFFCURVE"
);
}
);
width = 605;
}
);
leftKerningGroup = Omegagreek;
rightKerningGroup = Omegagreek;
unicode = 03A9;
userData = {
com.typemytype.robofont.mark = (
0.6,
1,
0.694,
1
);
};
},
{
color = (153,255,177,1);
glyphname = Oslash;
lastChange = "2018-12-18 00:11:23 +0000";
layers = (
{
components = (
{
name = O;
transform = "{1, 0, 0, 1, 0, 0}";
}
);
layerId = "59B97FCD-418C-4452-9337-EB92ED35D981";
name = Light;
paths = (
{
closed = 1;
nodes = (
"104 -113 LINE",
"124 -113 LINE",
"447 815 LINE",
"426 815 LINE"
);
}
);
width = 488;
},
{
components = (
{
name = O;
transform = "{1, 0, 0, 1, 0, 0}";
}
);
layerId = "AC650972-4439-4B3A-A687-B8B0000379A6";
name = Light;
paths = (
{
closed = 1;
nodes = (
"39 -113 LINE",
"59 -113 LINE",
"545 815 LINE",
"524 815 LINE"
);
}
);
width = 530;
},
{
components = (
{
name = O;
transform = "{1, 0, 0, 1, 0, 0}";
}
);
layerId = "2E533DD2-9170-4ADE-821A-2C583B05E934";
name = Regular;
paths = (
{
closed = 1;
nodes = (
"86 -113 LINE",
"147 -113 LINE",
"466 815 LINE",
"410 815 LINE"
);
}
);
width = 498;
},
{
components = (
{
name = O;
transform = "{1, 0, 0, 1, 0, 0}";
}
);
layerId = "AA3E7E17-FD94-4F30-8DBF-5406C904ABDB";
name = Regular;
paths = (
{
closed = 1;
nodes = (
"42 -18 LINE",
"103 -18 LINE",
"485 720 LINE",
"429 720 LINE"
);
}
);
width = 544;
},
{
components = (
{
name = O;
transform = "{1, 0, 0, 1, 0, 0}";
}
);
layerId = "5377DFB6-1026-4380-913C-75FA0B8500B4";
name = Bold;
paths = (
{
closed = 1;
nodes = (
"66 -18 LINE",
"162 -18 LINE",
"424 720 LINE",
"324 720 LINE"
);
}
);
width = 493;
},
{
components = (
{
name = O;
transform = "{1, 0, 0, 1, 0, 0}";
}
);
layerId = "BB2AD2B5-E4ED-4CD1-ABDB-8AA4FBC4C564";
name = Bold;
paths = (
{
closed = 1;
nodes = (
"16 -18 LINE",
"112 -18 LINE",
"524 720 LINE",
"424 720 LINE"
);
}
);
width = 571;
}
);
leftKerningGroup = O;
rightKerningGroup = O;
unicode = 00D8;
userData = {
com.typemytype.robofont.mark = (
0.6,
1,
0.694,
1
);
};
},
{
color = (153,255,177,1);
glyphname = P;
lastChange = "2018-12-18 00:11:23 +0000";
layers = (
{
layerId = "59B97FCD-418C-4452-9337-EB92ED35D981";
name = Light;
paths = (
{
closed = 1;
nodes = (
"290 698 CURVE SMOOTH",
"41 698 LINE",
"41 0 LINE",
"60 0 LINE",
"60 280 LINE",
"139 280 OFFCURVE",
"223 280 OFFCURVE",
"283 280 CURVE SMOOTH",
"417 280 OFFCURVE",
"474 354 OFFCURVE",
"474 492 CURVE SMOOTH",
"474 621 OFFCURVE",
"416 698 OFFCURVE"
);
},
{
closed = 1;
nodes = (
"60 299 CURVE",
"60 678 LINE",
"291 678 LINE SMOOTH",
"406 678 OFFCURVE",
"455 609 OFFCURVE",
"455 492 CURVE SMOOTH",
"455 367 OFFCURVE",
"404 299 OFFCURVE",
"282 299 CURVE SMOOTH",
"227 299 OFFCURVE",
"148 299 OFFCURVE"
);
}
);
width = 502;
},
{
layerId = "AC650972-4439-4B3A-A687-B8B0000379A6";
name = Light;
paths = (
{
closed = 1;
nodes = (
"373 698 CURVE SMOOTH",
"124 698 LINE",
"1 0 LINE",
"20 0 LINE",
"69 280 LINE",
"148 280 OFFCURVE",
"232 280 OFFCURVE",
"292 280 CURVE SMOOTH",
"426 280 OFFCURVE",
"496 354 OFFCURVE",
"520 492 CURVE SMOOTH",
"543 621 OFFCURVE",
"499 698 OFFCURVE"
);
},
{
closed = 1;
nodes = (
"72 299 CURVE",
"139 678 LINE",
"370 678 LINE SMOOTH",
"485 678 OFFCURVE",
"522 609 OFFCURVE",
"501 492 CURVE SMOOTH",
"479 367 OFFCURVE",
"416 299 OFFCURVE",
"294 299 CURVE SMOOTH",
"239 299 OFFCURVE",
"160 299 OFFCURVE"
);
}
);
width = 534;
},
{
layerId = "2E533DD2-9170-4ADE-821A-2C583B05E934";
name = Regular;
paths = (
{
closed = 1;
nodes = (
"276 698 CURVE SMOOTH",
"41 698 LINE",
"41 0 LINE",
"97 0 LINE",
"97 244 LINE",
"161 244 OFFCURVE",
"228 244 OFFCURVE",
"276 244 CURVE SMOOTH",
"408 244 OFFCURVE",
"474 307 OFFCURVE",
"474 472 CURVE SMOOTH",
"474 643 OFFCURVE",
"403 698 OFFCURVE"
);
},
{
closed = 1;
nodes = (
"97 299 CURVE",
"97 645 LINE",
"281 645 LINE SMOOTH",
"359 645 OFFCURVE",
"418 613 OFFCURVE",
"418 472 CURVE SMOOTH",
"418 320 OFFCURVE",
"357 299 OFFCURVE",
"281 299 CURVE SMOOTH",
"236 299 OFFCURVE",
"170 299 OFFCURVE"
);
}
);
width = 504;
},
{
layerId = "AA3E7E17-FD94-4F30-8DBF-5406C904ABDB";
name = Regular;
paths = (
{
closed = 1;
nodes = (
"358 698 CURVE SMOOTH",
"123 698 LINE",
"0 0 LINE",
"56 0 LINE",
"99 244 LINE",
"163 244 OFFCURVE",
"230 244 OFFCURVE",
"278 244 CURVE SMOOTH",
"410 244 OFFCURVE",
"487 307 OFFCURVE",
"516 472 CURVE SMOOTH",
"546 643 OFFCURVE",
"485 698 OFFCURVE"
);
},
{
closed = 1;
nodes = (
"108 299 CURVE",
"169 645 LINE",
"353 645 LINE SMOOTH",
"431 645 OFFCURVE",
"485 613 OFFCURVE",
"460 472 CURVE SMOOTH",
"433 320 OFFCURVE",
"368 299 OFFCURVE",
"292 299 CURVE SMOOTH",
"247 299 OFFCURVE",
"181 299 OFFCURVE"
);
}
);
width = 535;
},
{
layerId = "5377DFB6-1026-4380-913C-75FA0B8500B4";
name = Bold;
paths = (
{
closed = 1;
nodes = (
"258 698 CURVE SMOOTH",
"41 698 LINE",
"41 0 LINE",
"151 0 LINE",
"151 195 LINE",
"151 195 OFFCURVE",
"253 195 OFFCURVE",
"258 195 CURVE SMOOTH",
"365 195 OFFCURVE",
"476 235 OFFCURVE",
"476 451 CURVE SMOOTH",
"476 648 OFFCURVE",
"363 698 OFFCURVE"
);
},
{
closed = 1;
nodes = (
"151 300 CURVE",
"151 588 LINE",
"217 588 LINE SMOOTH",
"319 588 OFFCURVE",
"365 576 OFFCURVE",
"365 451 CURVE SMOOTH",
"365 317 OFFCURVE",
"320 300 OFFCURVE",
"217 300 CURVE SMOOTH",
"212 300 OFFCURVE",
"151 300 OFFCURVE"
);
}
);
width = 507;
},
{
layerId = "BB2AD2B5-E4ED-4CD1-ABDB-8AA4FBC4C564";
name = Bold;
paths = (
{
closed = 1;
nodes = (
"340 698 CURVE SMOOTH",
"123 698 LINE",
"0 0 LINE",
"110 0 LINE",
"144 195 LINE",
"144 195 OFFCURVE",
"246 195 OFFCURVE",
"251 195 CURVE SMOOTH",
"358 195 OFFCURVE",
"476 235 OFFCURVE",
"514 451 CURVE SMOOTH",
"549 648 OFFCURVE",
"445 698 OFFCURVE"
);
},
{
closed = 1;
nodes = (
"162 300 CURVE",
"213 588 LINE",
"279 588 LINE SMOOTH",
"381 588 OFFCURVE",
"425 576 OFFCURVE",
"403 451 CURVE SMOOTH",
"379 317 OFFCURVE",
"331 300 OFFCURVE",
"228 300 CURVE SMOOTH",
"223 300 OFFCURVE",
"162 300 OFFCURVE"
);
}
);
width = 538;
}
);
leftKerningGroup = P;
rightKerningGroup = P;
unicode = 0050;
userData = {
com.typemytype.robofont.mark = (
0.6,
1,
0.694,
1
);
};
},
{
color = (153,255,177,1);
glyphname = Phi;
lastChange = "2018-12-18 00:39:20 +0000";
layers = (
{
layerId = "59B97FCD-418C-4452-9337-EB92ED35D981";
name = Light;
paths = (
{
closed = 1;
nodes = (
"156 689 CURVE",
"148 704 LINE",
"71 679 OFFCURVE",
"32 616 OFFCURVE",
"32 516 CURVE SMOOTH",
"32 224 LINE SMOOTH",
"32 103 OFFCURVE",
"93 30 OFFCURVE",
"220 30 CURVE SMOOTH",
"285 30 LINE",
"285 -33 LINE",
"302 -35 LINE",
"302 30 LINE",
"370 30 LINE SMOOTH",
"498 30 OFFCURVE",
"557 103 OFFCURVE",
"557 224 CURVE SMOOTH",
"557 509 LINE SMOOTH",
"557 622 OFFCURVE",
"489 716 OFFCURVE",
"382 708 CURVE SMOOTH",
"321 706 OFFCURVE",
"285 670 OFFCURVE",
"285 603 CURVE SMOOTH",
"285 46 LINE",
"220 46 LINE SMOOTH",
"114 46 OFFCURVE",
"52 103 OFFCURVE",
"52 215 CURVE SMOOTH",
"52 516 LINE SMOOTH",
"52 608 OFFCURVE",
"86 667 OFFCURVE"
);
},
{
closed = 1;
nodes = (
"370 46 CURVE SMOOTH",
"302 46 LINE",
"302 605 LINE SMOOTH",
"302 660 OFFCURVE",
"328 689 OFFCURVE",
"381 692 CURVE SMOOTH",
"478 696 OFFCURVE",
"537 616 OFFCURVE",
"537 510 CURVE SMOOTH",
"537 223 LINE SMOOTH",
"537 137 OFFCURVE",
"502 46 OFFCURVE"
);
}
);
width = 591;
},
{
layerId = "AC650972-4439-4B3A-A687-B8B0000379A6";
name = Light;
paths = (
{
closed = 1;
nodes = (
"227 689 CURVE",
"222 704 LINE",
"140 679 OFFCURVE",
"90 616 OFFCURVE",
"72 516 CURVE SMOOTH",
"21 224 LINE SMOOTH",
"0 103 OFFCURVE",
"48 30 OFFCURVE",
"175 30 CURVE SMOOTH",
"240 30 LINE",
"229 -33 LINE",
"245 -35 LINE",
"257 30 LINE",
"325 30 LINE SMOOTH",
"453 30 OFFCURVE",
"525 103 OFFCURVE",
"546 224 CURVE SMOOTH",
"596 509 LINE SMOOTH",
"616 619 OFFCURVE",
"568 716 OFFCURVE",
"456 708 CURVE SMOOTH",
"395 706 OFFCURVE",
"353 670 OFFCURVE",
"341 603 CURVE SMOOTH",
"243 46 LINE",
"178 46 LINE SMOOTH",
"72 46 OFFCURVE",
"20 103 OFFCURVE",
"39 215 CURVE SMOOTH",
"92 516 LINE SMOOTH",
"109 608 OFFCURVE",
"153 667 OFFCURVE"
);
},
{
closed = 1;
nodes = (
"328 46 CURVE SMOOTH",
"260 46 LINE",
"358 605 LINE SMOOTH",
"368 660 OFFCURVE",
"399 689 OFFCURVE",
"453 692 CURVE SMOOTH",
"554 696 OFFCURVE",
"594 613 OFFCURVE",
"576 510 CURVE SMOOTH",
"526 223 LINE SMOOTH",
"511 137 OFFCURVE",
"460 46 OFFCURVE"
);
}
);
width = 607;
},
{
layerId = "2E533DD2-9170-4ADE-821A-2C583B05E934";
name = Regular;
paths = (
{
closed = 1;
nodes = (
"180 659 CURVE",
"150 704 LINE",
"73 679 OFFCURVE",
"33 616 OFFCURVE",
"33 516 CURVE SMOOTH",
"33 224 LINE SMOOTH",
"33 103 OFFCURVE",
"95 30 OFFCURVE",
"223 30 CURVE SMOOTH",
"266 30 LINE",
"266 -28 LINE",
"323 -35 LINE",
"323 30 LINE",
"372 30 LINE SMOOTH",
"500 30 OFFCURVE",
"558 103 OFFCURVE",
"558 224 CURVE SMOOTH",
"558 509 LINE SMOOTH",
"558 630 OFFCURVE",
"490 708 OFFCURVE",
"373 708 CURVE SMOOTH",
"311 708 OFFCURVE",
"270 670 OFFCURVE",
"266 603 CURVE",
"266 79 LINE",
"223 79 LINE SMOOTH",
"142 79 OFFCURVE",
"89 127 OFFCURVE",
"89 215 CURVE SMOOTH",
"89 516 LINE SMOOTH",
"89 596 OFFCURVE",
"120 645 OFFCURVE"
);
},
{
closed = 1;
nodes = (
"372 79 CURVE SMOOTH",
"323 79 LINE",
"323 594 LINE SMOOTH",
"323 635 OFFCURVE",
"342 656 OFFCURVE",
"381 656 CURVE SMOOTH",
"453 656 OFFCURVE",
"505 600 OFFCURVE",
"505 519 CURVE SMOOTH",
"505 215 LINE SMOOTH",
"505 127 OFFCURVE",
"453 79 OFFCURVE"
);
}
);
width = 593;
},
{
layerId = "AA3E7E17-FD94-4F30-8DBF-5406C904ABDB";
name = Regular;
paths = (
{
closed = 1;
nodes = (
"246 659 CURVE",
"224 704 LINE",
"142 679 OFFCURVE",
"91 616 OFFCURVE",
"73 516 CURVE SMOOTH",
"22 224 LINE SMOOTH",
"1 103 OFFCURVE",
"50 30 OFFCURVE",
"178 30 CURVE SMOOTH",
"221 30 LINE",
"211 -28 LINE",
"266 -35 LINE",
"278 30 LINE",
"327 30 LINE SMOOTH",
"455 30 OFFCURVE",
"526 103 OFFCURVE",
"547 224 CURVE SMOOTH",
"597 509 LINE SMOOTH",
"618 629 OFFCURVE",
"564 708 OFFCURVE",
"447 708 CURVE SMOOTH",
"385 708 OFFCURVE",
"338 670 OFFCURVE",
"322 603 CURVE",
"229 79 LINE",
"186 79 LINE SMOOTH",
"105 79 OFFCURVE",
"61 127 OFFCURVE",
"76 215 CURVE SMOOTH",
"129 516 LINE SMOOTH",
"144 596 OFFCURVE",
"183 645 OFFCURVE"
);
},
{
closed = 1;
nodes = (
"335 79 CURVE SMOOTH",
"286 79 LINE",
"377 594 LINE SMOOTH",
"384 635 OFFCURVE",
"407 656 OFFCURVE",
"446 656 CURVE SMOOTH",
"520 656 OFFCURVE",
"561 601 OFFCURVE",
"546 519 CURVE SMOOTH",
"492 215 LINE SMOOTH",
"477 127 OFFCURVE",
"416 79 OFFCURVE"
);
}
);
width = 608;
},
{
layerId = "5377DFB6-1026-4380-913C-75FA0B8500B4";
name = Bold;
paths = (
{
closed = 1;
nodes = (
"209 620 CURVE",
"152 705 LINE",
"75 680 OFFCURVE",
"36 617 OFFCURVE",
"36 516 CURVE SMOOTH",
"36 226 LINE SMOOTH",
"36 108 OFFCURVE",
"70 13 OFFCURVE",
"224 13 CURVE SMOOTH",
"241 13 LINE",
"241 -22 LINE",
"351 -35 LINE",
"351 13 LINE",
"374 13 LINE SMOOTH",
"515 13 OFFCURVE",
"561 94 OFFCURVE",
"561 226 CURVE SMOOTH",
"561 510 LINE SMOOTH",
"561 632 OFFCURVE",
"488 710 OFFCURVE",
"376 710 CURVE SMOOTH",
"253 710 OFFCURVE",
"241 636 OFFCURVE",
"241 604 CURVE SMOOTH",
"241 100 LINE",
"224 100 LINE SMOOTH",
"157 100 OFFCURVE",
"146 153 OFFCURVE",
"146 198 CURVE SMOOTH",
"146 516 LINE SMOOTH",
"146 593 OFFCURVE",
"182 609 OFFCURVE"
);
},
{
closed = 1;
nodes = (
"374 100 CURVE SMOOTH",
"351 100 LINE",
"351 543 LINE SMOOTH",
"351 566 OFFCURVE",
"351 599 OFFCURVE",
"389 599 CURVE SMOOTH",
"451 599 OFFCURVE",
"451 526 OFFCURVE",
"451 453 CURVE SMOOTH",
"451 198 LINE SMOOTH",
"451 155 OFFCURVE",
"438 100 OFFCURVE"
);
}
);
width = 597;
},
{
layerId = "BB2AD2B5-E4ED-4CD1-ABDB-8AA4FBC4C564";
name = Bold;
paths = (
{
closed = 1;
nodes = (
"266 620 CURVE",
"224 705 LINE",
"142 680 OFFCURVE",
"92 617 OFFCURVE",
"74 516 CURVE SMOOTH",
"23 226 LINE SMOOTH",
"3 108 OFFCURVE",
"20 13 OFFCURVE",
"174 13 CURVE SMOOTH",
"191 13 LINE",
"185 -22 LINE",
"292 -35 LINE",
"301 13 LINE",
"324 13 LINE SMOOTH",
"465 13 OFFCURVE",
"525 94 OFFCURVE",
"548 226 CURVE SMOOTH",
"598 510 LINE SMOOTH",
"620 632 OFFCURVE",
"563 710 OFFCURVE",
"449 710 CURVE SMOOTH",
"326 710 OFFCURVE",
"301 636 OFFCURVE",
"295 604 CURVE SMOOTH",
"206 100 LINE",
"189 100 LINE SMOOTH",
"122 100 OFFCURVE",
"120 153 OFFCURVE",
"128 198 CURVE SMOOTH",
"184 516 LINE SMOOTH",
"198 593 OFFCURVE",
"237 609 OFFCURVE"
);
},
{
closed = 1;
nodes = (
"339 100 CURVE SMOOTH",
"316 100 LINE",
"394 543 LINE SMOOTH",
"398 566 OFFCURVE",
"404 599 OFFCURVE",
"442 599 CURVE SMOOTH",
"504 599 OFFCURVE",
"498 546 OFFCURVE",
"484 472 CURVE SMOOTH",
"433 198 LINE SMOOTH",
"425 155 OFFCURVE",
"403 100 OFFCURVE"
);
}
);
width = 610;
}
);
leftKerningGroup = Omegagreek;
rightKerningGroup = Omegagreek;
unicode = 03A6;
userData = {
com.typemytype.robofont.mark = (
0.6,
1,
0.694,
1
);
};
},
{
color = (153,255,177,1);
glyphname = Pi;
lastChange = "2018-12-18 00:11:23 +0000";
layers = (
{
layerId = "59B97FCD-418C-4452-9337-EB92ED35D981";
name = Light;
paths = (
{
closed = 1;
nodes = (
"450 0 LINE",
"470 0 LINE",
"470 698 LINE",
"41 698 LINE",
"41 0 LINE",
"61 0 LINE",
"61 678 LINE",
"450 678 LINE"
);
}
);
width = 513;
},
{
layerId = "AC650972-4439-4B3A-A687-B8B0000379A6";
name = Light;
paths = (
{
closed = 1;
nodes = (
"410 0 LINE",
"430 0 LINE",
"553 698 LINE",
"124 698 LINE",
"1 0 LINE",
"21 0 LINE",
"140 678 LINE",
"529 678 LINE"
);
}
);
width = 550;
},
{
layerId = "2E533DD2-9170-4ADE-821A-2C583B05E934";
name = Regular;
paths = (
{
closed = 1;
nodes = (
"413 0 LINE",
"470 0 LINE",
"470 698 LINE",
"41 698 LINE",
"41 0 LINE",
"97 0 LINE",
"97 641 LINE",
"413 641 LINE"
);
}
);
width = 513;
},
{
layerId = "AA3E7E17-FD94-4F30-8DBF-5406C904ABDB";
name = Regular;
paths = (
{
closed = 1;
nodes = (
"372 0 LINE",
"429 0 LINE",
"552 698 LINE",
"123 698 LINE",
"0 0 LINE",
"56 0 LINE",
"169 641 LINE",
"485 641 LINE"
);
}
);
width = 549;
},
{
layerId = "5377DFB6-1026-4380-913C-75FA0B8500B4";
name = Bold;
paths = (
{
closed = 1;
nodes = (
"361 0 LINE",
"471 0 LINE",
"471 698 LINE",
"41 698 LINE",
"41 0 LINE",
"151 0 LINE",
"151 588 LINE",
"361 588 LINE"
);
}
);
width = 514;
},
{
layerId = "BB2AD2B5-E4ED-4CD1-ABDB-8AA4FBC4C564";
name = Bold;
paths = (
{
closed = 1;
nodes = (
"320 0 LINE",
"430 0 LINE",
"553 698 LINE",
"123 698 LINE",
"0 0 LINE",
"110 0 LINE",
"213 588 LINE",
"423 588 LINE"
);
}
);
width = 550;
}
);
leftKerningGroup = H;
rightKerningGroup = H;
unicode = 03A0;
userData = {
com.typemytype.robofont.mark = (
0.6,
1,
0.694,
1
);
};
},
{
color = (153,255,177,1);
glyphname = Psi;
lastChange = "2018-12-18 00:11:23 +0000";
layers = (
{
layerId = "59B97FCD-418C-4452-9337-EB92ED35D981";
name = Light;
paths = (
{
closed = 1;
nodes = (
"51 405 CURVE SMOOTH",
"51 698 LINE",
"31 698 LINE",
"31 405 LINE SMOOTH",
"31 284 OFFCURVE",
"93 212 OFFCURVE",
"219 212 CURVE SMOOTH",
"280 212 LINE",
"280 0 LINE",
"300 0 LINE",
"300 212 LINE",
"370 212 LINE SMOOTH",
"497 212 OFFCURVE",
"556 284 OFFCURVE",
"556 405 CURVE SMOOTH",
"556 598 LINE SMOOTH",
"556 675 OFFCURVE",
"511 703 OFFCURVE",
"501 707 CURVE",
"484 700 LINE",
"506 686 OFFCURVE",
"539 667 OFFCURVE",
"539 597 CURVE SMOOTH",
"539 405 LINE SMOOTH",
"539 293 OFFCURVE",
"481 229 OFFCURVE",
"370 229 CURVE SMOOTH",
"300 229 LINE",
"300 698 LINE",
"280 698 LINE",
"280 229 LINE",
"219 229 LINE SMOOTH",
"116 229 OFFCURVE",
"51 284 OFFCURVE"
);
}
);
width = 589;
},
{
layerId = "AC650972-4439-4B3A-A687-B8B0000379A6";
name = Light;
paths = (
{
closed = 1;
nodes = (
"53 405 CURVE SMOOTH",
"105 698 LINE",
"85 698 LINE",
"33 405 LINE SMOOTH",
"12 284 OFFCURVE",
"61 212 OFFCURVE",
"187 212 CURVE SMOOTH",
"248 212 LINE",
"211 0 LINE",
"231 0 LINE",
"268 212 LINE",
"338 212 LINE SMOOTH",
"465 212 OFFCURVE",
"537 284 OFFCURVE",
"558 405 CURVE SMOOTH",
"592 598 LINE SMOOTH",
"606 675 OFFCURVE",
"565 703 OFFCURVE",
"556 707 CURVE",
"538 700 LINE",
"557 686 OFFCURVE",
"587 667 OFFCURVE",
"575 597 CURVE SMOOTH",
"541 405 LINE SMOOTH",
"521 293 OFFCURVE",
"452 229 OFFCURVE",
"341 229 CURVE SMOOTH",
"271 229 LINE",
"354 698 LINE",
"334 698 LINE",
"251 229 LINE",
"190 229 LINE SMOOTH",
"87 229 OFFCURVE",
"32 284 OFFCURVE"
);
}
);
width = 597;
},
{
layerId = "2E533DD2-9170-4ADE-821A-2C583B05E934";
name = Regular;
paths = (
{
closed = 1;
nodes = (
"87 395 CURVE SMOOTH",
"87 698 LINE",
"31 698 LINE",
"31 405 LINE SMOOTH",
"31 284 OFFCURVE",
"93 212 OFFCURVE",
"219 212 CURVE SMOOTH",
"263 212 LINE",
"263 0 LINE",
"320 0 LINE",
"320 212 LINE",
"370 212 LINE SMOOTH",
"497 212 OFFCURVE",
"556 284 OFFCURVE",
"556 405 CURVE SMOOTH",
"556 548 LINE SMOOTH",
"556 637 OFFCURVE",
"536 682 OFFCURVE",
"500 707 CURVE",
"456 691 LINE",
"456 691 OFFCURVE",
"500 657 OFFCURVE",
"500 562 CURVE SMOOTH",
"500 395 LINE SMOOTH",
"500 307 OFFCURVE",
"449 263 OFFCURVE",
"370 263 CURVE SMOOTH",
"320 263 LINE",
"320 698 LINE",
"263 698 LINE",
"263 263 LINE",
"219 263 LINE SMOOTH",
"139 263 OFFCURVE",
"87 307 OFFCURVE"
);
}
);
width = 589;
},
{
layerId = "AA3E7E17-FD94-4F30-8DBF-5406C904ABDB";
name = Regular;
paths = (
{
closed = 1;
nodes = (
"87 395 CURVE SMOOTH",
"141 698 LINE",
"85 698 LINE",
"33 405 LINE SMOOTH",
"12 284 OFFCURVE",
"61 212 OFFCURVE",
"187 212 CURVE SMOOTH",
"231 212 LINE",
"194 0 LINE",
"251 0 LINE",
"288 212 LINE",
"338 212 LINE SMOOTH",
"465 212 OFFCURVE",
"537 284 OFFCURVE",
"558 405 CURVE SMOOTH",
"583 548 LINE SMOOTH",
"599 637 OFFCURVE",
"587 682 OFFCURVE",
"555 707 CURVE",
"508 691 LINE",
"508 691 OFFCURVE",
"546 657 OFFCURVE",
"530 562 CURVE SMOOTH",
"500 395 LINE SMOOTH",
"485 307 OFFCURVE",
"426 263 OFFCURVE",
"347 263 CURVE SMOOTH",
"297 263 LINE",
"374 698 LINE",
"317 698 LINE",
"240 263 LINE",
"196 263 LINE SMOOTH",
"116 263 OFFCURVE",
"72 307 OFFCURVE"
);
}
);
width = 593;
},
{
layerId = "5377DFB6-1026-4380-913C-75FA0B8500B4";
name = Bold;
paths = (
{
closed = 1;
nodes = (
"141 431 CURVE SMOOTH",
"141 698 LINE",
"32 698 LINE",
"32 406 LINE SMOOTH",
"32 285 OFFCURVE",
"94 213 OFFCURVE",
"220 213 CURVE SMOOTH",
"238 213 LINE",
"238 0 LINE",
"348 0 LINE",
"348 213 LINE",
"371 213 LINE SMOOTH",
"499 213 OFFCURVE",
"558 285 OFFCURVE",
"558 406 CURVE SMOOTH",
"558 548 LINE SMOOTH",
"558 650 OFFCURVE",
"522 697 OFFCURVE",
"503 708 CURVE",
"404 665 LINE",
"407 663 OFFCURVE",
"451 635 OFFCURVE",
"451 563 CURVE SMOOTH",
"451 433 LINE SMOOTH",
"451 340 OFFCURVE",
"431 306 OFFCURVE",
"371 306 CURVE SMOOTH",
"348 306 LINE",
"348 698 LINE",
"238 698 LINE",
"238 306 LINE",
"220 306 LINE SMOOTH",
"157 306 OFFCURVE",
"141 340 OFFCURVE"
);
}
);
width = 592;
},
{
layerId = "BB2AD2B5-E4ED-4CD1-ABDB-8AA4FBC4C564";
name = Bold;
paths = (
{
closed = 1;
nodes = (
"146 431 CURVE SMOOTH",
"194 698 LINE",
"85 698 LINE",
"33 406 LINE SMOOTH",
"12 285 OFFCURVE",
"61 213 OFFCURVE",
"187 213 CURVE SMOOTH",
"205 213 LINE",
"168 0 LINE",
"278 0 LINE",
"315 213 LINE",
"338 213 LINE SMOOTH",
"466 213 OFFCURVE",
"538 285 OFFCURVE",
"559 406 CURVE SMOOTH",
"584 548 LINE SMOOTH",
"602 650 OFFCURVE",
"574 697 OFFCURVE",
"557 708 CURVE",
"451 665 LINE",
"453 663 OFFCURVE",
"492 635 OFFCURVE",
"480 563 CURVE SMOOTH",
"457 433 LINE SMOOTH",
"440 340 OFFCURVE",
"414 306 OFFCURVE",
"354 306 CURVE SMOOTH",
"331 306 LINE",
"401 698 LINE",
"291 698 LINE",
"221 306 LINE",
"203 306 LINE SMOOTH",
"140 306 OFFCURVE",
"130 340 OFFCURVE"
);
}
);
width = 594;
}
);
leftKerningGroup = U;
rightKerningGroup = U;
unicode = 03A8;
userData = {
com.typemytype.robofont.mark = (
0.6,
1,
0.694,
1
);
};
},
{
color = (153,255,177,1);
glyphname = Q;
lastChange = "2018-12-18 00:40:04 +0000";
layers = (
{
components = (
{
name = O;
transform = "{1, 0, 0, 1, 0, 0}";
}
);
layerId = "59B97FCD-418C-4452-9337-EB92ED35D981";
name = Light;
paths = (
{
closed = 1;
nodes = (
"295 -76 OFFCURVE",
"249 -40 OFFCURVE",
"249 43 CURVE",
"249 173 LINE",
"229 173 LINE",
"229 43 LINE",
"229 -52 OFFCURVE",
"281 -96 OFFCURVE",
"389 -96 CURVE",
"391 -76 LINE"
);
}
);
width = 487;
},
{
components = (
{
name = O;
transform = "{1, 0, 0, 1, 0, 0}";
}
);
layerId = "AC650972-4439-4B3A-A687-B8B0000379A6";
name = Light;
paths = (
{
closed = 1;
nodes = (
"236 -76 OFFCURVE",
"196 -40 OFFCURVE",
"211 43 CURVE",
"234 173 LINE",
"214 173 LINE",
"191 43 LINE",
"174 -52 OFFCURVE",
"219 -96 OFFCURVE",
"327 -96 CURVE",
"332 -76 LINE"
);
}
);
width = 512;
},
{
components = (
{
name = O;
transform = "{1, 0, 0, 1, 0, 0}";
}
);
layerId = "2E533DD2-9170-4ADE-821A-2C583B05E934";
name = Regular;
paths = (
{
closed = 1;
nodes = (
"314 -62 OFFCURVE",
"270 -33 OFFCURVE",
"270 50 CURVE",
"270 173 LINE",
"214 173 LINE",
"214 51 LINE",
"214 -61 OFFCURVE",
"272 -107 OFFCURVE",
"389 -107 CURVE",
"395 -61 LINE"
);
}
);
width = 490;
},
{
components = (
{
name = O;
transform = "{1, 0, 0, 1, 0, 0}";
}
);
layerId = "AA3E7E17-FD94-4F30-8DBF-5406C904ABDB";
name = Regular;
paths = (
{
closed = 1;
nodes = (
"257 -62 OFFCURVE",
"218 -33 OFFCURVE",
"232 50 CURVE",
"254 173 LINE",
"198 173 LINE",
"176 51 LINE",
"157 -61 OFFCURVE",
"207 -107 OFFCURVE",
"324 -107 CURVE",
"338 -61 LINE"
);
}
);
width = 514;
},
{
components = (
{
name = O;
transform = "{1, 0, 0, 1, 0, 0}";
}
);
layerId = "5377DFB6-1026-4380-913C-75FA0B8500B4";
name = Bold;
paths = (
{
closed = 1;
nodes = (
"309 -22 OFFCURVE",
"295 0 OFFCURVE",
"295 45 CURVE",
"295 173 LINE",
"197 173 LINE",
"197 31 LINE",
"197 -50 OFFCURVE",
"231 -117 OFFCURVE",
"390 -117 CURVE",
"404 -22 LINE"
);
}
);
width = 493;
},
{
components = (
{
name = O;
transform = "{1, 0, 0, 1, 0, 0}";
}
);
layerId = "BB2AD2B5-E4ED-4CD1-ABDB-8AA4FBC4C564";
name = Bold;
paths = (
{
closed = 1;
nodes = (
"250 -36 OFFCURVE",
"237 -22 OFFCURVE",
"246 42 CURVE",
"273 173 LINE",
"180 173 LINE",
"151 31 LINE",
"136 -50 OFFCURVE",
"166 -117 OFFCURVE",
"329 -117 CURVE",
"360 -36 LINE"
);
}
);
width = 517;
}
);
leftKerningGroup = O;
rightKerningGroup = O;
unicode = 0051;
userData = {
com.typemytype.robofont.mark = (
0.6,
1,
0.694,
1
);
};
},
{
color = (153,255,177,1);
glyphname = R;
lastChange = "2018-12-18 00:41:36 +0000";
layers = (
{
anchors = (
{
name = bottom;
position = "{253, 0}";
},
{
name = top;
position = "{253, 735}";
}
);
layerId = "59B97FCD-418C-4452-9337-EB92ED35D981";
name = Light;
paths = (
{
closed = 1;
nodes = (
"290 698 CURVE SMOOTH",
"41 698 LINE",
"41 0 LINE",
"60 0 LINE",
"60 280 LINE",
"283 280 LINE SMOOTH",
"295 280 OFFCURVE",
"307 282 OFFCURVE",
"319 283 CURVE",
"454 0 LINE",
"474 0 LINE",
"338 285 LINE",
"433 304 OFFCURVE",
"474 374 OFFCURVE",
"474 492 CURVE SMOOTH",
"474 621 OFFCURVE",
"416 698 OFFCURVE"
);
},
{
closed = 1;
nodes = (
"282 299 CURVE SMOOTH",
"60 299 LINE",
"60 678 LINE",
"291 678 LINE SMOOTH",
"406 678 OFFCURVE",
"455 609 OFFCURVE",
"455 492 CURVE SMOOTH",
"455 367 OFFCURVE",
"404 299 OFFCURVE"
);
}
);
width = 507;
},
{
anchors = (
{
name = bottom;
position = "{198, 0}";
},
{
name = top;
position = "{338, 735}";
}
);
layerId = "AC650972-4439-4B3A-A687-B8B0000379A6";
name = Light;
paths = (
{
closed = 1;
nodes = (
"373 698 CURVE SMOOTH",
"124 698 LINE",
"1 0 LINE",
"20 0 LINE",
"69 280 LINE",
"292 280 LINE SMOOTH",
"304 280 OFFCURVE",
"316 282 OFFCURVE",
"328 283 CURVE",
"434 0 LINE",
"454 0 LINE",
"348 285 LINE",
"446 304 OFFCURVE",
"499 374 OFFCURVE",
"520 492 CURVE SMOOTH",
"543 621 OFFCURVE",
"499 698 OFFCURVE"
);
},
{
closed = 1;
nodes = (
"294 299 CURVE SMOOTH",
"72 299 LINE",
"139 678 LINE",
"370 678 LINE SMOOTH",
"485 678 OFFCURVE",
"522 609 OFFCURVE",
"501 492 CURVE SMOOTH",
"479 367 OFFCURVE",
"416 299 OFFCURVE"
);
}
);
width = 536;
},
{
anchors = (
{
name = bottom;
position = "{254, 0}";
},
{
name = top;
position = "{254, 735}";
}
);
layerId = "2E533DD2-9170-4ADE-821A-2C583B05E934";
name = Regular;
paths = (
{
closed = 1;
nodes = (
"276 698 CURVE SMOOTH",
"41 698 LINE",
"41 0 LINE",
"97 0 LINE",
"97 244 LINE",
"276 244 LINE SMOOTH",
"296 244 OFFCURVE",
"315 245 OFFCURVE",
"331 249 CURVE",
"422 0 LINE",
"478 0 LINE",
"382 264 LINE",
"444 294 OFFCURVE",
"474 359 OFFCURVE",
"474 472 CURVE SMOOTH",
"474 643 OFFCURVE",
"403 698 OFFCURVE"
);
},
{
closed = 1;
nodes = (
"281 299 CURVE SMOOTH",
"97 299 LINE",
"97 645 LINE",
"281 645 LINE SMOOTH",
"359 645 OFFCURVE",
"418 613 OFFCURVE",
"418 472 CURVE SMOOTH",
"418 320 OFFCURVE",
"357 299 OFFCURVE"
);
}
);
width = 508;
},
{
anchors = (
{
name = bottom;
position = "{199, 0}";
},
{
name = top;
position = "{339, 735}";
}
);
layerId = "AA3E7E17-FD94-4F30-8DBF-5406C904ABDB";
name = Regular;
paths = (
{
closed = 1;
nodes = (
"358 698 CURVE SMOOTH",
"123 698 LINE",
"0 0 LINE",
"56 0 LINE",
"99 244 LINE",
"278 244 LINE SMOOTH",
"298 244 OFFCURVE",
"317 245 OFFCURVE",
"333 249 CURVE",
"404 0 LINE",
"460 0 LINE",
"387 264 LINE",
"454 294 OFFCURVE",
"496 359 OFFCURVE",
"516 472 CURVE SMOOTH",
"546 643 OFFCURVE",
"485 698 OFFCURVE"
);
},
{
closed = 1;
nodes = (
"292 299 CURVE SMOOTH",
"108 299 LINE",
"169 645 LINE",
"353 645 LINE SMOOTH",
"431 645 OFFCURVE",
"485 613 OFFCURVE",
"460 472 CURVE SMOOTH",
"433 320 OFFCURVE",
"368 299 OFFCURVE"
);
}
);
width = 538;
},
{
anchors = (
{
name = bottom;
position = "{255, 0}";
},
{
name = top;
position = "{255, 735}";
}
);
layerId = "5377DFB6-1026-4380-913C-75FA0B8500B4";
name = Bold;
paths = (
{
closed = 1;
nodes = (
"258 698 CURVE SMOOTH",
"41 698 LINE",
"41 0 LINE",
"151 0 LINE",
"151 195 LINE",
"258 195 LINE SMOOTH",
"270 195 OFFCURVE",
"282 195 OFFCURVE",
"294 196 CURVE",
"363 0 LINE",
"480 0 LINE",
"395 232 LINE",
"443 267 OFFCURVE",
"476 333 OFFCURVE",
"476 451 CURVE SMOOTH",
"476 648 OFFCURVE",
"363 698 OFFCURVE"
);
},
{
closed = 1;
nodes = (
"217 300 CURVE SMOOTH",
"151 300 LINE",
"151 588 LINE",
"217 588 LINE SMOOTH",
"319 588 OFFCURVE",
"365 576 OFFCURVE",
"365 451 CURVE SMOOTH",
"365 317 OFFCURVE",
"320 300 OFFCURVE"
);
}
);
width = 511;
},
{
anchors = (
{
name = bottom;
position = "{200, 0}";
},
{
name = top;
position = "{340, 735}";
}
);
layerId = "BB2AD2B5-E4ED-4CD1-ABDB-8AA4FBC4C564";
name = Bold;
paths = (
{
closed = 1;
nodes = (
"340 698 CURVE SMOOTH",
"123 698 LINE",
"0 0 LINE",
"110 0 LINE",
"144 195 LINE",
"251 195 LINE SMOOTH",
"263 195 OFFCURVE",
"275 195 OFFCURVE",
"287 196 CURVE",
"343 0 LINE",
"459 0 LINE",
"388 232 LINE",
"447 266 OFFCURVE",
"493 333 OFFCURVE",
"514 451 CURVE SMOOTH",
"549 648 OFFCURVE",
"445 698 OFFCURVE"
);
},
{
closed = 1;
nodes = (
"228 300 CURVE SMOOTH",
"162 300 LINE",
"213 588 LINE",
"279 588 LINE SMOOTH",
"381 588 OFFCURVE",
"425 576 OFFCURVE",
"403 451 CURVE SMOOTH",
"379 317 OFFCURVE",
"331 300 OFFCURVE"
);
}
);
width = 540;
}
);
leftKerningGroup = P;
rightKerningGroup = P;
unicode = 0052;
userData = {
com.typemytype.robofont.mark = (
0.6,
1,
0.694,
1
);
};
},
{
color = (153,255,177,1);
glyphname = S;
lastChange = "2018-12-18 00:11:23 +0000";
layers = (
{
anchors = (
{
name = bottom;
position = "{261, 0}";
},
{
name = top;
position = "{261, 735}";
}
);
layerId = "59B97FCD-418C-4452-9337-EB92ED35D981";
name = Light;
paths = (
{
closed = 1;
nodes = (
"427 651 CURVE",
"434 670 LINE",
"389 694 OFFCURVE",
"332 707 OFFCURVE",
"276 707 CURVE SMOOTH",
"222 707 OFFCURVE",
"168 695 OFFCURVE",
"128 669 CURVE SMOOTH",
"87 643 OFFCURVE",
"60 603 OFFCURVE",
"58 547 CURVE SMOOTH",
"53 460 OFFCURVE",
"128 417 OFFCURVE",
"216 381 CURVE SMOOTH",
"253 366 OFFCURVE",
"290 353 OFFCURVE",
"325 338 CURVE SMOOTH",
"407 304 OFFCURVE",
"473 263 OFFCURVE",
"474 178 CURVE SMOOTH",
"475 124 OFFCURVE",
"455 85 OFFCURVE",
"424 57 CURVE SMOOTH",
"382 22 OFFCURVE",
"321 7 OFFCURVE",
"257 7 CURVE SMOOTH",
"192 7 OFFCURVE",
"146 25 OFFCURVE",
"113 48 CURVE SMOOTH",
"56 88 OFFCURVE",
"39 142 OFFCURVE",
"39 142 CURVE",
"25 133 LINE",
"25 133 OFFCURVE",
"42 75 OFFCURVE",
"103 32 CURVE SMOOTH",
"138 8 OFFCURVE",
"188 -12 OFFCURVE",
"257 -12 CURVE SMOOTH",
"333 -12 OFFCURVE",
"396 8 OFFCURVE",
"437 44 CURVE SMOOTH",
"475 76 OFFCURVE",
"496 121 OFFCURVE",
"495 177 CURVE SMOOTH",
"496 268 OFFCURVE",
"420 318 OFFCURVE",
"333 355 CURVE SMOOTH",
"298 371 OFFCURVE",
"260 385 OFFCURVE",
"225 398 CURVE SMOOTH",
"108 444 OFFCURVE",
"77 483 OFFCURVE",
"77 543 CURVE SMOOTH",
"77 594 OFFCURVE",
"106 637 OFFCURVE",
"143 658 CURVE SMOOTH",
"184 682 OFFCURVE",
"232 691 OFFCURVE",
"277 691 CURVE SMOOTH",
"335 690 OFFCURVE",
"391 673 OFFCURVE"
);
}
);
width = 523;
},
{
anchors = (
{
name = bottom;
position = "{187, 0}";
},
{
name = top;
position = "{327, 735}";
}
);
layerId = "AC650972-4439-4B3A-A687-B8B0000379A6";
name = Light;
paths = (
{
closed = 1;
nodes = (
"490 651 CURVE",
"501 670 LINE",
"460 694 OFFCURVE",
"405 707 OFFCURVE",
"349 707 CURVE SMOOTH",
"295 707 OFFCURVE",
"239 695 OFFCURVE",
"194 669 CURVE SMOOTH",
"149 643 OFFCURVE",
"115 603 OFFCURVE",
"103 547 CURVE SMOOTH",
"83 460 OFFCURVE",
"150 417 OFFCURVE",
"232 381 CURVE SMOOTH",
"266 366 OFFCURVE",
"301 353 OFFCURVE",
"333 338 CURVE SMOOTH",
"409 304 OFFCURVE",
"468 263 OFFCURVE",
"454 178 CURVE SMOOTH",
"445 124 OFFCURVE",
"418 85 OFFCURVE",
"383 57 CURVE",
"334 22 OFFCURVE",
"271 7 OFFCURVE",
"207 7 CURVE SMOOTH",
"142 7 OFFCURVE",
"99 25 OFFCURVE",
"70 48 CURVE SMOOTH",
"20 88 OFFCURVE",
"13 142 OFFCURVE",
"13 142 CURVE",
"-3 133 LINE",
"-3 133 OFFCURVE",
"4 75 OFFCURVE",
"57 32 CURVE SMOOTH",
"88 8 OFFCURVE",
"134 -12 OFFCURVE",
"203 -12 CURVE SMOOTH",
"279 -12 OFFCURVE",
"346 8 OFFCURVE",
"393 44 CURVE SMOOTH",
"437 76 OFFCURVE",
"466 121 OFFCURVE",
"475 177 CURVE SMOOTH",
"492 268 OFFCURVE",
"425 318 OFFCURVE",
"344 355 CURVE SMOOTH",
"312 371 OFFCURVE",
"276 385 OFFCURVE",
"244 398 CURVE SMOOTH",
"135 444 OFFCURVE",
"111 483 OFFCURVE",
"121 543 CURVE SMOOTH",
"130 594 OFFCURVE",
"167 637 OFFCURVE",
"208 658 CURVE SMOOTH",
"253 682 OFFCURVE",
"302 691 OFFCURVE",
"347 691 CURVE SMOOTH",
"405 690 OFFCURVE",
"458 673 OFFCURVE"
);
}
);
width = 514;
},
{
anchors = (
{
name = bottom;
position = "{264, 0}";
},
{
name = top;
position = "{264, 735}";
}
);
layerId = "2E533DD2-9170-4ADE-821A-2C583B05E934";
name = Regular;
paths = (
{
closed = 1;
nodes = (
"419 618 CURVE",
"436 670 LINE",
"390 695 OFFCURVE",
"331 708 OFFCURVE",
"273 707 CURVE SMOOTH",
"218 707 OFFCURVE",
"164 693 OFFCURVE",
"125 664 CURVE",
"87 639 OFFCURVE",
"63 599 OFFCURVE",
"60 547 CURVE SMOOTH",
"56 448 OFFCURVE",
"129 402 OFFCURVE",
"213 365 CURVE SMOOTH",
"246 351 OFFCURVE",
"280 339 OFFCURVE",
"312 324 CURVE SMOOTH",
"383 293 OFFCURVE",
"442 254 OFFCURVE",
"438 177 CURVE SMOOTH",
"436 140 OFFCURVE",
"423 112 OFFCURVE",
"402 91 CURVE SMOOTH",
"368 56 OFFCURVE",
"313 42 OFFCURVE",
"258 42 CURVE SMOOTH",
"202 42 OFFCURVE",
"158 62 OFFCURVE",
"129 84 CURVE SMOOTH",
"82 120 OFFCURVE",
"71 159 OFFCURVE",
"71 159 CURVE",
"26 132 LINE",
"26 132 OFFCURVE",
"44 77 OFFCURVE",
"102 35 CURVE SMOOTH",
"138 9 OFFCURVE",
"190 -12 OFFCURVE",
"262 -12 CURVE SMOOTH",
"326 -12 OFFCURVE",
"391 3 OFFCURVE",
"436 43 CURVE SMOOTH",
"473 73 OFFCURVE",
"496 118 OFFCURVE",
"498 179 CURVE SMOOTH",
"502 282 OFFCURVE",
"425 333 OFFCURVE",
"338 373 CURVE SMOOTH",
"303 389 OFFCURVE",
"267 403 OFFCURVE",
"233 417 CURVE SMOOTH",
"167 447 OFFCURVE",
"115 480 OFFCURVE",
"118 541 CURVE SMOOTH",
"119 579 OFFCURVE",
"138 606 OFFCURVE",
"164 625 CURVE SMOOTH",
"193 645 OFFCURVE",
"233 653 OFFCURVE",
"274 653 CURVE SMOOTH",
"324 654 OFFCURVE",
"377 641 OFFCURVE"
);
}
);
width = 528;
},
{
anchors = (
{
name = bottom;
position = "{188, 0}";
},
{
name = top;
position = "{328, 735}";
}
);
layerId = "AA3E7E17-FD94-4F30-8DBF-5406C904ABDB";
name = Regular;
paths = (
{
closed = 1;
nodes = (
"476 618 CURVE",
"503 670 LINE",
"461 695 OFFCURVE",
"404 708 OFFCURVE",
"346 707 CURVE SMOOTH",
"291 707 OFFCURVE",
"235 693 OFFCURVE",
"191 664 CURVE",
"148 639 OFFCURVE",
"117 599 OFFCURVE",
"105 547 CURVE SMOOTH",
"83 448 OFFCURVE",
"148 402 OFFCURVE",
"226 365 CURVE SMOOTH",
"256 351 OFFCURVE",
"288 339 OFFCURVE",
"318 324 CURVE SMOOTH",
"383 293 OFFCURVE",
"435 254 OFFCURVE",
"418 177 CURVE SMOOTH",
"409 140 OFFCURVE",
"391 112 OFFCURVE",
"367 91 CURVE SMOOTH",
"326 56 OFFCURVE",
"276 42 OFFCURVE",
"221 42 CURVE SMOOTH",
"165 42 OFFCURVE",
"117 62 OFFCURVE",
"92 84 CURVE SMOOTH",
"52 120 OFFCURVE",
"48 159 OFFCURVE",
"48 159 CURVE",
"-2 132 LINE",
"-2 132 OFFCURVE",
"10 75 OFFCURVE",
"63 36 CURVE SMOOTH",
"98 10 OFFCURVE",
"149 -12 OFFCURVE",
"215 -12 CURVE SMOOTH",
"279 -12 OFFCURVE",
"341 0 OFFCURVE",
"393 40 CURVE SMOOTH",
"435 70 OFFCURVE",
"465 111 OFFCURVE",
"478 172 CURVE SMOOTH",
"500 275 OFFCURVE",
"440 332 OFFCURVE",
"352 373 CURVE SMOOTH",
"320 388 OFFCURVE",
"281 404 OFFCURVE",
"249 418 CURVE SMOOTH",
"188 448 OFFCURVE",
"146 480 OFFCURVE",
"160 541 CURVE SMOOTH",
"168 579 OFFCURVE",
"193 606 OFFCURVE",
"223 625 CURVE SMOOTH",
"255 645 OFFCURVE",
"297 653 OFFCURVE",
"338 653 CURVE SMOOTH",
"388 654 OFFCURVE",
"439 641 OFFCURVE"
);
}
);
width = 517;
},
{
anchors = (
{
name = bottom;
position = "{272, 0}";
},
{
name = top;
position = "{272, 735}";
}
);
layerId = "5377DFB6-1026-4380-913C-75FA0B8500B4";
name = Bold;
paths = (
{
closed = 1;
nodes = (
"417 574 CURVE",
"450 671 LINE",
"404 695 OFFCURVE",
"346 708 OFFCURVE",
"290 708 CURVE SMOOTH",
"232 708 OFFCURVE",
"175 697 OFFCURVE",
"130 667 CURVE SMOOTH",
"82 635 OFFCURVE",
"62 586 OFFCURVE",
"62 537 CURVE SMOOTH",
"62 428 OFFCURVE",
"150 387 OFFCURVE",
"235 346 CURVE",
"258 337 OFFCURVE",
"281 326 OFFCURVE",
"302 313 CURVE",
"352 286 OFFCURVE",
"392 252 OFFCURVE",
"392 198 CURVE SMOOTH",
"392 167 OFFCURVE",
"378 137 OFFCURVE",
"355 121 CURVE SMOOTH",
"330 102 OFFCURVE",
"295 96 OFFCURVE",
"266 96 CURVE SMOOTH",
"246 96 OFFCURVE",
"210 99 OFFCURVE",
"172 122 CURVE SMOOTH",
"151 135 OFFCURVE",
"131 155 OFFCURVE",
"114 183 CURVE",
"29 127 LINE",
"59 81 OFFCURVE",
"83 55 OFFCURVE",
"117 31 CURVE SMOOTH",
"163 -2 OFFCURVE",
"217 -12 OFFCURVE",
"263 -12 CURVE SMOOTH",
"322 -12 OFFCURVE",
"382 -1 OFFCURVE",
"428 29 CURVE SMOOTH",
"490 69 OFFCURVE",
"515 136 OFFCURVE",
"515 199 CURVE SMOOTH",
"515 297 OFFCURVE",
"448 360 OFFCURVE",
"373 404 CURVE SMOOTH",
"344 422 OFFCURVE",
"313 437 OFFCURVE",
"285 449 CURVE SMOOTH",
"227 475 OFFCURVE",
"185 496 OFFCURVE",
"184 537 CURVE SMOOTH",
"184 559 OFFCURVE",
"194 575 OFFCURVE",
"210 586 CURVE SMOOTH",
"226 598 OFFCURVE",
"254 606 OFFCURVE",
"288 606 CURVE SMOOTH",
"324 606 OFFCURVE",
"369 597 OFFCURVE"
);
}
);
width = 544;
},
{
anchors = (
{
name = bottom;
position = "{196, 0}";
},
{
name = top;
position = "{336, 735}";
}
);
layerId = "BB2AD2B5-E4ED-4CD1-ABDB-8AA4FBC4C564";
name = Bold;
paths = (
{
closed = 1;
nodes = (
"467 574 CURVE",
"517 671 LINE",
"475 695 OFFCURVE",
"419 708 OFFCURVE",
"363 708 CURVE SMOOTH",
"305 708 OFFCURVE",
"246 697 OFFCURVE",
"196 667 CURVE SMOOTH",
"142 635 OFFCURVE",
"115 586 OFFCURVE",
"105 537 CURVE SMOOTH",
"86 442 OFFCURVE",
"170 392 OFFCURVE",
"245 348 CURVE",
"266 335 OFFCURVE",
"287 322 OFFCURVE",
"306 310 CURVE",
"351 283 OFFCURVE",
"385 252 OFFCURVE",
"375 198 CURVE SMOOTH",
"370 167 OFFCURVE",
"351 137 OFFCURVE",
"325 121 CURVE SMOOTH",
"296 102 OFFCURVE",
"260 96 OFFCURVE",
"231 96 CURVE SMOOTH",
"211 96 OFFCURVE",
"176 99 OFFCURVE",
"142 122 CURVE SMOOTH",
"123 135 OFFCURVE",
"100 152 OFFCURVE",
"87 179 CURVE",
"0 127 LINE",
"22 81 OFFCURVE",
"49 56 OFFCURVE",
"82 33 CURVE SMOOTH",
"121 6 OFFCURVE",
"181 -12 OFFCURVE",
"227 -12 CURVE SMOOTH",
"286 -12 OFFCURVE",
"336 -1 OFFCURVE",
"388 29 CURVE SMOOTH",
"457 69 OFFCURVE",
"491 131 OFFCURVE",
"501 194 CURVE SMOOTH",
"516 288 OFFCURVE",
"465 353 OFFCURVE",
"398 397 CURVE",
"372 415 OFFCURVE",
"339 434 OFFCURVE",
"313 449 CURVE SMOOTH",
"261 479 OFFCURVE",
"222 498 OFFCURVE",
"228 539 CURVE SMOOTH",
"232 561 OFFCURVE",
"244 575 OFFCURVE",
"262 586 CURVE SMOOTH",
"280 598 OFFCURVE",
"309 606 OFFCURVE",
"343 606 CURVE SMOOTH",
"379 606 OFFCURVE",
"423 597 OFFCURVE"
);
}
);
width = 533;
}
);
leftKerningGroup = S;
rightKerningGroup = S;
unicode = 0053;
userData = {
com.typemytype.robofont.mark = (
0.6,
1,
0.694,
1
);
};
},
{
color = (153,255,177,1);
glyphname = Sigma;
lastChange = "2018-12-18 00:11:23 +0000";
layers = (
{
layerId = "59B97FCD-418C-4452-9337-EB92ED35D981";
name = Light;
paths = (
{
closed = 1;
nodes = (
"330 20 CURVE SMOOTH",
"59 20 LINE",
"273 382 LINE",
"76 680 LINE",
"459 680 LINE",
"468 700 LINE",
"41 700 LINE",
"250 383 LINE",
"25 0 LINE",
"347 0 LINE SMOOTH",
"426 0 OFFCURVE",
"470 31 OFFCURVE",
"491 106 CURVE",
"471 112 LINE",
"450 37 OFFCURVE",
"410 20 OFFCURVE"
);
}
);
width = 520;
},
{
layerId = "AC650972-4439-4B3A-A687-B8B0000379A6";
name = Light;
paths = (
{
closed = 1;
nodes = (
"297 20 CURVE SMOOTH",
"26 20 LINE",
"304 382 LINE",
"159 680 LINE",
"542 680 LINE",
"555 700 LINE",
"128 700 LINE",
"281 383 LINE",
"-11 0 LINE",
"311 0 LINE SMOOTH",
"390 0 OFFCURVE",
"439 31 OFFCURVE",
"473 106 CURVE",
"454 112 LINE",
"420 37 OFFCURVE",
"377 20 OFFCURVE"
);
}
);
width = 550;
},
{
layerId = "2E533DD2-9170-4ADE-821A-2C583B05E934";
name = Regular;
paths = (
{
closed = 1;
nodes = (
"343 50 CURVE SMOOTH",
"117 50 LINE",
"317 386 LINE",
"141 645 LINE",
"449 645 LINE",
"468 698 LINE",
"41 698 LINE",
"250 384 LINE",
"25 0 LINE",
"347 0 LINE SMOOTH",
"426 0 OFFCURVE",
"470 31 OFFCURVE",
"491 106 CURVE",
"448 121 LINE",
"433 76 OFFCURVE",
"394 50 OFFCURVE"
);
}
);
width = 521;
},
{
layerId = "AA3E7E17-FD94-4F30-8DBF-5406C904ABDB";
name = Regular;
paths = (
{
closed = 1;
nodes = (
"315 50 CURVE SMOOTH",
"89 50 LINE",
"349 386 LINE",
"218 645 LINE",
"526 645 LINE",
"555 698 LINE",
"128 698 LINE",
"281 384 LINE",
"-11 0 LINE",
"311 0 LINE SMOOTH",
"390 0 OFFCURVE",
"439 31 OFFCURVE",
"473 106 CURVE",
"433 121 LINE",
"410 76 OFFCURVE",
"366 50 OFFCURVE"
);
}
);
width = 551;
},
{
layerId = "5377DFB6-1026-4380-913C-75FA0B8500B4";
name = Bold;
paths = (
{
closed = 1;
nodes = (
"316 100 CURVE SMOOTH",
"212 100 LINE",
"381 386 LINE",
"244 588 LINE",
"435 588 LINE",
"469 703 LINE",
"41 703 LINE",
"250 384 LINE",
"25 0 LINE",
"348 0 LINE SMOOTH",
"426 0 OFFCURVE",
"471 31 OFFCURVE",
"492 106 CURVE",
"411 150 LINE",
"397 109 OFFCURVE",
"368 100 OFFCURVE"
);
}
);
width = 523;
},
{
layerId = "BB2AD2B5-E4ED-4CD1-ABDB-8AA4FBC4C564";
name = Bold;
paths = (
{
closed = 1;
nodes = (
"296 100 CURVE SMOOTH",
"192 100 LINE",
"412 386 LINE",
"310 588 LINE",
"501 588 LINE",
"555 703 LINE",
"127 703 LINE",
"280 384 LINE",
"-12 0 LINE",
"311 0 LINE SMOOTH",
"389 0 OFFCURVE",
"439 31 OFFCURVE",
"473 106 CURVE",
"400 150 LINE",
"379 109 OFFCURVE",
"348 100 OFFCURVE"
);
}
);
width = 551;
}
);
leftKerningGroup = E;
rightKerningGroup = E;
unicode = 03A3;
userData = {
com.typemytype.robofont.mark = (
0.6,
1,
0.694,
1
);
};
},
{
color = (153,255,177,1);
glyphname = T;
lastChange = "2018-12-18 00:11:23 +0000";
layers = (
{
anchors = (
{
name = bottom;
position = "{204, 0}";
},
{
name = top;
position = "{204, 735}";
}
);
layerId = "59B97FCD-418C-4452-9337-EB92ED35D981";
name = Light;
paths = (
{
closed = 1;
nodes = (
"210 678 LINE",
"404 678 LINE",
"404 698 LINE",
"2 698 LINE",
"2 678 LINE",
"191 678 LINE",
"192 0 LINE",
"210 0 LINE"
);
}
);
width = 408;
},
{
anchors = (
{
name = bottom;
position = "{127, 0}";
},
{
name = top;
position = "{267, 735}";
}
);
layerId = "AC650972-4439-4B3A-A687-B8B0000379A6";
name = Light;
paths = (
{
closed = 1;
nodes = (
"221 678 LINE",
"415 678 LINE",
"419 698 LINE",
"17 698 LINE",
"13 678 LINE",
"202 678 LINE",
"84 0 LINE",
"102 0 LINE"
);
}
);
width = 395;
},
{
anchors = (
{
name = bottom;
position = "{208, 0}";
},
{
name = top;
position = "{208, 735}";
}
);
layerId = "2E533DD2-9170-4ADE-821A-2C583B05E934";
name = Regular;
paths = (
{
closed = 1;
nodes = (
"232 648 LINE",
"408 648 LINE",
"408 698 LINE",
"7 698 LINE",
"7 648 LINE",
"177 648 LINE",
"177 0 LINE",
"232 0 LINE"
);
}
);
width = 416;
},
{
anchors = (
{
name = bottom;
position = "{132, 0}";
},
{
name = top;
position = "{272, 735}";
}
);
layerId = "AA3E7E17-FD94-4F30-8DBF-5406C904ABDB";
name = Regular;
paths = (
{
closed = 1;
nodes = (
"242 648 LINE",
"418 648 LINE",
"427 698 LINE",
"26 698 LINE",
"17 648 LINE",
"187 648 LINE",
"73 0 LINE",
"128 0 LINE"
);
}
);
width = 405;
},
{
anchors = (
{
name = bottom;
position = "{215, 0}";
},
{
name = top;
position = "{215, 735}";
}
);
layerId = "5377DFB6-1026-4380-913C-75FA0B8500B4";
name = Bold;
paths = (
{
closed = 1;
nodes = (
"268 587 LINE",
"416 587 LINE",
"416 698 LINE",
"13 698 LINE",
"13 587 LINE",
"158 587 LINE",
"158 0 LINE",
"268 0 LINE"
);
}
);
width = 431;
},
{
anchors = (
{
name = bottom;
position = "{140, 0}";
},
{
name = top;
position = "{280, 735}";
}
);
layerId = "BB2AD2B5-E4ED-4CD1-ABDB-8AA4FBC4C564";
name = Bold;
paths = (
{
closed = 1;
nodes = (
"273 587 LINE",
"421 587 LINE",
"441 698 LINE",
"38 698 LINE",
"18 587 LINE",
"163 587 LINE",
"60 0 LINE",
"170 0 LINE"
);
}
);
width = 420;
}
);
leftKerningGroup = T;
rightKerningGroup = T;
unicode = 0054;
userData = {
com.typemytype.robofont.mark = (
0.6,
1,
0.694,
1
);
};
},
{
color = (153,255,177,1);
glyphname = Tbar;
lastChange = "2018-12-18 00:45:38 +0000";
layers = (
{
components = (
{
name = T;
transform = "{1, 0, 0, 1, 23, 0}";
}
);
layerId = "59B97FCD-418C-4452-9337-EB92ED35D981";
name = Light;
paths = (
{
closed = 1;
nodes = (
"25 378 LINE",
"25 359 LINE",
"425 359 LINE",
"425 378 LINE"
);
}
);
width = 457;
},
{
components = (
{
name = T;
transform = "{1, 0, 0, 1, 57, 0}";
}
);
layerId = "AC650972-4439-4B3A-A687-B8B0000379A6";
name = Light;
paths = (
{
closed = 1;
nodes = (
"16 378 LINE",
"13 359 LINE",
"413 359 LINE",
"416 378 LINE"
);
}
);
width = 464;
},
{
components = (
{
name = T;
transform = "{1, 0, 0, 1, 22, 0}";
}
);
layerId = "2E533DD2-9170-4ADE-821A-2C583B05E934";
name = Regular;
paths = (
{
closed = 1;
nodes = (
"29 378 LINE",
"29 322 LINE",
"428 322 LINE",
"428 378 LINE"
);
}
);
width = 463;
},
{
components = (
{
name = T;
transform = "{1, 0, 0, 1, 53, 0}";
}
);
layerId = "AA3E7E17-FD94-4F30-8DBF-5406C904ABDB";
name = Regular;
paths = (
{
closed = 1;
nodes = (
"23 378 LINE",
"13 322 LINE",
"412 322 LINE",
"422 378 LINE"
);
}
);
width = 470;
},
{
components = (
{
name = T;
transform = "{1, 0, 0, 1, 17, 0}";
}
);
layerId = "5377DFB6-1026-4380-913C-75FA0B8500B4";
name = Bold;
paths = (
{
closed = 1;
nodes = (
"32 413 LINE",
"32 323 LINE",
"433 323 LINE",
"433 413 LINE"
);
}
);
width = 470;
},
{
components = (
{
name = T;
transform = "{1, 0, 0, 1, 44, 0}";
}
);
layerId = "BB2AD2B5-E4ED-4CD1-ABDB-8AA4FBC4C564";
name = Bold;
paths = (
{
closed = 1;
nodes = (
"32 413 LINE",
"16 323 LINE",
"417 323 LINE",
"433 413 LINE"
);
}
);
width = 476;
}
);
unicode = 0166;
userData = {
com.typemytype.robofont.mark = (
0.6,
1,
0.694,
1
);
};
},
{
color = (153,255,177,1);
glyphname = Theta;
lastChange = "2018-12-18 00:46:40 +0000";
layers = (
{
layerId = "59B97FCD-418C-4452-9337-EB92ED35D981";
name = Light;
paths = (
{
closed = 1;
nodes = (
"33 506 CURVE SMOOTH",
"33 185 LINE SMOOTH",
"33 56 OFFCURVE",
"126 -11 OFFCURVE",
"243 -11 CURVE SMOOTH",
"368 -11 OFFCURVE",
"451 63 OFFCURVE",
"451 185 CURVE SMOOTH",
"451 505 LINE SMOOTH",
"451 635 OFFCURVE",
"375 714 OFFCURVE",
"245 714 CURVE SMOOTH",
"113 714 OFFCURVE",
"33 642 OFFCURVE"
);
},
{
closed = 1;
nodes = (
"433 508 CURVE SMOOTH",
"433 359 LINE",
"52 359 LINE",
"52 506 LINE SMOOTH",
"52 621 OFFCURVE",
"116 693 OFFCURVE",
"242 693 CURVE SMOOTH",
"369 693 OFFCURVE",
"433 624 OFFCURVE"
);
},
{
closed = 1;
nodes = (
"243 8 CURVE SMOOTH",
"136 8 OFFCURVE",
"52 77 OFFCURVE",
"52 184 CURVE SMOOTH",
"52 339 LINE",
"433 339 LINE",
"433 184 LINE SMOOTH",
"433 66 OFFCURVE",
"350 8 OFFCURVE"
);
}
);
width = 486;
},
{
layerId = "AC650972-4439-4B3A-A687-B8B0000379A6";
name = Light;
paths = (
{
closed = 1;
nodes = (
"77 506 CURVE SMOOTH",
"20 185 LINE SMOOTH",
"-3 56 OFFCURVE",
"79 -11 OFFCURVE",
"196 -11 CURVE SMOOTH",
"321 -11 OFFCURVE",
"417 63 OFFCURVE",
"438 185 CURVE SMOOTH",
"495 505 LINE SMOOTH",
"517 635 OFFCURVE",
"455 714 OFFCURVE",
"325 714 CURVE SMOOTH",
"193 714 OFFCURVE",
"101 642 OFFCURVE"
);
},
{
closed = 1;
nodes = (
"477 508 CURVE SMOOTH",
"451 359 LINE",
"70 359 LINE",
"96 506 LINE SMOOTH",
"116 621 OFFCURVE",
"193 693 OFFCURVE",
"319 693 CURVE SMOOTH",
"446 693 OFFCURVE",
"498 624 OFFCURVE"
);
},
{
closed = 1;
nodes = (
"199 8 CURVE SMOOTH",
"92 8 OFFCURVE",
"20 77 OFFCURVE",
"39 184 CURVE SMOOTH",
"66 339 LINE",
"447 339 LINE",
"420 184 LINE SMOOTH",
"399 66 OFFCURVE",
"306 8 OFFCURVE"
);
}
);
width = 512;
},
{
layerId = "2E533DD2-9170-4ADE-821A-2C583B05E934";
name = Regular;
paths = (
{
closed = 1;
nodes = (
"34 506 CURVE SMOOTH",
"34 185 LINE SMOOTH",
"34 56 OFFCURVE",
"127 -11 OFFCURVE",
"245 -11 CURVE SMOOTH",
"368 -11 OFFCURVE",
"454 64 OFFCURVE",
"454 185 CURVE SMOOTH",
"454 505 LINE SMOOTH",
"454 635 OFFCURVE",
"378 714 OFFCURVE",
"246 714 CURVE SMOOTH",
"114 714 OFFCURVE",
"34 642 OFFCURVE"
);
},
{
closed = 1;
nodes = (
"399 515 CURVE SMOOTH",
"399 358 LINE",
"90 358 LINE",
"90 515 LINE SMOOTH",
"90 612 OFFCURVE",
"151 661 OFFCURVE",
"243 661 CURVE SMOOTH",
"337 661 OFFCURVE",
"399 612 OFFCURVE"
);
},
{
closed = 1;
nodes = (
"243 42 CURVE SMOOTH",
"155 42 OFFCURVE",
"90 90 OFFCURVE",
"90 186 CURVE SMOOTH",
"90 301 LINE",
"399 301 LINE",
"399 186 LINE SMOOTH",
"399 88 OFFCURVE",
"335 42 OFFCURVE"
);
}
);
width = 490;
},
{
layerId = "AA3E7E17-FD94-4F30-8DBF-5406C904ABDB";
name = Regular;
paths = (
{
closed = 1;
nodes = (
"77 506 CURVE SMOOTH",
"20 185 LINE SMOOTH",
"-3 56 OFFCURVE",
"79 -11 OFFCURVE",
"197 -11 CURVE SMOOTH",
"320 -11 OFFCURVE",
"419 64 OFFCURVE",
"440 185 CURVE SMOOTH",
"497 505 LINE SMOOTH",
"519 635 OFFCURVE",
"457 714 OFFCURVE",
"325 714 CURVE SMOOTH",
"193 714 OFFCURVE",
"101 642 OFFCURVE"
);
},
{
closed = 1;
nodes = (
"443 515 CURVE SMOOTH",
"416 358 LINE",
"107 358 LINE",
"134 515 LINE SMOOTH",
"151 612 OFFCURVE",
"221 661 OFFCURVE",
"313 661 CURVE SMOOTH",
"407 661 OFFCURVE",
"460 612 OFFCURVE"
);
},
{
closed = 1;
nodes = (
"204 42 CURVE SMOOTH",
"116 42 OFFCURVE",
"59 90 OFFCURVE",
"76 186 CURVE SMOOTH",
"97 301 LINE",
"406 301 LINE",
"385 186 LINE SMOOTH",
"368 88 OFFCURVE",
"296 42 OFFCURVE"
);
}
);
width = 514;
},
{
layerId = "5377DFB6-1026-4380-913C-75FA0B8500B4";
name = Bold;
paths = (
{
closed = 1;
nodes = (
"36 506 CURVE SMOOTH",
"36 185 LINE SMOOTH",
"36 56 OFFCURVE",
"128 -11 OFFCURVE",
"247 -11 CURVE SMOOTH",
"372 -11 OFFCURVE",
"456 63 OFFCURVE",
"456 185 CURVE SMOOTH",
"456 505 LINE SMOOTH",
"456 636 OFFCURVE",
"380 715 OFFCURVE",
"248 715 CURVE SMOOTH",
"116 715 OFFCURVE",
"36 642 OFFCURVE"
);
},
{
closed = 1;
nodes = (
"346 469 CURVE SMOOTH",
"346 400 LINE",
"146 400 LINE",
"146 470 LINE SMOOTH",
"146 557 OFFCURVE",
"164 596 OFFCURVE",
"246 596 CURVE SMOOTH",
"327 596 OFFCURVE",
"346 554 OFFCURVE"
);
},
{
closed = 1;
nodes = (
"246 101 CURVE SMOOTH",
"177 101 OFFCURVE",
"146 140 OFFCURVE",
"146 204 CURVE SMOOTH",
"146 302 LINE",
"346 302 LINE",
"346 206 LINE SMOOTH",
"346 143 OFFCURVE",
"308 101 OFFCURVE"
);
}
);
width = 493;
},
{
layerId = "BB2AD2B5-E4ED-4CD1-ABDB-8AA4FBC4C564";
name = Bold;
paths = (
{
closed = 1;
nodes = (
"78 506 CURVE SMOOTH",
"21 185 LINE SMOOTH",
"-2 56 OFFCURVE",
"79 -11 OFFCURVE",
"198 -11 CURVE SMOOTH",
"323 -11 OFFCURVE",
"420 63 OFFCURVE",
"441 185 CURVE SMOOTH",
"498 505 LINE SMOOTH",
"521 636 OFFCURVE",
"459 715 OFFCURVE",
"327 715 CURVE SMOOTH",
"195 715 OFFCURVE",
"102 642 OFFCURVE"
);
},
{
closed = 1;
nodes = (
"381 469 CURVE SMOOTH",
"370 400 LINE",
"170 400 LINE",
"181 470 LINE SMOOTH",
"195 557 OFFCURVE",
"222 596 OFFCURVE",
"304 596 CURVE SMOOTH",
"385 596 OFFCURVE",
"395 554 OFFCURVE"
);
},
{
closed = 1;
nodes = (
"216 101 CURVE SMOOTH",
"147 101 OFFCURVE",
"123 140 OFFCURVE",
"134 204 CURVE SMOOTH",
"152 302 LINE",
"352 302 LINE",
"335 206 LINE SMOOTH",
"324 143 OFFCURVE",
"278 101 OFFCURVE"
);
}
);
width = 516;
}
);
leftKerningGroup = O;
rightKerningGroup = O;
unicode = 0398;
userData = {
com.typemytype.robofont.mark = (
0.6,
1,
0.694,
1
);
};
},
{
color = (153,255,177,1);
glyphname = Thorn;
lastChange = "2018-12-18 00:11:23 +0000";
layers = (
{
layerId = "59B97FCD-418C-4452-9337-EB92ED35D981";
name = Light;
paths = (
{
closed = 1;
nodes = (
"368 289 CURVE SMOOTH",
"368 435 LINE",
"365 479 OFFCURVE",
"359 510 OFFCURVE",
"340 542 CURVE SMOOTH",
"315 586 OFFCURVE",
"275 610 OFFCURVE",
"231 620 CURVE SMOOTH",
"177 631 OFFCURVE",
"115 621 OFFCURVE",
"60 597 CURVE",
"60 698 LINE",
"41 698 LINE",
"41 0 LINE",
"60 0 LINE",
"60 119 LINE",
"124 102 OFFCURVE",
"201 100 OFFCURVE",
"257 118 CURVE SMOOTH",
"324 140 OFFCURVE",
"368 191 OFFCURVE"
);
},
{
closed = 1;
nodes = (
"224 602 CURVE SMOOTH",
"265 593 OFFCURVE",
"301 570 OFFCURVE",
"324 532 CURVE SMOOTH",
"340 506 OFFCURVE",
"349 471 OFFCURVE",
"349 429 CURVE SMOOTH",
"349 291 LINE SMOOTH",
"349 215 OFFCURVE",
"326 161 OFFCURVE",
"254 137 CURVE SMOOTH",
"178 112 OFFCURVE",
"85 131 OFFCURVE",
"60 137 CURVE",
"60 574 LINE",
"116 603 OFFCURVE",
"174 612 OFFCURVE"
);
}
);
width = 397;
},
{
layerId = "AC650972-4439-4B3A-A687-B8B0000379A6";
name = Light;
paths = (
{
closed = 1;
nodes = (
"378 289 CURVE SMOOTH",
"404 435 LINE",
"409 479 OFFCURVE",
"408 510 OFFCURVE",
"395 542 CURVE SMOOTH",
"378 586 OFFCURVE",
"342 610 OFFCURVE",
"300 620 CURVE SMOOTH",
"248 631 OFFCURVE",
"184 621 OFFCURVE",
"125 597 CURVE",
"143 698 LINE",
"124 698 LINE",
"1 0 LINE",
"20 0 LINE",
"40 119 LINE",
"101 102 OFFCURVE",
"178 100 OFFCURVE",
"237 118 CURVE SMOOTH",
"308 140 OFFCURVE",
"361 191 OFFCURVE"
);
},
{
closed = 1;
nodes = (
"290 602 CURVE SMOOTH",
"329 593 OFFCURVE",
"361 570 OFFCURVE",
"377 532 CURVE SMOOTH",
"389 506 OFFCURVE",
"392 471 OFFCURVE",
"384 429 CURVE SMOOTH",
"360 291 LINE SMOOTH",
"346 215 OFFCURVE",
"314 161 OFFCURVE",
"238 137 CURVE SMOOTH",
"157 112 OFFCURVE",
"68 131 OFFCURVE",
"44 137 CURVE",
"121 574 LINE",
"182 603 OFFCURVE",
"241 612 OFFCURVE"
);
}
);
width = 412;
},
{
layerId = "2E533DD2-9170-4ADE-821A-2C583B05E934";
name = Regular;
paths = (
{
closed = 1;
nodes = (
"400 289 CURVE SMOOTH",
"400 435 LINE SMOOTH",
"399 479 OFFCURVE",
"391 510 OFFCURVE",
"372 542 CURVE SMOOTH",
"347 586 OFFCURVE",
"307 610 OFFCURVE",
"263 620 CURVE SMOOTH",
"212 631 OFFCURVE",
"150 621 OFFCURVE",
"97 599 CURVE",
"97 698 LINE",
"41 698 LINE",
"41 0 LINE",
"97 0 LINE",
"97 118 LINE",
"160 102 OFFCURVE",
"234 100 OFFCURVE",
"288 118 CURVE SMOOTH",
"357 140 OFFCURVE",
"400 191 OFFCURVE"
);
},
{
closed = 1;
nodes = (
"253 570 CURVE SMOOTH",
"284 562 OFFCURVE",
"310 542 OFFCURVE",
"327 510 CURVE",
"338 486 OFFCURVE",
"346 457 OFFCURVE",
"346 420 CURVE SMOOTH",
"346 301 LINE SMOOTH",
"346 234 OFFCURVE",
"328 188 OFFCURVE",
"276 168 CURVE SMOOTH",
"218 144 OFFCURVE",
"119 165 OFFCURVE",
"97 169 CURVE",
"97 547 LINE",
"143 568 OFFCURVE",
"212 581 OFFCURVE"
);
}
);
width = 430;
},
{
layerId = "AA3E7E17-FD94-4F30-8DBF-5406C904ABDB";
name = Regular;
paths = (
{
closed = 1;
nodes = (
"409 289 CURVE SMOOTH",
"435 435 LINE SMOOTH",
"442 479 OFFCURVE",
"439 510 OFFCURVE",
"426 542 CURVE SMOOTH",
"409 586 OFFCURVE",
"373 610 OFFCURVE",
"331 620 CURVE SMOOTH",
"282 631 OFFCURVE",
"218 621 OFFCURVE",
"161 599 CURVE",
"179 698 LINE",
"123 698 LINE",
"0 0 LINE",
"56 0 LINE",
"76 118 LINE",
"136 102 OFFCURVE",
"210 100 OFFCURVE",
"267 118 CURVE SMOOTH",
"340 140 OFFCURVE",
"392 191 OFFCURVE"
);
},
{
closed = 1;
nodes = (
"312 570 CURVE SMOOTH",
"342 562 OFFCURVE",
"364 542 OFFCURVE",
"375 510 CURVE SMOOTH",
"382 486 OFFCURVE",
"385 457 OFFCURVE",
"379 420 CURVE SMOOTH",
"358 301 LINE SMOOTH",
"346 234 OFFCURVE",
"320 188 OFFCURVE",
"264 168 CURVE SMOOTH",
"202 144 OFFCURVE",
"107 165 OFFCURVE",
"85 169 CURVE",
"152 547 LINE",
"202 568 OFFCURVE",
"273 581 OFFCURVE"
);
}
);
width = 444;
},
{
layerId = "5377DFB6-1026-4380-913C-75FA0B8500B4";
name = Bold;
paths = (
{
closed = 1;
nodes = (
"434 290 CURVE SMOOTH",
"434 435 LINE SMOOTH",
"432 479 OFFCURVE",
"425 510 OFFCURVE",
"406 543 CURVE SMOOTH",
"371 601 OFFCURVE",
"310 626 OFFCURVE",
"249 626 CURVE SMOOTH",
"216 626 OFFCURVE",
"183 619 OFFCURVE",
"151 608 CURVE",
"151 698 LINE",
"41 698 LINE",
"41 0 LINE",
"151 0 LINE",
"151 113 LINE",
"209 102 OFFCURVE",
"269 100 OFFCURVE",
"321 118 CURVE SMOOTH",
"391 140 OFFCURVE",
"434 193 OFFCURVE"
);
},
{
closed = 1;
nodes = (
"237 532 CURVE SMOOTH",
"265 532 OFFCURVE",
"297 520 OFFCURVE",
"312 497 CURVE SMOOTH",
"320 484 OFFCURVE",
"325 468 OFFCURVE",
"325 448 CURVE SMOOTH",
"326 290 LINE SMOOTH",
"326 249 OFFCURVE",
"313 220 OFFCURVE",
"273 208 CURVE SMOOTH",
"238 196 OFFCURVE",
"188 197 OFFCURVE",
"151 206 CURVE",
"151 514 LINE",
"176 524 OFFCURVE",
"210 532 OFFCURVE"
);
}
);
width = 465;
},
{
layerId = "BB2AD2B5-E4ED-4CD1-ABDB-8AA4FBC4C564";
name = Bold;
paths = (
{
closed = 1;
nodes = (
"444 290 CURVE SMOOTH",
"469 435 LINE SMOOTH",
"475 479 OFFCURVE",
"473 510 OFFCURVE",
"460 543 CURVE SMOOTH",
"435 601 OFFCURVE",
"379 626 OFFCURVE",
"318 626 CURVE SMOOTH",
"285 626 OFFCURVE",
"251 619 OFFCURVE",
"217 608 CURVE",
"233 698 LINE",
"123 698 LINE",
"0 0 LINE",
"110 0 LINE",
"129 113 LINE",
"185 102 OFFCURVE",
"245 100 OFFCURVE",
"300 118 CURVE SMOOTH",
"374 140 OFFCURVE",
"427 193 OFFCURVE"
);
},
{
closed = 1;
nodes = (
"289 532 CURVE SMOOTH",
"317 532 OFFCURVE",
"347 520 OFFCURVE",
"358 497 CURVE SMOOTH",
"364 484 OFFCURVE",
"366 468 OFFCURVE",
"362 448 CURVE SMOOTH",
"336 290 LINE SMOOTH",
"328 249 OFFCURVE",
"310 220 OFFCURVE",
"268 208 CURVE SMOOTH",
"231 196 OFFCURVE",
"181 197 OFFCURVE",
"146 206 CURVE",
"200 514 LINE",
"227 524 OFFCURVE",
"262 532 OFFCURVE"
);
}
);
width = 479;
}
);
leftKerningGroup = b;
rightKerningGroup = b;
unicode = 00DE;
userData = {
com.typemytype.robofont.mark = (
0.6,
1,
0.694,
1
);
};
},
{
color = (153,255,177,1);
glyphname = U;
lastChange = "2018-12-18 00:11:23 +0000";
layers = (
{
anchors = (
{
name = ogonek;
position = "{247, 0}";
},
{
name = top;
position = "{248, 735}";
}
);
layerId = "59B97FCD-418C-4452-9337-EB92ED35D981";
name = Light;
paths = (
{
closed = 1;
nodes = (
"456 185 CURVE SMOOTH",
"456 698 LINE",
"437 698 LINE",
"437 184 LINE SMOOTH",
"437 122 OFFCURVE",
"419 78 OFFCURVE",
"382 50 CURVE SMOOTH",
"346 22 OFFCURVE",
"300 8 OFFCURVE",
"248 8 CURVE SMOOTH",
"195 8 OFFCURVE",
"149 23 OFFCURVE",
"112 52 CURVE SMOOTH",
"75 81 OFFCURVE",
"56 125 OFFCURVE",
"56 184 CURVE SMOOTH",
"56 698 LINE",
"38 698 LINE",
"38 185 LINE SMOOTH",
"38 118 OFFCURVE",
"58 68 OFFCURVE",
"99 36 CURVE SMOOTH",
"141 4 OFFCURVE",
"190 -11 OFFCURVE",
"248 -11 CURVE SMOOTH",
"304 -11 OFFCURVE",
"353 4 OFFCURVE",
"394 36 CURVE SMOOTH",
"435 68 OFFCURVE",
"456 118 OFFCURVE"
);
}
);
width = 496;
},
{
anchors = (
{
name = ogonek;
position = "{189, 0}";
},
{
name = top;
position = "{330, 735}";
}
);
layerId = "AC650972-4439-4B3A-A687-B8B0000379A6";
name = Light;
paths = (
{
closed = 1;
nodes = (
"435 185 CURVE SMOOTH",
"526 698 LINE",
"507 698 LINE",
"416 184 LINE SMOOTH",
"405 122 OFFCURVE",
"379 78 OFFCURVE",
"337 50 CURVE SMOOTH",
"296 22 OFFCURVE",
"248 8 OFFCURVE",
"196 8 CURVE SMOOTH",
"143 8 OFFCURVE",
"100 23 OFFCURVE",
"68 52 CURVE SMOOTH",
"36 81 OFFCURVE",
"25 125 OFFCURVE",
"35 184 CURVE SMOOTH",
"126 698 LINE",
"108 698 LINE",
"17 185 LINE SMOOTH",
"5 118 OFFCURVE",
"16 68 OFFCURVE",
"52 36 CURVE SMOOTH",
"88 4 OFFCURVE",
"135 -11 OFFCURVE",
"193 -11 CURVE SMOOTH",
"249 -11 OFFCURVE",
"300 4 OFFCURVE",
"347 36 CURVE SMOOTH",
"393 68 OFFCURVE",
"423 118 OFFCURVE"
);
}
);
width = 521;
},
{
anchors = (
{
name = ogonek;
position = "{247, 0}";
},
{
name = top;
position = "{248, 735}";
}
);
layerId = "2E533DD2-9170-4ADE-821A-2C583B05E934";
name = Regular;
paths = (
{
closed = 1;
nodes = (
"456 185 CURVE SMOOTH",
"456 698 LINE",
"401 698 LINE",
"401 186 LINE SMOOTH",
"401 140 OFFCURVE",
"386 106 OFFCURVE",
"362 81 CURVE SMOOTH",
"335 54 OFFCURVE",
"295 42 OFFCURVE",
"247 42 CURVE SMOOTH",
"205 42 OFFCURVE",
"167 53 OFFCURVE",
"141 74 CURVE SMOOTH",
"110 98 OFFCURVE",
"93 135 OFFCURVE",
"93 186 CURVE SMOOTH",
"93 698 LINE",
"38 698 LINE",
"38 185 LINE SMOOTH",
"38 118 OFFCURVE",
"59 68 OFFCURVE",
"99 36 CURVE SMOOTH",
"141 4 OFFCURVE",
"191 -11 OFFCURVE",
"248 -11 CURVE SMOOTH",
"304 -11 OFFCURVE",
"353 4 OFFCURVE",
"394 36 CURVE SMOOTH",
"435 68 OFFCURVE",
"456 118 OFFCURVE"
);
}
);
width = 496;
},
{
anchors = (
{
name = ogonek;
position = "{189, 0}";
},
{
name = top;
position = "{330, 735}";
}
);
layerId = "AA3E7E17-FD94-4F30-8DBF-5406C904ABDB";
name = Regular;
paths = (
{
closed = 1;
nodes = (
"435 185 CURVE SMOOTH",
"526 698 LINE",
"471 698 LINE",
"380 186 LINE SMOOTH",
"372 140 OFFCURVE",
"351 106 OFFCURVE",
"323 81 CURVE SMOOTH",
"291 54 OFFCURVE",
"249 42 OFFCURVE",
"201 42 CURVE SMOOTH",
"159 42 OFFCURVE",
"123 53 OFFCURVE",
"101 74 CURVE SMOOTH",
"74 98 OFFCURVE",
"63 135 OFFCURVE",
"72 186 CURVE SMOOTH",
"163 698 LINE",
"108 698 LINE",
"17 185 LINE SMOOTH",
"5 118 OFFCURVE",
"17 68 OFFCURVE",
"52 36 CURVE SMOOTH",
"88 4 OFFCURVE",
"136 -11 OFFCURVE",
"193 -11 CURVE SMOOTH",
"249 -11 OFFCURVE",
"300 4 OFFCURVE",
"347 36 CURVE SMOOTH",
"393 68 OFFCURVE",
"423 118 OFFCURVE"
);
}
);
width = 521;
},
{
anchors = (
{
name = ogonek;
position = "{249, 0}";
},
{
name = top;
position = "{249, 735}";
}
);
layerId = "5377DFB6-1026-4380-913C-75FA0B8500B4";
name = Bold;
paths = (
{
closed = 1;
nodes = (
"459 185 CURVE SMOOTH",
"459 698 LINE",
"349 698 LINE",
"349 206 LINE SMOOTH",
"349 172 OFFCURVE",
"338 144 OFFCURVE",
"319 127 CURVE",
"302 110 OFFCURVE",
"278 101 OFFCURVE",
"249 101 CURVE SMOOTH",
"219 101 OFFCURVE",
"196 108 OFFCURVE",
"181 122 CURVE SMOOTH",
"160 140 OFFCURVE",
"149 168 OFFCURVE",
"149 204 CURVE SMOOTH",
"149 698 LINE",
"39 698 LINE",
"39 185 LINE SMOOTH",
"39 118 OFFCURVE",
"61 68 OFFCURVE",
"101 36 CURVE SMOOTH",
"143 5 OFFCURVE",
"193 -11 OFFCURVE",
"250 -11 CURVE SMOOTH",
"307 -11 OFFCURVE",
"357 5 OFFCURVE",
"397 36 CURVE SMOOTH",
"438 68 OFFCURVE",
"459 118 OFFCURVE"
);
}
);
width = 499;
},
{
anchors = (
{
name = ogonek;
position = "{191, 0}";
},
{
name = top;
position = "{331, 735}";
}
);
layerId = "BB2AD2B5-E4ED-4CD1-ABDB-8AA4FBC4C564";
name = Bold;
paths = (
{
closed = 1;
nodes = (
"437 185 CURVE SMOOTH",
"528 698 LINE",
"418 698 LINE",
"331 206 LINE SMOOTH",
"325 172 OFFCURVE",
"309 144 OFFCURVE",
"287 127 CURVE SMOOTH",
"267 110 OFFCURVE",
"241 101 OFFCURVE",
"212 101 CURVE SMOOTH",
"182 101 OFFCURVE",
"161 108 OFFCURVE",
"148 122 CURVE SMOOTH",
"130 140 OFFCURVE",
"124 168 OFFCURVE",
"130 204 CURVE SMOOTH",
"218 698 LINE",
"108 698 LINE",
"17 185 LINE SMOOTH",
"5 118 OFFCURVE",
"18 68 OFFCURVE",
"53 36 CURVE SMOOTH",
"89 5 OFFCURVE",
"137 -11 OFFCURVE",
"194 -11 CURVE SMOOTH",
"251 -11 OFFCURVE",
"303 5 OFFCURVE",
"349 36 CURVE SMOOTH",
"395 68 OFFCURVE",
"425 118 OFFCURVE"
);
}
);
width = 522;
}
);
leftKerningGroup = U;
rightKerningGroup = U;
unicode = 0055;
userData = {
com.typemytype.robofont.mark = (
0.6,
1,
0.694,
1
);
};
},
{
color = (153,255,177,1);
glyphname = V;
lastChange = "2018-12-18 00:11:23 +0000";
layers = (
{
layerId = "59B97FCD-418C-4452-9337-EB92ED35D981";
name = Light;
paths = (
{
closed = 1;
nodes = (
"13 698 LINE",
"242 0 LINE",
"264 0 LINE",
"490 698 LINE",
"471 698 LINE",
"252 26 LINE",
"32 698 LINE"
);
}
);
width = 506;
},
{
layerId = "AC650972-4439-4B3A-A687-B8B0000379A6";
name = Light;
paths = (
{
closed = 1;
nodes = (
"26 698 LINE",
"132 0 LINE",
"154 0 LINE",
"503 698 LINE",
"484 698 LINE",
"146 26 LINE",
"45 698 LINE"
);
}
);
width = 482;
},
{
layerId = "2E533DD2-9170-4ADE-821A-2C583B05E934";
name = Regular;
paths = (
{
closed = 1;
nodes = (
"15 698 LINE",
"215 0 LINE",
"292 0 LINE",
"491 698 LINE",
"432 698 LINE",
"253 69 LINE",
"75 698 LINE"
);
}
);
width = 509;
},
{
layerId = "AA3E7E17-FD94-4F30-8DBF-5406C904ABDB";
name = Regular;
paths = (
{
closed = 1;
nodes = (
"28 698 LINE",
"105 0 LINE",
"182 0 LINE",
"504 698 LINE",
"445 698 LINE",
"155 69 LINE",
"88 698 LINE"
);
}
);
width = 483;
},
{
layerId = "5377DFB6-1026-4380-913C-75FA0B8500B4";
name = Bold;
paths = (
{
closed = 1;
nodes = (
"17 698 LINE",
"192 0 LINE",
"320 0 LINE",
"495 698 LINE",
"368 698 LINE",
"256 216 LINE",
"141 698 LINE"
);
}
);
width = 514;
},
{
layerId = "BB2AD2B5-E4ED-4CD1-ABDB-8AA4FBC4C564";
name = Bold;
paths = (
{
closed = 1;
nodes = (
"31 698 LINE",
"83 0 LINE",
"211 0 LINE",
"509 698 LINE",
"382 698 LINE",
"185 216 LINE",
"155 698 LINE"
);
}
);
width = 489;
}
);
leftKerningGroup = V;
rightKerningGroup = V;
unicode = 0056;
userData = {
com.typemytype.robofont.mark = (
0.6,
1,
0.694,
1
);
};
},
{
color = (153,255,177,1);
glyphname = W;
lastChange = "2018-12-18 00:11:23 +0000";
layers = (
{
anchors = (
{
name = top;
position = "{363, 735}";
}
);
layerId = "59B97FCD-418C-4452-9337-EB92ED35D981";
name = Light;
paths = (
{
closed = 1;
nodes = (
"373 698 LINE",
"352 698 LINE",
"207 36 LINE",
"36 698 LINE",
"15 698 LINE",
"197 0 LINE",
"218 0 LINE",
"363 651 LINE",
"508 0 LINE",
"529 0 LINE",
"709 698 LINE",
"687 698 LINE",
"519 35 LINE"
);
}
);
width = 727;
},
{
anchors = (
{
name = top;
position = "{422, 735}";
}
);
layerId = "AC650972-4439-4B3A-A687-B8B0000379A6";
name = Light;
paths = (
{
closed = 1;
nodes = (
"388 698 LINE",
"367 698 LINE",
"105 36 LINE",
"51 698 LINE",
"30 698 LINE",
"89 0 LINE",
"110 0 LINE",
"369 651 LINE",
"400 0 LINE",
"421 0 LINE",
"724 698 LINE",
"702 698 LINE",
"417 35 LINE"
);
}
);
width = 704;
},
{
anchors = (
{
name = top;
position = "{365, 735}";
}
);
layerId = "2E533DD2-9170-4ADE-821A-2C583B05E934";
name = Regular;
paths = (
{
closed = 1;
nodes = (
"404 698 LINE",
"326 698 LINE",
"219 69 LINE",
"78 698 LINE",
"17 698 LINE",
"182 0 LINE",
"267 0 LINE",
"366 597 LINE",
"464 0 LINE",
"548 0 LINE",
"711 698 LINE",
"652 698 LINE",
"511 69 LINE"
);
}
);
width = 731;
},
{
anchors = (
{
name = top;
position = "{423, 735}";
}
);
layerId = "AA3E7E17-FD94-4F30-8DBF-5406C904ABDB";
name = Regular;
paths = (
{
closed = 1;
nodes = (
"419 698 LINE",
"341 698 LINE",
"123 69 LINE",
"93 698 LINE",
"32 698 LINE",
"74 0 LINE",
"159 0 LINE",
"363 597 LINE",
"356 0 LINE",
"440 0 LINE",
"726 698 LINE",
"667 698 LINE",
"415 69 LINE"
);
}
);
width = 706;
},
{
anchors = (
{
name = top;
position = "{370, 735}";
}
);
layerId = "5377DFB6-1026-4380-913C-75FA0B8500B4";
name = Bold;
paths = (
{
closed = 1;
nodes = (
"409 698 LINE",
"330 698 LINE",
"224 252 LINE",
"141 698 LINE",
"20 698 LINE",
"154 0 LINE",
"282 0 LINE",
"369 353 LINE",
"458 0 LINE",
"582 0 LINE",
"717 698 LINE",
"590 698 LINE",
"515 252 LINE"
);
}
);
width = 740;
},
{
anchors = (
{
name = top;
position = "{427, 735}";
}
);
layerId = "BB2AD2B5-E4ED-4CD1-ABDB-8AA4FBC4C564";
name = Bold;
paths = (
{
closed = 1;
nodes = (
"424 698 LINE",
"345 698 LINE",
"156 214 LINE",
"151 698 LINE",
"36 698 LINE",
"47 0 LINE",
"175 0 LINE",
"324 353 LINE",
"355 0 LINE",
"479 0 LINE",
"733 698 LINE",
"610 698 LINE",
"447 214 LINE"
);
}
);
width = 714;
}
);
leftKerningGroup = V;
rightKerningGroup = V;
unicode = 0057;
userData = {
com.typemytype.robofont.mark = (
0.6,
1,
0.694,
1
);
};
},
{
color = (153,255,177,1);
glyphname = Xi;
lastChange = "2018-12-18 00:11:23 +0000";
layers = (
{
layerId = "59B97FCD-418C-4452-9337-EB92ED35D981";
name = Light;
paths = (
{
closed = 1;
nodes = (
"22 593 CURVE",
"40 586 LINE",
"61 645 OFFCURVE",
"87 678 OFFCURVE",
"167 678 CURVE SMOOTH",
"482 678 LINE",
"491 698 LINE",
"167 698 LINE SMOOTH",
"88 698 OFFCURVE",
"43 668 OFFCURVE"
);
},
{
closed = 1;
nodes = (
"414 342 LINE",
"414 362 LINE",
"148 362 LINE",
"148 342 LINE"
);
},
{
closed = 1;
nodes = (
"385 20 CURVE SMOOTH",
"70 20 LINE",
"62 0 LINE",
"385 0 LINE SMOOTH",
"464 0 OFFCURVE",
"510 31 OFFCURVE",
"530 106 CURVE",
"511 113 LINE",
"491 53 OFFCURVE",
"466 20 OFFCURVE"
);
}
);
width = 559;
},
{
layerId = "AC650972-4439-4B3A-A687-B8B0000379A6";
name = Light;
paths = (
{
closed = 1;
nodes = (
"65 593 CURVE",
"82 586 LINE",
"113 645 OFFCURVE",
"145 678 OFFCURVE",
"225 678 CURVE SMOOTH",
"540 678 LINE",
"553 698 LINE",
"229 698 LINE SMOOTH",
"150 698 OFFCURVE",
"99 668 OFFCURVE"
);
},
{
closed = 1;
nodes = (
"413 342 LINE",
"416 362 LINE",
"150 362 LINE",
"147 342 LINE"
);
},
{
closed = 1;
nodes = (
"327 20 CURVE SMOOTH",
"12 20 LINE",
"1 0 LINE",
"324 0 LINE SMOOTH",
"403 0 OFFCURVE",
"454 31 OFFCURVE",
"487 106 CURVE",
"469 113 LINE",
"439 53 OFFCURVE",
"408 20 OFFCURVE"
);
}
);
width = 555;
},
{
layerId = "2E533DD2-9170-4ADE-821A-2C583B05E934";
name = Regular;
paths = (
{
closed = 1;
nodes = (
"23 593 CURVE",
"66 577 LINE",
"83 625 OFFCURVE",
"116 648 OFFCURVE",
"168 648 CURVE SMOOTH",
"471 648 LINE",
"492 698 LINE",
"168 698 LINE SMOOTH",
"89 698 OFFCURVE",
"44 668 OFFCURVE"
);
},
{
closed = 1;
nodes = (
"415 306 LINE",
"415 362 LINE",
"149 362 LINE",
"149 306 LINE"
);
},
{
closed = 1;
nodes = (
"386 53 CURVE SMOOTH",
"84 53 LINE",
"63 0 LINE",
"386 0 LINE SMOOTH",
"466 0 OFFCURVE",
"511 31 OFFCURVE",
"532 106 CURVE",
"489 122 LINE",
"472 76 OFFCURVE",
"438 53 OFFCURVE"
);
}
);
width = 562;
},
{
layerId = "AA3E7E17-FD94-4F30-8DBF-5406C904ABDB";
name = Regular;
paths = (
{
closed = 1;
nodes = (
"66 593 CURVE",
"106 577 LINE",
"132 625 OFFCURVE",
"169 648 OFFCURVE",
"221 648 CURVE SMOOTH",
"524 648 LINE",
"554 698 LINE",
"230 698 LINE SMOOTH",
"151 698 OFFCURVE",
"100 668 OFFCURVE"
);
},
{
closed = 1;
nodes = (
"407 306 LINE",
"417 362 LINE",
"151 362 LINE",
"141 306 LINE"
);
},
{
closed = 1;
nodes = (
"334 53 CURVE SMOOTH",
"32 53 LINE",
"2 0 LINE",
"325 0 LINE SMOOTH",
"405 0 OFFCURVE",
"455 31 OFFCURVE",
"489 106 CURVE",
"449 122 LINE",
"424 76 OFFCURVE",
"386 53 OFFCURVE"
);
}
);
width = 557;
},
{
layerId = "5377DFB6-1026-4380-913C-75FA0B8500B4";
name = Bold;
paths = (
{
closed = 1;
nodes = (
"24 594 CURVE",
"101 543 LINE",
"113 574 OFFCURVE",
"141 588 OFFCURVE",
"191 588 CURVE SMOOTH",
"473 588 LINE",
"494 698 LINE",
"170 698 LINE SMOOTH",
"90 698 OFFCURVE",
"45 669 OFFCURVE"
);
},
{
closed = 1;
nodes = (
"416 306 LINE",
"416 413 LINE",
"150 413 LINE",
"150 306 LINE"
);
},
{
closed = 1;
nodes = (
"349 100 CURVE SMOOTH",
"95 100 LINE",
"64 0 LINE",
"389 0 LINE SMOOTH",
"468 0 OFFCURVE",
"513 31 OFFCURVE",
"534 106 CURVE",
"441 156 LINE",
"426 112 OFFCURVE",
"402 100 OFFCURVE"
);
}
);
width = 565;
},
{
layerId = "BB2AD2B5-E4ED-4CD1-ABDB-8AA4FBC4C564";
name = Bold;
paths = (
{
closed = 1;
nodes = (
"66 594 CURVE",
"134 543 LINE",
"152 574 OFFCURVE",
"182 588 OFFCURVE",
"232 588 CURVE SMOOTH",
"514 588 LINE",
"555 698 LINE",
"231 698 LINE SMOOTH",
"151 698 OFFCURVE",
"100 669 OFFCURVE"
);
},
{
closed = 1;
nodes = (
"407 306 LINE",
"426 413 LINE",
"160 413 LINE",
"141 306 LINE"
);
},
{
closed = 1;
nodes = (
"304 100 CURVE SMOOTH",
"50 100 LINE",
"2 0 LINE",
"327 0 LINE SMOOTH",
"406 0 OFFCURVE",
"456 31 OFFCURVE",
"490 106 CURVE",
"406 156 LINE",
"383 112 OFFCURVE",
"357 100 OFFCURVE"
);
}
);
width = 559;
}
);
leftKerningGroup = X;
rightKerningGroup = X;
unicode = 039E;
userData = {
com.typemytype.robofont.mark = (
0.6,
1,
0.694,
1
);
};
},
{
color = (153,255,177,1);
glyphname = Y;
lastChange = "2018-12-18 00:11:23 +0000";
layers = (
{
anchors = (
{
name = tonos;
position = "{85, 700}";
},
{
name = top;
position = "{256, 735}";
}
);
layerId = "59B97FCD-418C-4452-9337-EB92ED35D981";
name = Light;
paths = (
{
closed = 1;
nodes = (
"472 145 CURVE SMOOTH",
"472 698 LINE",
"452 698 LINE",
"452 430 LINE SMOOTH",
"452 381 OFFCURVE",
"430 333 OFFCURVE",
"392 304 CURVE SMOOTH",
"357 276 OFFCURVE",
"312 263 OFFCURVE",
"259 263 CURVE SMOOTH",
"189 263 OFFCURVE",
"139 279 OFFCURVE",
"104 311 CURVE SMOOTH",
"67 343 OFFCURVE",
"49 393 OFFCURVE",
"49 457 CURVE SMOOTH",
"49 698 LINE",
"30 698 LINE",
"30 452 LINE SMOOTH",
"30 383 OFFCURVE",
"52 331 OFFCURVE",
"93 296 CURVE SMOOTH",
"132 262 OFFCURVE",
"188 244 OFFCURVE",
"259 244 CURVE SMOOTH",
"381 244 OFFCURVE",
"436 313 OFFCURVE",
"452 350 CURVE",
"452 152 LINE SMOOTH",
"452 42 OFFCURVE",
"400 21 OFFCURVE",
"362 11 CURVE",
"368 -7 LINE",
"437 10 OFFCURVE",
"472 61 OFFCURVE"
);
}
);
width = 513;
},
{
anchors = (
{
name = tonos;
position = "{155, 700}";
},
{
name = top;
position = "{326, 735}";
}
);
layerId = "AC650972-4439-4B3A-A687-B8B0000379A6";
name = Light;
paths = (
{
closed = 1;
nodes = (
"418 145 CURVE SMOOTH",
"516 698 LINE",
"496 698 LINE",
"448 430 LINE SMOOTH",
"440 381 OFFCURVE",
"409 333 OFFCURVE",
"366 304 CURVE SMOOTH",
"326 276 OFFCURVE",
"279 263 OFFCURVE",
"226 263 CURVE SMOOTH",
"156 263 OFFCURVE",
"109 279 OFFCURVE",
"79 311 CURVE SMOOTH",
"48 343 OFFCURVE",
"39 393 OFFCURVE",
"50 457 CURVE SMOOTH",
"93 698 LINE",
"74 698 LINE",
"30 452 LINE SMOOTH",
"18 383 OFFCURVE",
"31 331 OFFCURVE",
"66 296 CURVE SMOOTH",
"99 262 OFFCURVE",
"152 244 OFFCURVE",
"223 244 CURVE SMOOTH",
"345 244 OFFCURVE",
"412 313 OFFCURVE",
"434 350 CURVE",
"399 152 LINE SMOOTH",
"380 42 OFFCURVE",
"324 21 OFFCURVE",
"284 11 CURVE",
"287 -7 LINE",
"359 10 OFFCURVE",
"403 61 OFFCURVE"
);
}
);
width = 512;
},
{
anchors = (
{
name = tonos;
position = "{85, 700}";
},
{
name = top;
position = "{256, 735}";
}
);
layerId = "2E533DD2-9170-4ADE-821A-2C583B05E934";
name = Regular;
paths = (
{
closed = 1;
nodes = (
"472 155 CURVE SMOOTH",
"472 698 LINE",
"416 698 LINE",
"416 422 LINE SMOOTH",
"416 380 OFFCURVE",
"391 339 OFFCURVE",
"352 319 CURVE SMOOTH",
"325 306 OFFCURVE",
"290 299 OFFCURVE",
"249 299 CURVE SMOOTH",
"205 299 OFFCURVE",
"165 310 OFFCURVE",
"132 334 CURVE",
"100 360 OFFCURVE",
"86 395 OFFCURVE",
"86 451 CURVE SMOOTH",
"86 698 LINE",
"30 698 LINE",
"30 462 LINE SMOOTH",
"30 381 OFFCURVE",
"50 330 OFFCURVE",
"92 295 CURVE SMOOTH",
"132 260 OFFCURVE",
"188 241 OFFCURVE",
"259 244 CURVE SMOOTH",
"349 250 OFFCURVE",
"398 285 OFFCURVE",
"416 305 CURVE",
"416 152 LINE SMOOTH",
"416 86 OFFCURVE",
"396 45 OFFCURVE",
"355 30 CURVE",
"368 -7 LINE",
"435 2 OFFCURVE",
"472 58 OFFCURVE"
);
}
);
width = 513;
},
{
anchors = (
{
name = tonos;
position = "{155, 700}";
},
{
name = top;
position = "{326, 735}";
}
);
layerId = "AA3E7E17-FD94-4F30-8DBF-5406C904ABDB";
name = Regular;
paths = (
{
closed = 1;
nodes = (
"420 155 CURVE SMOOTH",
"516 698 LINE",
"460 698 LINE",
"411 422 LINE SMOOTH",
"404 380 OFFCURVE",
"371 339 OFFCURVE",
"329 319 CURVE SMOOTH",
"299 306 OFFCURVE",
"263 299 OFFCURVE",
"222 299 CURVE SMOOTH",
"178 299 OFFCURVE",
"140 310 OFFCURVE",
"111 334 CURVE",
"84 360 OFFCURVE",
"76 395 OFFCURVE",
"86 451 CURVE SMOOTH",
"130 698 LINE",
"74 698 LINE",
"32 462 LINE SMOOTH",
"18 381 OFFCURVE",
"29 330 OFFCURVE",
"65 295 CURVE SMOOTH",
"98 260 OFFCURVE",
"151 241 OFFCURVE",
"223 244 CURVE SMOOTH",
"314 250 OFFCURVE",
"369 285 OFFCURVE",
"390 305 CURVE",
"363 152 LINE SMOOTH",
"352 86 OFFCURVE",
"324 45 OFFCURVE",
"281 30 CURVE",
"287 -7 LINE",
"356 2 OFFCURVE",
"403 58 OFFCURVE"
);
}
);
width = 512;
},
{
anchors = (
{
name = tonos;
position = "{86, 700}";
},
{
name = top;
position = "{259, 735}";
}
);
layerId = "5377DFB6-1026-4380-913C-75FA0B8500B4";
name = Bold;
paths = (
{
closed = 1;
nodes = (
"477 156 CURVE SMOOTH",
"477 698 LINE",
"367 698 LINE",
"367 405 LINE SMOOTH",
"367 375 OFFCURVE",
"353 346 OFFCURVE",
"334 328 CURVE SMOOTH",
"314 310 OFFCURVE",
"290 300 OFFCURVE",
"262 300 CURVE SMOOTH",
"226 300 OFFCURVE",
"195 309 OFFCURVE",
"176 327 CURVE SMOOTH",
"153 348 OFFCURVE",
"142 380 OFFCURVE",
"142 422 CURVE SMOOTH",
"142 698 LINE",
"32 698 LINE",
"32 413 LINE SMOOTH",
"32 345 OFFCURVE",
"53 293 OFFCURVE",
"95 254 CURVE SMOOTH",
"141 210 OFFCURVE",
"196 198 OFFCURVE",
"255 198 CURVE SMOOTH",
"322 201 OFFCURVE",
"367 237 OFFCURVE",
"367 237 CURVE",
"367 164 LINE SMOOTH",
"367 94 OFFCURVE",
"335 70 OFFCURVE",
"291 65 CURVE",
"326 -19 LINE",
"435 -8 OFFCURVE",
"477 51 OFFCURVE"
);
}
);
width = 518;
},
{
anchors = (
{
name = tonos;
position = "{156, 700}";
},
{
name = top;
position = "{330, 735}";
}
);
layerId = "BB2AD2B5-E4ED-4CD1-ABDB-8AA4FBC4C564";
name = Bold;
paths = (
{
closed = 1;
nodes = (
"429 156 CURVE SMOOTH",
"525 698 LINE",
"415 698 LINE",
"363 405 LINE SMOOTH",
"358 375 OFFCURVE",
"339 346 OFFCURVE",
"316 328 CURVE SMOOTH",
"293 310 OFFCURVE",
"267 300 OFFCURVE",
"239 300 CURVE SMOOTH",
"203 300 OFFCURVE",
"174 309 OFFCURVE",
"158 327 CURVE SMOOTH",
"139 348 OFFCURVE",
"134 380 OFFCURVE",
"141 422 CURVE SMOOTH",
"190 698 LINE",
"80 698 LINE",
"29 413 LINE SMOOTH",
"17 345 OFFCURVE",
"29 293 OFFCURVE",
"64 254 CURVE SMOOTH",
"103 210 OFFCURVE",
"155 198 OFFCURVE",
"214 198 CURVE SMOOTH",
"282 201 OFFCURVE",
"333 237 OFFCURVE",
"333 237 CURVE",
"320 164 LINE SMOOTH",
"308 94 OFFCURVE",
"272 70 OFFCURVE",
"227 65 CURVE",
"247 -19 LINE",
"358 -8 OFFCURVE",
"410 51 OFFCURVE"
);
}
);
width = 520;
}
);
leftKerningGroup = Y;
rightKerningGroup = Y;
unicode = 0059;
userData = {
com.typemytype.robofont.mark = (
0.6,
1,
0.694,
1
);
};
},
{
color = (153,255,177,1);
glyphname = Y_upper_alt;
lastChange = "2018-12-18 00:11:23 +0000";
layers = (
{
layerId = "59B97FCD-418C-4452-9337-EB92ED35D981";
name = Light;
paths = (
{
closed = 1;
nodes = (
"248 341 LINE",
"475 698 LINE",
"452 698 LINE",
"239 361 LINE",
"28 698 LINE",
"5 698 LINE",
"230 341 LINE",
"230 0 LINE",
"248 0 LINE"
);
}
);
width = 482;
},
{
layerId = "AC650972-4439-4B3A-A687-B8B0000379A6";
name = Light;
paths = (
{
closed = 1;
nodes = (
"196 341 LINE",
"486 698 LINE",
"463 698 LINE",
"190 361 LINE",
"39 698 LINE",
"16 698 LINE",
"178 341 LINE",
"118 0 LINE",
"136 0 LINE"
);
}
);
width = 462;
},
{
layerId = "2E533DD2-9170-4ADE-821A-2C583B05E934";
name = Regular;
paths = (
{
closed = 1;
nodes = (
"269 341 LINE",
"477 698 LINE",
"413 698 LINE",
"240 405 LINE",
"69 698 LINE",
"6 698 LINE",
"213 339 LINE",
"213 0 LINE",
"269 0 LINE"
);
}
);
width = 485;
},
{
layerId = "AA3E7E17-FD94-4F30-8DBF-5406C904ABDB";
name = Regular;
paths = (
{
closed = 1;
nodes = (
"218 341 LINE",
"489 698 LINE",
"425 698 LINE",
"200 405 LINE",
"81 698 LINE",
"18 698 LINE",
"161 339 LINE",
"102 0 LINE",
"158 0 LINE"
);
}
);
width = 465;
},
{
layerId = "5377DFB6-1026-4380-913C-75FA0B8500B4";
name = Bold;
paths = (
{
closed = 1;
nodes = (
"301 315 LINE",
"481 698 LINE",
"364 698 LINE",
"245 433 LINE",
"126 698 LINE",
"10 698 LINE",
"189 315 LINE",
"189 0 LINE",
"301 0 LINE"
);
}
);
width = 493;
},
{
layerId = "BB2AD2B5-E4ED-4CD1-ABDB-8AA4FBC4C564";
name = Bold;
paths = (
{
closed = 1;
nodes = (
"245 315 LINE",
"493 698 LINE",
"376 698 LINE",
"210 433 LINE",
"138 698 LINE",
"22 698 LINE",
"133 315 LINE",
"78 0 LINE",
"190 0 LINE"
);
}
);
width = 469;
}
);
unicode = 9997;
userData = {
com.typemytype.robofont.mark = (
0.6,
1,
0.694,
1
);
};
},
{
color = (153,255,177,1);
glyphname = Z;
lastChange = "2018-12-18 00:11:23 +0000";
layers = (
{
anchors = (
{
name = top;
position = "{269, 735}";
}
);
layerId = "59B97FCD-418C-4452-9337-EB92ED35D981";
name = Light;
paths = (
{
closed = 1;
nodes = (
"506 698 LINE",
"39 698 LINE",
"40 679 LINE",
"482 679 LINE",
"27 19 LINE",
"27 0 LINE",
"512 0 LINE",
"512 19 LINE",
"50 19 LINE",
"506 679 LINE"
);
}
);
width = 539;
},
{
anchors = (
{
name = top;
position = "{359, 735}";
}
);
layerId = "AC650972-4439-4B3A-A687-B8B0000379A6";
name = Light;
paths = (
{
closed = 1;
nodes = (
"592 698 LINE",
"125 698 LINE",
"122 679 LINE",
"564 679 LINE",
"-7 19 LINE",
"-10 0 LINE",
"475 0 LINE",
"478 19 LINE",
"16 19 LINE",
"588 679 LINE"
);
}
);
width = 578;
},
{
anchors = (
{
name = top;
position = "{272, 735}";
}
);
layerId = "2E533DD2-9170-4ADE-821A-2C583B05E934";
name = Regular;
paths = (
{
closed = 1;
nodes = (
"509 698 LINE",
"41 698 LINE",
"41 647 LINE",
"437 647 LINE",
"29 50 LINE",
"29 0 LINE",
"514 0 LINE",
"514 51 LINE",
"99 51 LINE",
"509 648 LINE"
);
}
);
width = 545;
},
{
anchors = (
{
name = top;
position = "{362, 735}";
}
);
layerId = "AA3E7E17-FD94-4F30-8DBF-5406C904ABDB";
name = Regular;
paths = (
{
closed = 1;
nodes = (
"595 698 LINE",
"127 698 LINE",
"118 647 LINE",
"514 647 LINE",
"0 50 LINE",
"-8 0 LINE",
"477 0 LINE",
"485 51 LINE",
"70 51 LINE",
"586 648 LINE"
);
}
);
width = 584;
},
{
anchors = (
{
name = top;
position = "{278, 735}";
}
);
layerId = "5377DFB6-1026-4380-913C-75FA0B8500B4";
name = Bold;
paths = (
{
closed = 1;
nodes = (
"514 698 LINE",
"46 698 LINE",
"46 588 LINE",
"375 588 LINE",
"32 101 LINE",
"32 0 LINE",
"520 0 LINE",
"520 105 LINE",
"170 105 LINE",
"514 588 LINE"
);
}
);
width = 556;
},
{
anchors = (
{
name = top;
position = "{366, 735}";
}
);
layerId = "BB2AD2B5-E4ED-4CD1-ABDB-8AA4FBC4C564";
name = Bold;
paths = (
{
closed = 1;
nodes = (
"599 698 LINE",
"131 698 LINE",
"111 588 LINE",
"440 588 LINE",
"11 101 LINE",
"-6 0 LINE",
"482 0 LINE",
"500 105 LINE",
"150 105 LINE",
"579 588 LINE"
);
}
);
width = 592;
}
);
leftKerningGroup = Z;
rightKerningGroup = Z;
unicode = 005A;
userData = {
com.typemytype.robofont.mark = (
0.6,
1,
0.694,
1
);
};
},
{
color = (153,255,177,1);
glyphname = Zeta;
lastChange = "2018-12-18 00:11:23 +0000";
layers = (
{
layerId = "59B97FCD-418C-4452-9337-EB92ED35D981";
name = Light;
paths = (
{
closed = 1;
nodes = (
"506 698 LINE",
"40 698 LINE",
"41 679 LINE",
"482 679 LINE",
"27 19 LINE",
"27 0 LINE",
"513 0 LINE",
"513 19 LINE",
"51 19 LINE",
"506 679 LINE"
);
}
);
width = 540;
},
{
layerId = "AC650972-4439-4B3A-A687-B8B0000379A6";
name = Light;
paths = (
{
closed = 1;
nodes = (
"592 698 LINE",
"126 698 LINE",
"123 679 LINE",
"564 679 LINE",
"-7 19 LINE",
"-10 0 LINE",
"476 0 LINE",
"479 19 LINE",
"17 19 LINE",
"588 679 LINE"
);
}
);
width = 579;
},
{
layerId = "2E533DD2-9170-4ADE-821A-2C583B05E934";
name = Regular;
paths = (
{
closed = 1;
nodes = (
"509 698 LINE",
"42 698 LINE",
"42 647 LINE",
"438 647 LINE",
"29 50 LINE",
"29 0 LINE",
"515 0 LINE",
"515 51 LINE",
"101 51 LINE",
"509 648 LINE"
);
}
);
width = 546;
},
{
layerId = "AA3E7E17-FD94-4F30-8DBF-5406C904ABDB";
name = Regular;
paths = (
{
closed = 1;
nodes = (
"595 698 LINE",
"128 698 LINE",
"119 647 LINE",
"515 647 LINE",
"0 50 LINE",
"-8 0 LINE",
"478 0 LINE",
"486 51 LINE",
"72 51 LINE",
"586 648 LINE"
);
}
);
width = 584;
},
{
layerId = "5377DFB6-1026-4380-913C-75FA0B8500B4";
name = Bold;
paths = (
{
closed = 1;
nodes = (
"513 698 LINE",
"46 698 LINE",
"46 588 LINE",
"375 588 LINE",
"32 101 LINE",
"32 0 LINE",
"520 0 LINE",
"520 105 LINE",
"170 105 LINE",
"513 588 LINE"
);
}
);
width = 555;
},
{
layerId = "BB2AD2B5-E4ED-4CD1-ABDB-8AA4FBC4C564";
name = Bold;
paths = (
{
closed = 1;
nodes = (
"598 698 LINE",
"131 698 LINE",
"111 588 LINE",
"440 588 LINE",
"11 101 LINE",
"-6 0 LINE",
"482 0 LINE",
"500 105 LINE",
"150 105 LINE",
"578 588 LINE"
);
}
);
width = 591;
}
);
leftKerningGroup = Z;
rightKerningGroup = Z;
unicode = 0396;
userData = {
com.typemytype.robofont.mark = (
0.6,
1,
0.694,
1
);
};
},
{
color = (153,255,177,1);
glyphname = a;
lastChange = "2018-12-18 00:11:23 +0000";
layers = (
{
anchors = (
{
name = ogonek;
position = "{222, 0}";
},
{
name = top;
position = "{222, 545}";
}
);
layerId = "59B97FCD-418C-4452-9337-EB92ED35D981";
name = Light;
paths = (
{
closed = 1;
nodes = (
"390 345 CURVE",
"330 374 OFFCURVE",
"259 403 OFFCURVE",
"186 403 CURVE SMOOTH",
"52 403 OFFCURVE",
"25 315 OFFCURVE",
"25 251 CURVE",
"25 251 OFFCURVE",
"25 168 OFFCURVE",
"25 168 CURVE",
"25 50 OFFCURVE",
"84 -10 OFFCURVE",
"229 -10 CURVE SMOOTH",
"270 -10 OFFCURVE",
"409 0 OFFCURVE",
"409 0 CURVE",
"409 0 OFFCURVE",
"409 212 OFFCURVE",
"409 335 CURVE SMOOTH",
"409 395 OFFCURVE",
"389 441 OFFCURVE",
"348 470 CURVE SMOOTH",
"314 495 OFFCURVE",
"266 507 OFFCURVE",
"201 507 CURVE",
"200 488 LINE",
"268 488 OFFCURVE",
"305 477 OFFCURVE",
"335 457 CURVE SMOOTH",
"371 431 OFFCURVE",
"390 392 OFFCURVE"
);
},
{
closed = 1;
nodes = (
"390 322 CURVE",
"390 322 OFFCURVE",
"390 18 OFFCURVE",
"390 18 CURVE",
"390 18 OFFCURVE",
"275 8 OFFCURVE",
"229 8 CURVE SMOOTH",
"73 4 OFFCURVE",
"43 90 OFFCURVE",
"43 162 CURVE SMOOTH",
"43 185 OFFCURVE",
"43 221 OFFCURVE",
"43 249 CURVE SMOOTH",
"43 323 OFFCURVE",
"82 383 OFFCURVE",
"185 383 CURVE SMOOTH",
"258 383 OFFCURVE",
"319 358 OFFCURVE"
);
}
);
width = 444;
},
{
anchors = (
{
name = ogonek;
position = "{153, 0}";
},
{
name = top;
position = "{294, 545}";
}
);
layerId = "AC650972-4439-4B3A-A687-B8B0000379A6";
name = Light;
paths = (
{
closed = 1;
nodes = (
"408 345 CURVE",
"353 374 OFFCURVE",
"288 403 OFFCURVE",
"215 403 CURVE SMOOTH",
"81 403 OFFCURVE",
"38 315 OFFCURVE",
"27 251 CURVE",
"27 251 OFFCURVE",
"12 168 OFFCURVE",
"12 168 CURVE",
"-9 50 OFFCURVE",
"40 -10 OFFCURVE",
"185 -10 CURVE SMOOTH",
"226 -10 OFFCURVE",
"367 0 OFFCURVE",
"367 0 CURVE",
"367 0 OFFCURVE",
"404 212 OFFCURVE",
"426 335 CURVE SMOOTH",
"436 395 OFFCURVE",
"424 441 OFFCURVE",
"388 470 CURVE SMOOTH",
"359 495 OFFCURVE",
"313 507 OFFCURVE",
"248 507 CURVE",
"244 488 LINE",
"312 488 OFFCURVE",
"347 477 OFFCURVE",
"373 457 CURVE SMOOTH",
"404 431 OFFCURVE",
"417 392 OFFCURVE"
);
},
{
closed = 1;
nodes = (
"404 322 CURVE",
"404 322 OFFCURVE",
"351 18 OFFCURVE",
"351 18 CURVE",
"351 18 OFFCURVE",
"234 8 OFFCURVE",
"188 8 CURVE SMOOTH",
"31 4 OFFCURVE",
"16 90 OFFCURVE",
"29 162 CURVE SMOOTH",
"33 185 OFFCURVE",
"39 221 OFFCURVE",
"44 249 CURVE SMOOTH",
"57 323 OFFCURVE",
"107 383 OFFCURVE",
"210 383 CURVE SMOOTH",
"283 383 OFFCURVE",
"340 358 OFFCURVE"
);
}
);
width = 449;
},
{
anchors = (
{
name = ogonek;
position = "{222, 0}";
},
{
name = top;
position = "{223, 545}";
}
);
layerId = "2E533DD2-9170-4ADE-821A-2C583B05E934";
name = Regular;
paths = (
{
closed = 1;
nodes = (
"354 349 CURVE",
"307 375 OFFCURVE",
"244 402 OFFCURVE",
"179 402 CURVE SMOOTH",
"98 402 OFFCURVE",
"26 363 OFFCURVE",
"26 251 CURVE SMOOTH",
"26 223 OFFCURVE",
"26 196 OFFCURVE",
"26 168 CURVE SMOOTH",
"26 21 OFFCURVE",
"124 -14 OFFCURVE",
"252 -10 CURVE SMOOTH",
"302 -9 OFFCURVE",
"410 0 OFFCURVE",
"410 0 CURVE",
"410 96 OFFCURVE",
"410 191 OFFCURVE",
"410 287 CURVE SMOOTH",
"410 375 OFFCURVE",
"402 444 OFFCURVE",
"339 480 CURVE SMOOTH",
"297 504 OFFCURVE",
"248 507 OFFCURVE",
"202 507 CURVE",
"200 464 LINE",
"237 464 OFFCURVE",
"271 461 OFFCURVE",
"296 449 CURVE SMOOTH",
"333 432 OFFCURVE",
"354 404 OFFCURVE"
);
},
{
closed = 1;
nodes = (
"354 302 CURVE",
"354 217 OFFCURVE",
"354 132 OFFCURVE",
"354 46 CURVE",
"354 46 OFFCURVE",
"313 42 OFFCURVE",
"248 38 CURVE SMOOTH",
"115 33 OFFCURVE",
"81 80 OFFCURVE",
"81 175 CURVE SMOOTH",
"81 195 OFFCURVE",
"81 226 OFFCURVE",
"81 249 CURVE SMOOTH",
"81 339 OFFCURVE",
"138 354 OFFCURVE",
"174 354 CURVE SMOOTH",
"238 354 OFFCURVE",
"299 329 OFFCURVE"
);
}
);
width = 446;
},
{
anchors = (
{
name = ogonek;
position = "{155, 0}";
},
{
name = top;
position = "{296, 545}";
}
);
layerId = "AA3E7E17-FD94-4F30-8DBF-5406C904ABDB";
name = Regular;
paths = (
{
closed = 1;
nodes = (
"375 349 CURVE",
"333 375 OFFCURVE",
"274 402 OFFCURVE",
"209 402 CURVE SMOOTH",
"128 402 OFFCURVE",
"50 363 OFFCURVE",
"30 251 CURVE SMOOTH",
"25 223 OFFCURVE",
"20 196 OFFCURVE",
"15 168 CURVE SMOOTH",
"-11 21 OFFCURVE",
"81 -14 OFFCURVE",
"210 -10 CURVE SMOOTH",
"260 -9 OFFCURVE",
"370 0 OFFCURVE",
"370 0 CURVE",
"386 96 OFFCURVE",
"403 191 OFFCURVE",
"420 287 CURVE SMOOTH",
"436 375 OFFCURVE",
"440 444 OFFCURVE",
"383 480 CURVE SMOOTH",
"345 504 OFFCURVE",
"297 507 OFFCURVE",
"251 507 CURVE",
"241 464 LINE",
"278 464 OFFCURVE",
"312 461 OFFCURVE",
"335 449 CURVE SMOOTH",
"369 432 OFFCURVE",
"385 404 OFFCURVE"
);
},
{
closed = 1;
nodes = (
"367 302 CURVE",
"352 217 OFFCURVE",
"337 132 OFFCURVE",
"322 46 CURVE",
"322 46 OFFCURVE",
"280 42 OFFCURVE",
"214 38 CURVE SMOOTH",
"80 33 OFFCURVE",
"55 80 OFFCURVE",
"71 175 CURVE SMOOTH",
"75 195 OFFCURVE",
"80 226 OFFCURVE",
"84 249 CURVE SMOOTH",
"100 339 OFFCURVE",
"160 354 OFFCURVE",
"196 354 CURVE SMOOTH",
"260 354 OFFCURVE",
"317 329 OFFCURVE"
);
}
);
width = 452;
},
{
anchors = (
{
name = ogonek;
position = "{225, 0}";
},
{
name = top;
position = "{225, 545}";
}
);
layerId = "5377DFB6-1026-4380-913C-75FA0B8500B4";
name = Bold;
paths = (
{
closed = 1;
nodes = (
"304 334 CURVE",
"273 378 OFFCURVE",
"210 400 OFFCURVE",
"164 400 CURVE SMOOTH",
"91 400 OFFCURVE",
"29 354 OFFCURVE",
"29 252 CURVE",
"29 252 OFFCURVE",
"29 155 OFFCURVE",
"29 155 CURVE",
"33 28 OFFCURVE",
"120 -11 OFFCURVE",
"234 -11 CURVE SMOOTH",
"301 -11 OFFCURVE",
"359 -8 OFFCURVE",
"414 0 CURVE",
"414 0 OFFCURVE",
"414 194 OFFCURVE",
"414 306 CURVE SMOOTH",
"414 398 OFFCURVE",
"391 442 OFFCURVE",
"367 464 CURVE SMOOTH",
"323 504 OFFCURVE",
"259 508 OFFCURVE",
"206 508 CURVE",
"197 433 LINE",
"239 433 OFFCURVE",
"268 422 OFFCURVE",
"285 406 CURVE SMOOTH",
"297 395 OFFCURVE",
"304 377 OFFCURVE"
);
},
{
closed = 1;
nodes = (
"304 252 CURVE",
"304 252 OFFCURVE",
"304 94 OFFCURVE",
"304 94 CURVE",
"304 94 OFFCURVE",
"260 90 OFFCURVE",
"243 90 CURVE SMOOTH",
"153 90 OFFCURVE",
"140 123 OFFCURVE",
"140 173 CURVE SMOOTH",
"140 190 OFFCURVE",
"140 218 OFFCURVE",
"140 238 CURVE SMOOTH",
"140 275 OFFCURVE",
"164 287 OFFCURVE",
"195 287 CURVE SMOOTH",
"241 287 OFFCURVE",
"292 260 OFFCURVE"
);
}
);
width = 450;
},
{
anchors = (
{
name = ogonek;
position = "{156, 0}";
},
{
name = top;
position = "{296, 545}";
}
);
layerId = "BB2AD2B5-E4ED-4CD1-ABDB-8AA4FBC4C564";
name = Bold;
paths = (
{
closed = 1;
nodes = (
"318 334 CURVE",
"295 378 OFFCURVE",
"236 400 OFFCURVE",
"190 400 CURVE SMOOTH",
"117 400 OFFCURVE",
"47 354 OFFCURVE",
"29 252 CURVE",
"29 252 OFFCURVE",
"12 155 OFFCURVE",
"12 155 CURVE",
"-7 28 OFFCURVE",
"74 -11 OFFCURVE",
"188 -11 CURVE SMOOTH",
"255 -11 OFFCURVE",
"313 -8 OFFCURVE",
"370 0 CURVE",
"370 0 OFFCURVE",
"404 194 OFFCURVE",
"423 306 CURVE SMOOTH",
"440 398 OFFCURVE",
"424 442 OFFCURVE",
"404 464 CURVE SMOOTH",
"367 504 OFFCURVE",
"304 508 OFFCURVE",
"251 508 CURVE",
"229 433 LINE",
"271 433 OFFCURVE",
"298 422 OFFCURVE",
"312 406 CURVE SMOOTH",
"322 395 OFFCURVE",
"326 377 OFFCURVE"
);
},
{
closed = 1;
nodes = (
"304 252 CURVE",
"304 252 OFFCURVE",
"276 94 OFFCURVE",
"276 94 CURVE",
"276 94 OFFCURVE",
"231 90 OFFCURVE",
"214 90 CURVE SMOOTH",
"124 90 OFFCURVE",
"117 123 OFFCURVE",
"126 173 CURVE SMOOTH",
"129 190 OFFCURVE",
"134 218 OFFCURVE",
"137 238 CURVE SMOOTH",
"144 275 OFFCURVE",
"170 287 OFFCURVE",
"201 287 CURVE SMOOTH",
"247 287 OFFCURVE",
"293 260 OFFCURVE"
);
}
);
width = 453;
}
);
leftKerningGroup = alpha;
rightKerningGroup = alpha;
unicode = 0061;
userData = {
com.typemytype.robofont.mark = (
0.6,
1,
0.694,
1
);
};
},
{
color = (153,255,177,1);
glyphname = ae;
lastChange = "2018-12-18 00:11:23 +0000";
layers = (
{
layerId = "59B97FCD-418C-4452-9337-EB92ED35D981";
name = Light;
paths = (
{
closed = 1;
nodes = (
"414 132 CURVE SMOOTH",
"414 229 LINE",
"755 246 LINE",
"755 341 LINE SMOOTH",
"755 448 OFFCURVE",
"689 508 OFFCURVE",
"579 508 CURVE SMOOTH",
"489 508 OFFCURVE",
"422 465 OFFCURVE",
"402 391 CURVE",
"382 465 OFFCURVE",
"316 507 OFFCURVE",
"201 507 CURVE",
"201 501 OFFCURVE",
"200 495 OFFCURVE",
"200 488 CURVE",
"343 488 OFFCURVE",
"390 426 OFFCURVE",
"390 345 CURVE",
"330 374 OFFCURVE",
"259 403 OFFCURVE",
"186 403 CURVE SMOOTH",
"52 403 OFFCURVE",
"25 315 OFFCURVE",
"25 251 CURVE SMOOTH",
"25 168 LINE SMOOTH",
"25 50 OFFCURVE",
"84 -10 OFFCURVE",
"229 -10 CURVE SMOOTH",
"269 -10 OFFCURVE",
"409 0 OFFCURVE",
"409 0 CURVE",
"409 64 LINE",
"433 13 OFFCURVE",
"487 -12 OFFCURVE",
"569 -12 CURVE SMOOTH",
"625 -12 OFFCURVE",
"679 4 OFFCURVE",
"730 35 CURVE",
"721 52 LINE",
"664 20 OFFCURVE",
"621 7 OFFCURVE",
"567 7 CURVE SMOOTH",
"479 7 OFFCURVE",
"414 41 OFFCURVE"
);
},
{
closed = 1;
nodes = (
"390 322 CURVE",
"390 18 LINE",
"390 18 OFFCURVE",
"275 8 OFFCURVE",
"229 8 CURVE SMOOTH",
"73 4 OFFCURVE",
"43 90 OFFCURVE",
"43 162 CURVE SMOOTH",
"43 249 LINE SMOOTH",
"43 323 OFFCURVE",
"82 383 OFFCURVE",
"185 383 CURVE SMOOTH",
"258 383 OFFCURVE",
"319 358 OFFCURVE"
);
},
{
closed = 1;
nodes = (
"735 342 CURVE SMOOTH",
"735 264 LINE",
"414 248 LINE",
"414 332 LINE SMOOTH",
"414 462 OFFCURVE",
"508 491 OFFCURVE",
"576 491 CURVE SMOOTH",
"647 491 OFFCURVE",
"735 462 OFFCURVE"
);
}
);
width = 784;
},
{
layerId = "AC650972-4439-4B3A-A687-B8B0000379A6";
name = Light;
paths = (
{
closed = 1;
nodes = (
"395 132 CURVE SMOOTH",
"412 229 LINE",
"756 246 LINE",
"773 341 LINE SMOOTH",
"791 448 OFFCURVE",
"736 508 OFFCURVE",
"626 508 CURVE SMOOTH",
"536 508 OFFCURVE",
"461 465 OFFCURVE",
"428 391 CURVE",
"421 465 OFFCURVE",
"363 507 OFFCURVE",
"248 507 CURVE",
"247 501 OFFCURVE",
"245 495 OFFCURVE",
"244 488 CURVE",
"387 488 OFFCURVE",
"423 426 OFFCURVE",
"408 345 CURVE",
"353 374 OFFCURVE",
"288 403 OFFCURVE",
"215 403 CURVE SMOOTH",
"81 403 OFFCURVE",
"38 315 OFFCURVE",
"27 251 CURVE SMOOTH",
"12 168 LINE SMOOTH",
"-9 50 OFFCURVE",
"40 -10 OFFCURVE",
"185 -10 CURVE SMOOTH",
"225 -10 OFFCURVE",
"367 0 OFFCURVE",
"367 0 CURVE",
"378 64 LINE",
"393 13 OFFCURVE",
"442 -12 OFFCURVE",
"524 -12 CURVE SMOOTH",
"580 -12 OFFCURVE",
"637 4 OFFCURVE",
"694 35 CURVE",
"688 52 LINE",
"625 20 OFFCURVE",
"580 7 OFFCURVE",
"526 7 CURVE SMOOTH",
"438 7 OFFCURVE",
"379 41 OFFCURVE"
);
},
{
closed = 1;
nodes = (
"404 322 CURVE",
"351 18 LINE",
"351 18 OFFCURVE",
"234 8 OFFCURVE",
"188 8 CURVE SMOOTH",
"31 4 OFFCURVE",
"16 90 OFFCURVE",
"29 162 CURVE SMOOTH",
"44 249 LINE SMOOTH",
"57 323 OFFCURVE",
"107 383 OFFCURVE",
"210 383 CURVE SMOOTH",
"283 383 OFFCURVE",
"340 358 OFFCURVE"
);
},
{
closed = 1;
nodes = (
"753 342 CURVE SMOOTH",
"739 264 LINE",
"415 248 LINE",
"430 332 LINE SMOOTH",
"453 462 OFFCURVE",
"552 491 OFFCURVE",
"620 491 CURVE SMOOTH",
"691 491 OFFCURVE",
"774 462 OFFCURVE"
);
}
);
width = 794;
},
{
layerId = "2E533DD2-9170-4ADE-821A-2C583B05E934";
name = Regular;
paths = (
{
closed = 1;
nodes = (
"413 133 CURVE SMOOTH",
"413 195 LINE",
"717 211 LINE",
"717 341 LINE SMOOTH",
"717 449 OFFCURVE",
"648 508 OFFCURVE",
"541 508 CURVE SMOOTH",
"469 508 OFFCURVE",
"416 484 OFFCURVE",
"383 437 CURVE",
"346 498 OFFCURVE",
"266 507 OFFCURVE",
"202 507 CURVE",
"201 493 OFFCURVE",
"201 479 OFFCURVE",
"200 464 CURVE",
"290 464 OFFCURVE",
"354 442 OFFCURVE",
"354 349 CURVE",
"307 375 OFFCURVE",
"244 402 OFFCURVE",
"179 402 CURVE SMOOTH",
"98 402 OFFCURVE",
"26 363 OFFCURVE",
"26 251 CURVE SMOOTH",
"26 168 LINE SMOOTH",
"26 40 OFFCURVE",
"102 -4 OFFCURVE",
"206 -10 CURVE SMOOTH",
"229 -11 OFFCURVE",
"398 -3 OFFCURVE",
"410 0 CURVE",
"410 14 LINE",
"448 -11 OFFCURVE",
"499 -12 OFFCURVE",
"529 -12 CURVE SMOOTH",
"579 -11 OFFCURVE",
"641 4 OFFCURVE",
"691 35 CURVE",
"669 78 LINE",
"619 51 OFFCURVE",
"577 36 OFFCURVE",
"524 36 CURVE SMOOTH",
"492 36 OFFCURVE",
"413 38 OFFCURVE"
);
},
{
closed = 1;
nodes = (
"354 302 CURVE",
"354 46 LINE",
"354 46 OFFCURVE",
"313 42 OFFCURVE",
"248 38 CURVE SMOOTH",
"115 33 OFFCURVE",
"81 80 OFFCURVE",
"81 175 CURVE SMOOTH",
"81 249 LINE SMOOTH",
"81 339 OFFCURVE",
"138 354 OFFCURVE",
"174 354 CURVE SMOOTH",
"238 354 OFFCURVE",
"299 329 OFFCURVE"
);
},
{
closed = 1;
nodes = (
"660 348 CURVE SMOOTH",
"660 261 LINE",
"413 250 LINE",
"413 308 LINE SMOOTH",
"413 414 OFFCURVE",
"452 461 OFFCURVE",
"539 461 CURVE SMOOTH",
"582 461 OFFCURVE",
"660 439 OFFCURVE"
);
}
);
width = 747;
},
{
layerId = "AA3E7E17-FD94-4F30-8DBF-5406C904ABDB";
name = Regular;
paths = (
{
closed = 1;
nodes = (
"394 133 CURVE SMOOTH",
"405 195 LINE",
"712 211 LINE",
"735 341 LINE SMOOTH",
"754 449 OFFCURVE",
"695 508 OFFCURVE",
"588 508 CURVE SMOOTH",
"516 508 OFFCURVE",
"459 484 OFFCURVE",
"418 437 CURVE",
"391 498 OFFCURVE",
"313 507 OFFCURVE",
"249 507 CURVE",
"245 493 OFFCURVE",
"243 479 OFFCURVE",
"239 464 CURVE",
"329 464 OFFCURVE",
"389 442 OFFCURVE",
"373 349 CURVE",
"331 375 OFFCURVE",
"272 402 OFFCURVE",
"207 402 CURVE SMOOTH",
"126 402 OFFCURVE",
"48 363 OFFCURVE",
"28 251 CURVE SMOOTH",
"13 168 LINE SMOOTH",
"-9 40 OFFCURVE",
"59 -4 OFFCURVE",
"162 -10 CURVE SMOOTH",
"185 -11 OFFCURVE",
"355 -3 OFFCURVE",
"368 0 CURVE",
"370 14 LINE",
"404 -11 OFFCURVE",
"454 -12 OFFCURVE",
"484 -12 CURVE SMOOTH",
"535 -11 OFFCURVE",
"599 4 OFFCURVE",
"655 35 CURVE",
"640 78 LINE",
"585 51 OFFCURVE",
"541 36 OFFCURVE",
"488 36 CURVE SMOOTH",
"456 36 OFFCURVE",
"377 38 OFFCURVE"
);
},
{
closed = 1;
nodes = (
"365 302 CURVE",
"320 46 LINE",
"320 46 OFFCURVE",
"278 42 OFFCURVE",
"212 38 CURVE SMOOTH",
"78 33 OFFCURVE",
"53 80 OFFCURVE",
"69 175 CURVE SMOOTH",
"82 249 LINE SMOOTH",
"98 339 OFFCURVE",
"158 354 OFFCURVE",
"194 354 CURVE SMOOTH",
"258 354 OFFCURVE",
"315 329 OFFCURVE"
);
},
{
closed = 1;
nodes = (
"679 348 CURVE SMOOTH",
"664 261 LINE",
"415 250 LINE",
"425 308 LINE SMOOTH",
"443 414 OFFCURVE",
"491 461 OFFCURVE",
"578 461 CURVE SMOOTH",
"621 461 OFFCURVE",
"695 439 OFFCURVE"
);
}
);
width = 757;
},
{
layerId = "5377DFB6-1026-4380-913C-75FA0B8500B4";
name = Bold;
paths = (
{
closed = 1;
nodes = (
"418 150 CURVE SMOOTH",
"418 174 LINE",
"666 187 LINE",
"666 343 LINE SMOOTH",
"666 450 OFFCURVE",
"588 510 OFFCURVE",
"490 510 CURVE SMOOTH",
"441 510 OFFCURVE",
"398 497 OFFCURVE",
"360 469 CURVE",
"316 504 OFFCURVE",
"256 508 OFFCURVE",
"205 508 CURVE",
"202 483 OFFCURVE",
"200 459 OFFCURVE",
"196 433 CURVE",
"273 431 OFFCURVE",
"303 408 OFFCURVE",
"303 334 CURVE",
"272 378 OFFCURVE",
"210 400 OFFCURVE",
"163 400 CURVE SMOOTH",
"90 400 OFFCURVE",
"28 354 OFFCURVE",
"28 252 CURVE SMOOTH",
"28 155 LINE SMOOTH",
"34 28 OFFCURVE",
"121 -11 OFFCURVE",
"234 -11 CURVE SMOOTH",
"295 -11 OFFCURVE",
"349 -9 OFFCURVE",
"401 -2 CURVE",
"401 13 LINE",
"416 0 OFFCURVE",
"453 -12 OFFCURVE",
"487 -12 CURVE SMOOTH",
"547 -12 OFFCURVE",
"595 7 OFFCURVE",
"641 36 CURVE",
"601 131 LINE",
"558 109 OFFCURVE",
"510 91 OFFCURVE",
"475 91 CURVE SMOOTH",
"436 91 OFFCURVE",
"418 117 OFFCURVE"
);
},
{
closed = 1;
nodes = (
"303 252 CURVE",
"303 94 LINE",
"303 94 OFFCURVE",
"259 90 OFFCURVE",
"243 90 CURVE SMOOTH",
"152 90 OFFCURVE",
"139 123 OFFCURVE",
"139 173 CURVE SMOOTH",
"139 238 LINE SMOOTH",
"139 275 OFFCURVE",
"163 287 OFFCURVE",
"194 287 CURVE SMOOTH",
"242 287 OFFCURVE",
"291 260 OFFCURVE"
);
},
{
closed = 1;
nodes = (
"556 323 CURVE SMOOTH",
"556 284 LINE",
"418 275 LINE",
"418 326 LINE SMOOTH",
"418 380 OFFCURVE",
"440 403 OFFCURVE",
"489 405 CURVE SMOOTH",
"544 405 OFFCURVE",
"556 367 OFFCURVE"
);
}
);
width = 698;
},
{
layerId = "BB2AD2B5-E4ED-4CD1-ABDB-8AA4FBC4C564";
name = Bold;
paths = (
{
closed = 1;
nodes = (
"400 150 CURVE SMOOTH",
"404 174 LINE",
"654 187 LINE",
"682 343 LINE SMOOTH",
"701 450 OFFCURVE",
"633 510 OFFCURVE",
"535 510 CURVE SMOOTH",
"486 510 OFFCURVE",
"441 497 OFFCURVE",
"398 469 CURVE",
"360 504 OFFCURVE",
"301 508 OFFCURVE",
"250 508 CURVE",
"243 483 OFFCURVE",
"236 459 OFFCURVE",
"228 433 CURVE",
"304 431 OFFCURVE",
"330 408 OFFCURVE",
"317 334 CURVE",
"294 378 OFFCURVE",
"236 400 OFFCURVE",
"189 400 CURVE SMOOTH",
"116 400 OFFCURVE",
"46 354 OFFCURVE",
"28 252 CURVE SMOOTH",
"11 155 LINE SMOOTH",
"-6 28 OFFCURVE",
"75 -11 OFFCURVE",
"188 -11 CURVE SMOOTH",
"249 -11 OFFCURVE",
"303 -9 OFFCURVE",
"356 -2 CURVE",
"359 13 LINE",
"372 0 OFFCURVE",
"406 -12 OFFCURVE",
"440 -12 CURVE SMOOTH",
"500 -12 OFFCURVE",
"552 7 OFFCURVE",
"603 36 CURVE",
"580 131 LINE",
"533 109 OFFCURVE",
"482 91 OFFCURVE",
"447 91 CURVE SMOOTH",
"408 91 OFFCURVE",
"394 117 OFFCURVE"
);
},
{
closed = 1;
nodes = (
"303 252 CURVE",
"275 94 LINE",
"275 94 OFFCURVE",
"230 90 OFFCURVE",
"214 90 CURVE SMOOTH",
"123 90 OFFCURVE",
"116 123 OFFCURVE",
"125 173 CURVE SMOOTH",
"136 238 LINE SMOOTH",
"143 275 OFFCURVE",
"169 287 OFFCURVE",
"200 287 CURVE SMOOTH",
"248 287 OFFCURVE",
"292 260 OFFCURVE"
);
},
{
closed = 1;
nodes = (
"568 323 CURVE SMOOTH",
"562 284 LINE",
"422 275 LINE",
"431 326 LINE SMOOTH",
"441 380 OFFCURVE",
"467 403 OFFCURVE",
"516 405 CURVE SMOOTH",
"571 405 OFFCURVE",
"576 367 OFFCURVE"
);
}
);
width = 705;
}
);
unicode = 00E6;
userData = {
com.typemytype.robofont.mark = (
0.6,
1,
0.694,
1
);
};
},
{
color = (153,255,177,1);
glyphname = alpha;
lastChange = "2018-12-18 00:11:23 +0000";
layers = (
{
anchors = (
{
name = tonos;
position = "{218, 545}";
}
);
layerId = "59B97FCD-418C-4452-9337-EB92ED35D981";
name = Light;
paths = (
{
closed = 1;
nodes = (
"401 485 CURVE",
"385 488 LINE",
"385 488 OFFCURVE",
"380 470 OFFCURVE",
"377 453 CURVE",
"316 483 OFFCURVE",
"247 506 OFFCURVE",
"186 506 CURVE SMOOTH",
"107 506 OFFCURVE",
"30 473 OFFCURVE",
"30 353 CURVE SMOOTH",
"30 157 LINE SMOOTH",
"30 75 OFFCURVE",
"71 -4 OFFCURVE",
"206 -4 CURVE SMOOTH",
"280 -4 OFFCURVE",
"394 4 OFFCURVE",
"394 4 CURVE",
"394 433 LINE SMOOTH",
"394 454 OFFCURVE",
"401 485 OFFCURVE"
);
},
{
closed = 1;
nodes = (
"49 162 CURVE SMOOTH",
"49 350 LINE SMOOTH",
"49 437 OFFCURVE",
"93 487 OFFCURVE",
"181 487 CURVE SMOOTH",
"243 487 OFFCURVE",
"308 470 OFFCURVE",
"375 432 CURVE",
"375 22 LINE",
"375 22 OFFCURVE",
"276 14 OFFCURVE",
"206 14 CURVE SMOOTH",
"101 14 OFFCURVE",
"49 65 OFFCURVE"
);
}
);
width = 437;
},
{
anchors = (
{
name = tonos;
position = "{294, 545}";
}
);
layerId = "AC650972-4439-4B3A-A687-B8B0000379A6";
name = Light;
paths = (
{
closed = 1;
nodes = (
"441 485 CURVE",
"426 488 LINE",
"426 488 OFFCURVE",
"417 470 OFFCURVE",
"411 453 CURVE",
"356 483 OFFCURVE",
"291 506 OFFCURVE",
"230 506 CURVE SMOOTH",
"151 506 OFFCURVE",
"68 473 OFFCURVE",
"47 353 CURVE SMOOTH",
"12 157 LINE SMOOTH",
"-2 75 OFFCURVE",
"25 -4 OFFCURVE",
"160 -4 CURVE SMOOTH",
"234 -4 OFFCURVE",
"349 4 OFFCURVE",
"349 4 CURVE",
"425 433 LINE SMOOTH",
"429 454 OFFCURVE",
"441 485 OFFCURVE"
);
},
{
closed = 1;
nodes = (
"32 162 CURVE SMOOTH",
"65 350 LINE SMOOTH",
"81 437 OFFCURVE",
"133 487 OFFCURVE",
"221 487 CURVE SMOOTH",
"283 487 OFFCURVE",
"345 470 OFFCURVE",
"406 432 CURVE",
"333 22 LINE",
"333 22 OFFCURVE",
"233 14 OFFCURVE",
"163 14 CURVE SMOOTH",
"58 14 OFFCURVE",
"15 65 OFFCURVE"
);
}
);
width = 448;
},
{
anchors = (
{
name = tonos;
position = "{219, 545}";
}
);
layerId = "2E533DD2-9170-4ADE-821A-2C583B05E934";
name = Regular;
paths = (
{
closed = 1;
nodes = (
"402 485 CURVE",
"358 506 LINE",
"350 488 OFFCURVE",
"345 463 OFFCURVE",
"345 463 CURVE",
"291 490 OFFCURVE",
"231 506 OFFCURVE",
"178 506 CURVE SMOOTH",
"103 506 OFFCURVE",
"31 471 OFFCURVE",
"31 353 CURVE SMOOTH",
"31 168 LINE SMOOTH",
"31 19 OFFCURVE",
"130 -7 OFFCURVE",
"225 -4 CURVE SMOOTH",
"271 -2 OFFCURVE",
"395 4 OFFCURVE",
"395 4 CURVE",
"395 399 LINE SMOOTH",
"395 447 OFFCURVE",
"402 485 OFFCURVE"
);
},
{
closed = 1;
nodes = (
"86 162 CURVE SMOOTH",
"86 350 LINE SMOOTH",
"86 448 OFFCURVE",
"144 457 OFFCURVE",
"176 454 CURVE",
"216 454 OFFCURVE",
"271 441 OFFCURVE",
"339 414 CURVE",
"339 52 LINE",
"339 52 OFFCURVE",
"276 46 OFFCURVE",
"205 46 CURVE SMOOTH",
"126 46 OFFCURVE",
"86 87 OFFCURVE"
);
}
);
width = 438;
},
{
anchors = (
{
name = tonos;
position = "{296, 545}";
}
);
layerId = "AA3E7E17-FD94-4F30-8DBF-5406C904ABDB";
name = Regular;
paths = (
{
closed = 1;
nodes = (
"446 485 CURVE",
"406 506 LINE",
"395 488 OFFCURVE",
"385 463 OFFCURVE",
"385 463 CURVE",
"336 490 OFFCURVE",
"263 507 OFFCURVE",
"210 507 CURVE SMOOTH",
"135 507 OFFCURVE",
"74 476 OFFCURVE",
"53 358 CURVE SMOOTH",
"19 168 LINE SMOOTH",
"-8 19 OFFCURVE",
"87 -7 OFFCURVE",
"183 -4 CURVE SMOOTH",
"229 -2 OFFCURVE",
"354 4 OFFCURVE",
"354 4 CURVE",
"424 399 LINE SMOOTH",
"432 447 OFFCURVE",
"446 485 OFFCURVE"
);
},
{
closed = 1;
nodes = (
"73 162 CURVE SMOOTH",
"106 350 LINE SMOOTH",
"123 448 OFFCURVE",
"183 457 OFFCURVE",
"215 454 CURVE",
"255 454 OFFCURVE",
"307 441 OFFCURVE",
"370 414 CURVE",
"307 52 LINE",
"307 52 OFFCURVE",
"243 46 OFFCURVE",
"172 46 CURVE SMOOTH",
"93 46 OFFCURVE",
"60 87 OFFCURVE"
);
}
);
width = 453;
},
{
anchors = (
{
name = tonos;
position = "{221, 545}";
}
);
layerId = "5377DFB6-1026-4380-913C-75FA0B8500B4";
name = Bold;
paths = (
{
closed = 1;
nodes = (
"405 485 CURVE",
"306 510 LINE",
"301 499 OFFCURVE",
"297 485 OFFCURVE",
"297 485 CURVE",
"281 491 OFFCURVE",
"236 506 OFFCURVE",
"175 506 CURVE SMOOTH",
"97 506 OFFCURVE",
"35 469 OFFCURVE",
"33 354 CURVE",
"33 169 LINE SMOOTH",
"33 76 OFFCURVE",
"73 -4 OFFCURVE",
"196 -4 CURVE SMOOTH",
"273 -4 OFFCURVE",
"399 5 OFFCURVE",
"399 5 CURVE",
"399 389 LINE SMOOTH",
"399 410 OFFCURVE",
"401 443 OFFCURVE"
);
},
{
closed = 1;
nodes = (
"143 168 CURVE SMOOTH",
"143 351 LINE SMOOTH",
"143 403 OFFCURVE",
"182 406 OFFCURVE",
"203 406 CURVE SMOOTH",
"225 405 OFFCURVE",
"265 396 OFFCURVE",
"287 386 CURVE",
"287 91 LINE",
"261 88 OFFCURVE",
"237 88 OFFCURVE",
"215 88 CURVE SMOOTH",
"167 88 OFFCURVE",
"143 102 OFFCURVE"
);
}
);
width = 442;
},
{
anchors = (
{
name = tonos;
position = "{295, 545}";
}
);
layerId = "BB2AD2B5-E4ED-4CD1-ABDB-8AA4FBC4C564";
name = Bold;
paths = (
{
closed = 1;
nodes = (
"443 485 CURVE",
"348 510 LINE",
"341 499 OFFCURVE",
"335 485 OFFCURVE",
"335 485 CURVE",
"320 491 OFFCURVE",
"278 506 OFFCURVE",
"217 506 CURVE SMOOTH",
"139 506 OFFCURVE",
"70 469 OFFCURVE",
"48 354 CURVE SMOOTH",
"15 169 LINE SMOOTH",
"-1 76 OFFCURVE",
"25 -4 OFFCURVE",
"148 -4 CURVE SMOOTH",
"225 -4 OFFCURVE",
"352 5 OFFCURVE",
"352 5 CURVE",
"420 389 LINE SMOOTH",
"424 410 OFFCURVE",
"432 443 OFFCURVE"
);
},
{
closed = 1;
nodes = (
"125 168 CURVE SMOOTH",
"157 351 LINE SMOOTH",
"167 403 OFFCURVE",
"206 406 OFFCURVE",
"227 406 CURVE SMOOTH",
"249 405 OFFCURVE",
"287 396 OFFCURVE",
"308 386 CURVE",
"256 91 LINE",
"229 88 OFFCURVE",
"205 88 OFFCURVE",
"183 88 CURVE SMOOTH",
"135 88 OFFCURVE",
"113 102 OFFCURVE"
);
}
);
width = 451;
}
);
leftKerningGroup = alpha;
rightKerningGroup = alpha;
unicode = 03B1;
userData = {
com.typemytype.robofont.mark = (
0.6,
1,
0.694,
1
);
};
},
{
color = (153,255,177,1);
glyphname = ampersand;
lastChange = "2018-12-18 00:57:37 +0000";
layers = (
{
layerId = "59B97FCD-418C-4452-9337-EB92ED35D981";
name = Light;
paths = (
{
closed = 1;
nodes = (
"392 681 LINE",
"402 702 LINE",
"233 702 LINE",
"140 702 OFFCURVE",
"88 639 OFFCURVE",
"91 553 CURVE SMOOTH",
"93 497 OFFCURVE",
"129 436 OFFCURVE",
"201 403 CURVE",
"183 403 LINE",
"48 403 OFFCURVE",
"29 318 OFFCURVE",
"29 254 CURVE",
"29 161 LINE",
"29 4 OFFCURVE",
"150 -9 OFFCURVE",
"223 -4 CURVE SMOOTH",
"285 0 OFFCURVE",
"357 33 OFFCURVE",
"381 105 CURVE",
"389 46 OFFCURVE",
"421 10 OFFCURVE",
"486 -9 CURVE",
"491 9 LINE",
"425 31 OFFCURVE",
"397 63 OFFCURVE",
"397 136 CURVE SMOOTH",
"397 382 LINE",
"487 382 LINE",
"496 403 LINE",
"397 403 LINE",
"397 505 LINE",
"381 505 LINE",
"381 403 LINE",
"274 403 LINE",
"218 403 OFFCURVE",
"114 459 OFFCURVE",
"114 554 CURVE SMOOTH",
"111 628 OFFCURVE",
"158 681 OFFCURVE",
"237 681 CURVE"
);
},
{
closed = 1;
nodes = (
"381 382 LINE",
"381 173 LINE SMOOTH",
"381 91 OFFCURVE",
"319 20 OFFCURVE",
"223 13 CURVE SMOOTH",
"117 5 OFFCURVE",
"48 47 OFFCURVE",
"48 159 CURVE",
"48 251 LINE",
"48 326 OFFCURVE",
"78 382 OFFCURVE",
"181 382 CURVE"
);
}
);
width = 527;
},
{
layerId = "AC650972-4439-4B3A-A687-B8B0000379A6";
name = Light;
paths = (
{
closed = 1;
nodes = (
"486 681 LINE",
"499 702 LINE",
"330 702 LINE",
"237 702 OFFCURVE",
"174 639 OFFCURVE",
"162 553 CURVE SMOOTH",
"154 497 OFFCURVE",
"179 436 OFFCURVE",
"246 403 CURVE",
"228 403 LINE",
"93 403 OFFCURVE",
"59 318 OFFCURVE",
"47 254 CURVE",
"31 161 LINE",
"3 4 OFFCURVE",
"122 -9 OFFCURVE",
"196 -4 CURVE SMOOTH",
"259 0 OFFCURVE",
"332 26 OFFCURVE",
"374 101 CURVE",
"373 49 OFFCURVE",
"396 10 OFFCURVE",
"458 -9 CURVE",
"466 9 LINE",
"412 20 OFFCURVE",
"382 63 OFFCURVE",
"394 136 CURVE SMOOTH",
"438 382 LINE",
"528 382 LINE",
"541 403 LINE",
"442 403 LINE",
"460 505 LINE",
"444 505 LINE",
"426 403 LINE",
"319 403 LINE",
"263 403 OFFCURVE",
"168 459 OFFCURVE",
"185 554 CURVE SMOOTH",
"195 628 OFFCURVE",
"252 681 OFFCURVE",
"331 681 CURVE"
);
},
{
closed = 1;
nodes = (
"422 382 LINE",
"385 173 LINE SMOOTH",
"371 91 OFFCURVE",
"296 20 OFFCURVE",
"199 13 CURVE SMOOTH",
"91 5 OFFCURVE",
"30 47 OFFCURVE",
"50 159 CURVE",
"66 251 LINE",
"79 326 OFFCURVE",
"119 382 OFFCURVE",
"222 382 CURVE"
);
}
);
width = 555;
},
{
layerId = "2E533DD2-9170-4ADE-821A-2C583B05E934";
name = Regular;
paths = (
{
closed = 1;
nodes = (
"378 651 LINE",
"403 702 LINE",
"238 702 LINE",
"145 702 OFFCURVE",
"91 636 OFFCURVE",
"96 546 CURVE SMOOTH",
"97 505 OFFCURVE",
"112 441 OFFCURVE",
"173 402 CURVE",
"154 402 LINE",
"82 396 OFFCURVE",
"30 358 OFFCURVE",
"30 254 CURVE",
"30 159 LINE",
"33 46 OFFCURVE",
"97 -6 OFFCURVE",
"207 -6 CURVE SMOOTH",
"252 -6 OFFCURVE",
"321 14 OFFCURVE",
"362 62 CURVE",
"377 26 OFFCURVE",
"407 4 OFFCURVE",
"453 -9 CURVE",
"466 34 LINE",
"422 50 OFFCURVE",
"398 84 OFFCURVE",
"398 136 CURVE SMOOTH",
"398 349 LINE",
"474 349 LINE",
"497 403 LINE",
"398 403 LINE",
"398 505 LINE",
"345 505 LINE",
"345 402 LINE",
"295 402 LINE",
"214 402 OFFCURVE",
"152 464 OFFCURVE",
"152 543 CURVE SMOOTH",
"149 607 OFFCURVE",
"185 651 OFFCURVE",
"241 651 CURVE"
);
},
{
closed = 1;
nodes = (
"345 349 LINE",
"345 176 LINE SMOOTH",
"345 106 OFFCURVE",
"299 57 OFFCURVE",
"218 50 CURVE SMOOTH",
"132 42 OFFCURVE",
"86 87 OFFCURVE",
"86 164 CURVE",
"86 251 LINE",
"86 342 OFFCURVE",
"147 349 OFFCURVE",
"184 349 CURVE"
);
}
);
width = 527;
},
{
layerId = "AA3E7E17-FD94-4F30-8DBF-5406C904ABDB";
name = Regular;
paths = (
{
closed = 1;
nodes = (
"459 651 LINE",
"493 702 LINE",
"328 702 LINE",
"235 702 OFFCURVE",
"170 636 OFFCURVE",
"159 546 CURVE SMOOTH",
"153 505 OFFCURVE",
"168 436 OFFCURVE",
"218 402 CURVE",
"191 402 LINE",
"118 396 OFFCURVE",
"60 358 OFFCURVE",
"41 254 CURVE",
"25 159 LINE",
"8 46 OFFCURVE",
"62 -6 OFFCURVE",
"172 -6 CURVE SMOOTH",
"217 -6 OFFCURVE",
"290 14 OFFCURVE",
"339 62 CURVE",
"348 26 OFFCURVE",
"374 4 OFFCURVE",
"418 -9 CURVE",
"438 34 LINE",
"397 50 OFFCURVE",
"379 84 OFFCURVE",
"388 136 CURVE SMOOTH",
"426 349 LINE",
"502 349 LINE",
"535 403 LINE",
"436 403 LINE",
"454 505 LINE",
"401 505 LINE",
"382 402 LINE",
"332 402 LINE",
"251 402 OFFCURVE",
"200 464 OFFCURVE",
"214 543 CURVE SMOOTH",
"223 607 OFFCURVE",
"266 651 OFFCURVE",
"322 651 CURVE"
);
},
{
closed = 1;
nodes = (
"373 349 LINE",
"343 176 LINE SMOOTH",
"330 106 OFFCURVE",
"276 57 OFFCURVE",
"193 50 CURVE SMOOTH",
"106 42 OFFCURVE",
"68 87 OFFCURVE",
"81 164 CURVE",
"97 251 LINE",
"113 342 OFFCURVE",
"175 349 OFFCURVE",
"212 349 CURVE"
);
}
);
width = 549;
},
{
layerId = "5377DFB6-1026-4380-913C-75FA0B8500B4";
name = Bold;
paths = (
{
closed = 1;
nodes = (
"383 588 LINE",
"404 700 LINE",
"236 700 LINE",
"146 700 OFFCURVE",
"73 640 OFFCURVE",
"73 554 CURVE SMOOTH",
"73 486 OFFCURVE",
"112 433 OFFCURVE",
"169 403 CURVE",
"155 403 LINE",
"81 403 OFFCURVE",
"31 358 OFFCURVE",
"31 256 CURVE",
"31 161 LINE",
"31 34 OFFCURVE",
"114 -2 OFFCURVE",
"192 -2 CURVE SMOOTH",
"234 -2 OFFCURVE",
"279 16 OFFCURVE",
"314 48 CURVE",
"339 12 OFFCURVE",
"382 -7 OFFCURVE",
"443 -8 CURVE",
"476 80 LINE",
"430 80 OFFCURVE",
"404 91 OFFCURVE",
"404 136 CURVE SMOOTH",
"404 306 LINE",
"475 306 LINE",
"498 403 LINE",
"399 403 LINE",
"399 506 LINE",
"289 506 LINE",
"289 403 LINE",
"277 403 LINE",
"230 437 OFFCURVE",
"182 477 OFFCURVE",
"182 539 CURVE SMOOTH",
"182 582 OFFCURVE",
"220 588 OFFCURVE",
"246 588 CURVE"
);
},
{
closed = 1;
nodes = (
"289 310 LINE",
"289 167 LINE",
"281 125 OFFCURVE",
"249 98 OFFCURVE",
"209 98 CURVE SMOOTH",
"166 98 OFFCURVE",
"140 127 OFFCURVE",
"140 164 CURVE",
"140 258 LINE",
"140 296 OFFCURVE",
"169 310 OFFCURVE",
"201 310 CURVE"
);
}
);
width = 529;
},
{
layerId = "BB2AD2B5-E4ED-4CD1-ABDB-8AA4FBC4C564";
name = Bold;
paths = (
{
closed = 1;
nodes = (
"443 588 LINE",
"496 700 LINE",
"328 700 LINE",
"214 700 OFFCURVE",
"153 640 OFFCURVE",
"143 554 CURVE SMOOTH",
"135 486 OFFCURVE",
"171 429 OFFCURVE",
"210 403 CURVE",
"195 403 LINE",
"121 403 OFFCURVE",
"63 358 OFFCURVE",
"45 256 CURVE",
"28 161 LINE",
"5 34 OFFCURVE",
"82 -2 OFFCURVE",
"160 -2 CURVE SMOOTH",
"202 -2 OFFCURVE",
"250 16 OFFCURVE",
"291 48 CURVE",
"310 12 OFFCURVE",
"349 -7 OFFCURVE",
"410 -8 CURVE",
"459 80 LINE",
"413 80 OFFCURVE",
"389 91 OFFCURVE",
"396 136 CURVE SMOOTH",
"426 306 LINE",
"497 306 LINE",
"538 403 LINE",
"439 403 LINE",
"457 506 LINE",
"347 506 LINE",
"329 403 LINE",
"317 403 LINE",
"276 437 OFFCURVE",
"241 477 OFFCURVE",
"249 531 CURVE SMOOTH",
"253 558 OFFCURVE",
"270 588 OFFCURVE",
"322 588 CURVE"
);
},
{
closed = 1;
nodes = (
"312 310 LINE",
"287 167 LINE",
"272 125 OFFCURVE",
"235 98 OFFCURVE",
"195 98 CURVE SMOOTH",
"152 98 OFFCURVE",
"131 127 OFFCURVE",
"137 164 CURVE",
"154 258 LINE",
"161 296 OFFCURVE",
"192 310 OFFCURVE",
"224 310 CURVE"
);
}
);
width = 552;
}
);
leftKerningGroup = beta;
rightKerningGroup = beta;
unicode = 0026;
userData = {
com.typemytype.robofont.mark = (
0.6,
1,
0.694,
1
);
};
},
{
color = (153,155,255,1);
glyphname = asciicircum;
lastChange = "2018-12-18 00:11:23 +0000";
layers = (
{
layerId = "59B97FCD-418C-4452-9337-EB92ED35D981";
name = Light;
paths = (
{
closed = 1;
nodes = (
"254 779 LINE",
"134 897 LINE",
"11 778 LINE",
"26 763 LINE",
"134 867 LINE",
"239 763 LINE"
);
}
);
width = 266;
},
{
layerId = "AC650972-4439-4B3A-A687-B8B0000379A6";
name = Light;
paths = (
{
closed = 1;
nodes = (
"254 779 LINE",
"155 897 LINE",
"11 778 LINE",
"23 763 LINE",
"149 867 LINE",
"236 763 LINE"
);
}
);
width = 266;
},
{
layerId = "2E533DD2-9170-4ADE-821A-2C583B05E934";
name = Regular;
paths = (
{
closed = 1;
nodes = (
"263 770 LINE",
"135 897 LINE",
"3 769 LINE",
"42 730 LINE",
"135 821 LINE",
"224 733 LINE"
);
}
);
width = 266;
},
{
layerId = "AA3E7E17-FD94-4F30-8DBF-5406C904ABDB";
name = Regular;
paths = (
{
closed = 1;
nodes = (
"263 770 LINE",
"158 897 LINE",
"3 769 LINE",
"35 730 LINE",
"144 821 LINE",
"218 733 LINE"
);
}
);
width = 266;
},
{
layerId = "5377DFB6-1026-4380-913C-75FA0B8500B4";
name = Bold;
paths = (
{
closed = 1;
nodes = (
"263 772 LINE",
"135 898 LINE",
"3 771 LINE",
"55 718 LINE",
"135 801 LINE",
"209 719 LINE"
);
}
);
width = 266;
},
{
layerId = "BB2AD2B5-E4ED-4CD1-ABDB-8AA4FBC4C564";
name = Bold;
paths = (
{
closed = 1;
nodes = (
"263 772 LINE",
"157 898 LINE",
"2 771 LINE",
"45 718 LINE",
"140 801 LINE",
"199 719 LINE"
);
}
);
width = 266;
}
);
unicode = 005E;
userData = {
com.typemytype.robofont.mark = (
0.6,
0.609,
1,
1
);
};
},
{
color = (153,255,187,1);
glyphname = asciitilde;
lastChange = "2018-12-18 00:11:23 +0000";
layers = (
{
layerId = "59B97FCD-418C-4452-9337-EB92ED35D981";
name = Light;
paths = (
{
closed = 1;
nodes = (
"278 307 CURVE",
"268 322 LINE",
"246 302 OFFCURVE",
"225 296 OFFCURVE",
"204 297 CURVE SMOOTH",
"159 299 OFFCURVE",
"115 337 OFFCURVE",
"65 337 CURVE SMOOTH",
"40 337 OFFCURVE",
"15 329 OFFCURVE",
"-12 304 CURVE",
"-1 287 LINE",
"21 309 OFFCURVE",
"43 317 OFFCURVE",
"63 317 CURVE SMOOTH",
"106 317 OFFCURVE",
"156 278 OFFCURVE",
"208 278 CURVE SMOOTH",
"230 278 OFFCURVE",
"254 286 OFFCURVE"
);
}
);
width = 266;
},
{
layerId = "AC650972-4439-4B3A-A687-B8B0000379A6";
name = Light;
paths = (
{
closed = 1;
nodes = (
"279 307 CURVE",
"271 322 LINE",
"246 302 OFFCURVE",
"224 296 OFFCURVE",
"203 297 CURVE SMOOTH",
"158 299 OFFCURVE",
"121 337 OFFCURVE",
"71 337 CURVE SMOOTH",
"46 337 OFFCURVE",
"20 329 OFFCURVE",
"-12 304 CURVE",
"-4 287 LINE",
"22 309 OFFCURVE",
"45 317 OFFCURVE",
"65 317 CURVE SMOOTH",
"108 317 OFFCURVE",
"152 278 OFFCURVE",
"204 278 CURVE SMOOTH",
"226 278 OFFCURVE",
"251 286 OFFCURVE"
);
}
);
width = 266;
},
{
layerId = "2E533DD2-9170-4ADE-821A-2C583B05E934";
name = Regular;
paths = (
{
closed = 1;
nodes = (
"288 305 CURVE",
"263 346 LINE",
"247 329 OFFCURVE",
"227 318 OFFCURVE",
"202 317 CURVE SMOOTH",
"155 316 OFFCURVE",
"111 353 OFFCURVE",
"61 353 CURVE SMOOTH",
"35 353 OFFCURVE",
"8 343 OFFCURVE",
"-21 312 CURVE",
"2 271 LINE",
"26 293 OFFCURVE",
"48 299 OFFCURVE",
"69 298 CURVE SMOOTH",
"114 296 OFFCURVE",
"157 262 OFFCURVE",
"204 262 CURVE SMOOTH",
"229 261 OFFCURVE",
"257 272 OFFCURVE"
);
}
);
width = 266;
},
{
layerId = "AA3E7E17-FD94-4F30-8DBF-5406C904ABDB";
name = Regular;
paths = (
{
closed = 1;
nodes = (
"287 305 CURVE",
"270 346 LINE",
"251 329 OFFCURVE",
"229 318 OFFCURVE",
"203 317 CURVE SMOOTH",
"156 316 OFFCURVE",
"119 353 OFFCURVE",
"69 353 CURVE SMOOTH",
"43 353 OFFCURVE",
"14 343 OFFCURVE",
"-20 312 CURVE",
"-5 271 LINE",
"23 293 OFFCURVE",
"46 299 OFFCURVE",
"67 298 CURVE SMOOTH",
"112 296 OFFCURVE",
"149 262 OFFCURVE",
"196 262 CURVE SMOOTH",
"221 261 OFFCURVE",
"250 272 OFFCURVE"
);
}
);
width = 266;
},
{
layerId = "5377DFB6-1026-4380-913C-75FA0B8500B4";
name = Bold;
paths = (
{
closed = 1;
nodes = (
"291 299 CURVE",
"258 355 LINE",
"234 337 OFFCURVE",
"213 331 OFFCURVE",
"195 331 CURVE SMOOTH",
"153 331 OFFCURVE",
"116 360 OFFCURVE",
"70 360 CURVE SMOOTH",
"33 360 OFFCURVE",
"2 341 OFFCURVE",
"-25 319 CURVE",
"8 263 LINE",
"32 279 OFFCURVE",
"54 286 OFFCURVE",
"74 286 CURVE SMOOTH",
"115 285 OFFCURVE",
"151 257 OFFCURVE",
"194 256 CURVE SMOOTH",
"234 256 OFFCURVE",
"265 276 OFFCURVE"
);
}
);
width = 266;
},
{
layerId = "BB2AD2B5-E4ED-4CD1-ABDB-8AA4FBC4C564";
name = Bold;
paths = (
{
closed = 1;
nodes = (
"289 299 CURVE",
"266 355 LINE",
"239 337 OFFCURVE",
"217 331 OFFCURVE",
"199 331 CURVE SMOOTH",
"157 331 OFFCURVE",
"125 360 OFFCURVE",
"79 360 CURVE SMOOTH",
"42 360 OFFCURVE",
"8 341 OFFCURVE",
"-23 319 CURVE",
"0 263 LINE",
"27 279 OFFCURVE",
"50 286 OFFCURVE",
"70 286 CURVE SMOOTH",
"111 285 OFFCURVE",
"142 257 OFFCURVE",
"185 256 CURVE SMOOTH",
"225 256 OFFCURVE",
"259 276 OFFCURVE"
);
}
);
width = 266;
}
);
unicode = 007E;
userData = {
com.typemytype.robofont.mark = (
0.6,
1,
0.732,
1
);
};
},
{
color = (153,255,177,1);
glyphname = asterisk;
lastChange = "2018-12-18 00:11:23 +0000";
layers = (
{
layerId = "59B97FCD-418C-4452-9337-EB92ED35D981";
name = Light;
paths = (
{
closed = 1;
nodes = (
"29 612 LINE",
"22 592 LINE",
"150 546 LINE",
"71 440 LINE",
"89 427 LINE",
"166 536 LINE",
"248 427 LINE",
"264 440 LINE",
"182 546 LINE",
"312 592 LINE",
"305 612 LINE",
"175 561 LINE",
"176 698 LINE",
"154 698 LINE",
"155 561 LINE"
);
}
);
width = 336;
},
{
layerId = "AC650972-4439-4B3A-A687-B8B0000379A6";
name = Light;
paths = (
{
closed = 1;
nodes = (
"34 612 LINE",
"24 592 LINE",
"144 546 LINE",
"46 440 LINE",
"62 427 LINE",
"158 536 LINE",
"221 427 LINE",
"239 440 LINE",
"176 546 LINE",
"314 592 LINE",
"310 612 LINE",
"171 561 LINE",
"197 698 LINE",
"175 698 LINE",
"151 561 LINE"
);
}
);
width = 327;
},
{
layerId = "2E533DD2-9170-4ADE-821A-2C583B05E934";
name = Regular;
paths = (
{
closed = 1;
nodes = (
"41 625 LINE",
"23 577 LINE",
"129 539 LINE",
"64 449 LINE",
"109 418 LINE",
"174 514 LINE",
"243 418 LINE",
"284 449 LINE",
"218 539 LINE",
"327 577 LINE",
"306 625 LINE",
"199 585 LINE",
"199 698 LINE",
"145 698 LINE",
"145 585 LINE"
);
}
);
width = 352;
},
{
layerId = "AA3E7E17-FD94-4F30-8DBF-5406C904ABDB";
name = Regular;
paths = (
{
closed = 1;
nodes = (
"51 625 LINE",
"24 577 LINE",
"124 539 LINE",
"43 449 LINE",
"82 418 LINE",
"164 514 LINE",
"216 418 LINE",
"263 449 LINE",
"213 539 LINE",
"328 577 LINE",
"316 625 LINE",
"202 585 LINE",
"222 698 LINE",
"168 698 LINE",
"148 585 LINE"
);
}
);
width = 341;
},
{
layerId = "5377DFB6-1026-4380-913C-75FA0B8500B4";
name = Bold;
paths = (
{
closed = 1;
nodes = (
"65 653 LINE",
"26 550 LINE",
"143 540 LINE",
"52 466 LINE",
"150 396 LINE",
"188 514 LINE",
"226 396 LINE",
"328 464 LINE",
"232 539 LINE",
"353 549 LINE",
"308 654 LINE",
"215 586 LINE",
"249 698 LINE",
"129 698 LINE",
"162 586 LINE"
);
}
);
width = 381;
},
{
layerId = "BB2AD2B5-E4ED-4CD1-ABDB-8AA4FBC4C564";
name = Bold;
paths = (
{
closed = 1;
nodes = (
"83 653 LINE",
"25 550 LINE",
"141 540 LINE",
"37 466 LINE",
"122 396 LINE",
"181 514 LINE",
"198 396 LINE",
"312 464 LINE",
"230 539 LINE",
"352 549 LINE",
"326 654 LINE",
"221 586 LINE",
"275 698 LINE",
"155 698 LINE",
"168 586 LINE"
);
}
);
width = 365;
}
);
leftKerningGroup = equal;
rightKerningGroup = equal;
unicode = 002A;
userData = {
com.typemytype.robofont.mark = (
0.6,
1,
0.694,
1
);
};
},
